mtllib model_3.mtl
o model_3
v 0.22972699999809265 0.11566200107336044 -0.02427849918603897 
v 0.22972699999809265 0.1261540949344635 -0.02427849918603897 
v 0.5899158120155334 0.11722807586193085 -0.02427849918603897 
v 0.5899158120155334 0.1277201771736145 -0.02427849918603897 
v 0.22972699999809265 0.12676692008972168 0.013083972036838531 
v 0.5899158120155334 0.1283329874277115 0.013083972036838531 
v 0.22972699999809265 0.12676692008972168 0.004382866434752941 
v 0.5899158120155334 0.1283329874277115 0.004382866434752941 
v 0.22972699999809265 0.12676692008972168 -0.005177146289497614 
v 0.5899158120155334 0.1283329874277115 -0.005177146289497614 
v 0.22972699999809265 0.12676692008972168 -0.014718486927449703 
v 0.5899158120155334 0.1283329874277115 -0.014718486927449703 
v 0.22972699999809265 0.12676692008972168 -0.023419592529535294 
v 0.5899158120155334 0.1283329874277115 -0.023419592529535294 
v 0.6134724617004395 0.1283329874277115 0.008845450356602669 
v 0.617271900177002 0.1283329874277115 0.0020488789305090904 
v 0.6115727424621582 0.1283329874277115 0.010619280859827995 
v 0.6115727424621582 0.1283329874277115 0.0031131773721426725 
v 0.6024540066719055 0.1283329874277115 0.012430455535650253 
v 0.6024540066719055 0.1283329874277115 0.004046772141009569 
v 0.5899158120155334 0.1283329874277115 0.013083972036838531 
v 0.5899158120155334 0.1283329874277115 0.004382866434752941 
v 0.6174619197845459 0.1283329874277115 -0.005177146289497614 
v 0.6115727424621582 0.1283329874277115 -0.005177146289497614 
v 0.6024540066719055 0.1283329874277115 -0.005177146289497614 
v 0.5899158120155334 0.1283329874277115 -0.005177146289497614 
v 0.617271900177002 0.1283329874277115 -0.012384499423205853 
v 0.6115727424621582 0.1283329874277115 -0.013448798097670078 
v 0.6024540066719055 0.1283329874277115 -0.014382393099367619 
v 0.5899158120155334 0.1283329874277115 -0.014718486927449703 
v 0.6134724617004395 0.1283329874277115 -0.019311774522066116 
v 0.6115727424621582 0.1283329874277115 -0.020954901352524757 
v 0.6024540066719055 0.1283329874277115 -0.022766076028347015 
v 0.5899158120155334 0.1283329874277115 -0.023419592529535294 
v 0.6115727424621582 0.11722807586193085 -0.02173912152647972 
v 0.6115727424621582 0.1277201771736145 -0.02173912152647972 
v 0.6148022413253784 0.11722807586193085 -0.01918107084929943 
v 0.6148022413253784 0.1277201771736145 -0.01918107084929943 
v 0.22972699999809265 0.11566200107336044 -0.02427849918603897 
v 0.5899158120155334 0.11722807586193085 -0.02427849918603897 
v 0.22972699999809265 0.11566200107336044 -0.014718486927449703 
v 0.5899158120155334 0.11722807586193085 -0.014718486927449703 
v 0.22972699999809265 0.11566200107336044 -0.005177146289497614 
v 0.5899158120155334 0.11722807586193085 -0.005177146289497614 
v 0.22972699999809265 0.11566200107336044 0.004382866434752941 
v 0.5899158120155334 0.11722807586193085 0.004382866434752941 
v 0.22972699999809265 0.11566200107336044 0.013942879624664783 
v 0.5899158120155334 0.11722807586193085 0.013942879624664783 
v 0.22972699999809265 0.12676692008972168 -0.023419592529535294 
v 0.5899158120155334 0.1283329874277115 -0.023419592529535294 
v 0.22972699999809265 0.1261540949344635 -0.02427849918603897 
v 0.5899158120155334 0.1277201771736145 -0.02427849918603897 
v 0.6148022413253784 0.1277201771736145 0.008845450356602669 
v 0.6148022413253784 0.11722807586193085 0.008845450356602669 
v 0.6182217597961426 0.1277201771736145 0.0018434880767017603 
v 0.6182217597961426 0.11722807586193085 0.0018434880767017603 
v 0.6134724617004395 0.1283329874277115 0.008845450356602669 
v 0.6115727424621582 0.1283329874277115 0.010619280859827995 
v 0.6148022413253784 0.1277201771736145 0.008845450356602669 
v 0.6115727424621582 0.1277201771736145 0.011403501033782959 
v 0.22972699999809265 0.1261540949344635 0.013942879624664783 
v 0.22972699999809265 0.11566200107336044 0.013942879624664783 
v 0.5899158120155334 0.1277201771736145 0.013942879624664783 
v 0.5899158120155334 0.11722807586193085 0.013942879624664783 
v 0.6024540066719055 0.11722807586193085 -0.02358764037489891 
v 0.6024540066719055 0.1277201771736145 -0.02358764037489891 
v 0.6115727424621582 0.11722807586193085 -0.02173912152647972 
v 0.6115727424621582 0.1277201771736145 -0.02173912152647972 
v 0.6115727424621582 0.1277201771736145 -0.02173912152647972 
v 0.6024540066719055 0.1277201771736145 -0.02358764037489891 
v 0.6115727424621582 0.1283329874277115 -0.020954901352524757 
v 0.6024540066719055 0.1283329874277115 -0.022766076028347015 
v 0.6148022413253784 0.11722807586193085 -0.01918107084929943 
v 0.6148022413253784 0.1277201771736145 -0.01918107084929943 
v 0.6182217597961426 0.11722807586193085 -0.012179108336567879 
v 0.6182217597961426 0.1277201771736145 -0.012179108336567879 
v 0.6186017394065857 0.1277201771736145 -0.005177146289497614 
v 0.6182217597961426 0.1277201771736145 -0.012179108336567879 
v 0.6174619197845459 0.1283329874277115 -0.005177146289497614 
v 0.617271900177002 0.1283329874277115 -0.012384499423205853 
v 0.6174619197845459 0.1283329874277115 -0.005177146289497614 
v 0.617271900177002 0.1283329874277115 0.0020488789305090904 
v 0.6186017394065857 0.1277201771736145 -0.005177146289497614 
v 0.6182217597961426 0.1277201771736145 0.0018434880767017603 
v 0.6182217597961426 0.1277201771736145 0.0018434880767017603 
v 0.6182217597961426 0.11722807586193085 0.0018434880767017603 
v 0.6186017394065857 0.1277201771736145 -0.005177146289497614 
v 0.6186017394065857 0.11722807586193085 -0.005177146289497614 
v 0.22972699999809265 0.11566200107336044 0.013942879624664783 
v 0.22972699999809265 0.1261540949344635 0.013942879624664783 
v 0.22972699999809265 0.11566200107336044 0.004382866434752941 
v 0.22972699999809265 0.12676692008972168 0.013083972036838531 
v 0.22972699999809265 0.12676692008972168 0.004382866434752941 
v 0.22972699999809265 0.11566200107336044 -0.005177146289497614 
v 0.22972699999809265 0.12676692008972168 -0.005177146289497614 
v 0.22972699999809265 0.11566200107336044 -0.014718486927449703 
v 0.22972699999809265 0.12676692008972168 -0.014718486927449703 
v 0.22972699999809265 0.11566200107336044 -0.02427849918603897 
v 0.22972699999809265 0.12676692008972168 -0.023419592529535294 
v 0.22972699999809265 0.1261540949344635 -0.02427849918603897 
v 0.6148022413253784 0.1277201771736145 0.008845450356602669 
v 0.6182217597961426 0.1277201771736145 0.0018434880767017603 
v 0.6134724617004395 0.1283329874277115 0.008845450356602669 
v 0.617271900177002 0.1283329874277115 0.0020488789305090904 
v 0.6115727424621582 0.1277201771736145 0.011403501033782959 
v 0.6115727424621582 0.11722807586193085 0.011403501033782959 
v 0.6148022413253784 0.1277201771736145 0.008845450356602669 
v 0.6148022413253784 0.11722807586193085 0.008845450356602669 
v 0.6134724617004395 0.1283329874277115 -0.019311774522066116 
v 0.617271900177002 0.1283329874277115 -0.012384499423205853 
v 0.6148022413253784 0.1277201771736145 -0.01918107084929943 
v 0.6182217597961426 0.1277201771736145 -0.012179108336567879 
v 0.6148022413253784 0.1277201771736145 -0.01918107084929943 
v 0.6115727424621582 0.1277201771736145 -0.02173912152647972 
v 0.6134724617004395 0.1283329874277115 -0.019311774522066116 
v 0.6115727424621582 0.1283329874277115 -0.020954901352524757 
v 0.6024540066719055 0.1277201771736145 -0.02358764037489891 
v 0.5899158120155334 0.1277201771736145 -0.02427849918603897 
v 0.6024540066719055 0.1283329874277115 -0.022766076028347015 
v 0.5899158120155334 0.1283329874277115 -0.023419592529535294 
v 0.5899158120155334 0.1283329874277115 0.013083972036838531 
v 0.22972699999809265 0.12676692008972168 0.013083972036838531 
v 0.5899158120155334 0.1277201771736145 0.013942879624664783 
v 0.22972699999809265 0.1261540949344635 0.013942879624664783 
v 0.6115727424621582 0.1283329874277115 0.010619280859827995 
v 0.6024540066719055 0.1283329874277115 0.012430455535650253 
v 0.6115727424621582 0.1277201771736145 0.011403501033782959 
v 0.6024540066719055 0.1277201771736145 0.013252018950879574 
v 0.5899158120155334 0.1277201771736145 0.013942879624664783 
v 0.6024540066719055 0.1277201771736145 0.013252018950879574 
v 0.5899158120155334 0.1283329874277115 0.013083972036838531 
v 0.6024540066719055 0.1283329874277115 0.012430455535650253 
v 0.6182217597961426 0.11722807586193085 -0.012179108336567879 
v 0.6182217597961426 0.1277201771736145 -0.012179108336567879 
v 0.6186017394065857 0.11722807586193085 -0.005177146289497614 
v 0.6186017394065857 0.1277201771736145 -0.005177146289497614 
v 0.6024540066719055 0.1277201771736145 0.013252018950879574 
v 0.6024540066719055 0.11722807586193085 0.013252018950879574 
v 0.6115727424621582 0.1277201771736145 0.011403501033782959 
v 0.6115727424621582 0.11722807586193085 0.011403501033782959 
v 0.6024540066719055 0.11722807586193085 0.013252018950879574 
v 0.6024540066719055 0.1277201771736145 0.013252018950879574 
v 0.5899158120155334 0.11722807586193085 0.013942879624664783 
v 0.5899158120155334 0.1277201771736145 0.013942879624664783 
v 0.5899158120155334 0.11722807586193085 -0.02427849918603897 
v 0.5899158120155334 0.1277201771736145 -0.02427849918603897 
v 0.6024540066719055 0.11722807586193085 -0.02358764037489891 
v 0.6024540066719055 0.1277201771736145 -0.02358764037489891 
v 0.5899158120155334 0.11722807586193085 0.013942879624664783 
v 0.5899158120155334 0.11722807586193085 0.004382866434752941 
v 0.6024540066719055 0.11722807586193085 0.013252018950879574 
v 0.6024540066719055 0.11722807586193085 0.004046772141009569 
v 0.6115727424621582 0.11722807586193085 0.011403501033782959 
v 0.6115727424621582 0.11722807586193085 0.0031131773721426725 
v 0.6148022413253784 0.11722807586193085 0.008845450356602669 
v 0.6182217597961426 0.11722807586193085 0.0018434880767017603 
v 0.5899158120155334 0.11722807586193085 -0.005177146289497614 
v 0.6024540066719055 0.11722807586193085 -0.005177146289497614 
v 0.6115727424621582 0.11722807586193085 -0.005177146289497614 
v 0.6186017394065857 0.11722807586193085 -0.005177146289497614 
v 0.5899158120155334 0.11722807586193085 -0.014718486927449703 
v 0.6024540066719055 0.11722807586193085 -0.014382393099367619 
v 0.6115727424621582 0.11722807586193085 -0.013448798097670078 
v 0.6182217597961426 0.11722807586193085 -0.012179108336567879 
v 0.5899158120155334 0.11722807586193085 -0.02427849918603897 
v 0.6024540066719055 0.11722807586193085 -0.02358764037489891 
v 0.6115727424621582 0.11722807586193085 -0.02173912152647972 
v 0.6148022413253784 0.11722807586193085 -0.01918107084929943 
vn -2.0682311115474694e-13 0 -1 
vn -2.0682311115474694e-13 0 -1 
vn -2.0682311115474694e-13 0 -1 
vn -2.0682311115474694e-13 0 -1 
vn -0.007551815826445818 0.9999691247940063 0.002184694167226553 
vn -0.007551815826445818 0.9999691247940063 0.002184694167226553 
vn -0.007551815826445818 0.9999691247940063 0.002184694167226553 
vn -0.007551815826445818 0.9999691247940063 0.002184694167226553 
vn -0.007551815826445818 0.9999691247940063 0.002184694167226553 
vn -0.007551815826445818 0.9999691247940063 0.002184694167226553 
vn -0.007551815826445818 0.9999691247940063 0.002184694167226553 
vn -0.007551815826445818 0.9999691247940063 0.002184694167226553 
vn -0.007551815826445818 0.9999691247940063 0.002184694167226553 
vn -0.007551815826445818 0.9999691247940063 0.002184694167226553 
vn -1.0341130485562108e-13 0.999997615814209 0.002184694167226553 
vn -1.0341130485562108e-13 0.999997615814209 0.002184694167226553 
vn -1.0341130485562108e-13 0.999997615814209 0.002184694167226553 
vn -1.0341130485562108e-13 0.999997615814209 0.002184694167226553 
vn -1.0341130485562108e-13 0.999997615814209 0.002184694167226553 
vn -1.0341130485562108e-13 0.999997615814209 0.002184694167226553 
vn -1.0341130485562108e-13 0.999997615814209 0.002184694167226553 
vn -1.0341130485562108e-13 0.999997615814209 0.002184694167226553 
vn -1.0341130485562108e-13 0.999997615814209 0.002184694167226553 
vn -1.0341130485562108e-13 0.999997615814209 0.002184694167226553 
vn -1.0341130485562108e-13 0.999997615814209 0.002184694167226553 
vn -1.0341130485562108e-13 0.999997615814209 0.002184694167226553 
vn -1.0341130485562108e-13 0.999997615814209 0.002184694167226553 
vn -1.0341130485562108e-13 0.999997615814209 0.002184694167226553 
vn -1.0341130485562108e-13 0.999997615814209 0.002184694167226553 
vn -1.0341130485562108e-13 0.999997615814209 0.002184694167226553 
vn -1.0341130485562108e-13 0.999997615814209 0.002184694167226553 
vn -1.0341130485562108e-13 0.999997615814209 0.002184694167226553 
vn -1.0341130485562108e-13 0.999997615814209 0.002184694167226553 
vn -1.0341130485562108e-13 0.999997615814209 0.002184694167226553 
vn 0.6060134768486023 0 -0.7954543828964233 
vn 0.6060134768486023 0 -0.7954543828964233 
vn 0.6060134768486023 0 -0.7954543828964233 
vn 0.6060134768486023 0 -0.7954543828964233 
vn 0.007551815826445818 -0.9999691247940063 0.002184694167226553 
vn 0.007551815826445818 -0.9999691247940063 0.002184694167226553 
vn 0.007551815826445818 -0.9999691247940063 0.002184694167226553 
vn 0.007551815826445818 -0.9999691247940063 0.002184694167226553 
vn 0.007551815826445818 -0.9999691247940063 0.002184694167226553 
vn 0.007551815826445818 -0.9999691247940063 0.002184694167226553 
vn 0.007551815826445818 -0.9999691247940063 0.002184694167226553 
vn 0.007551815826445818 -0.9999691247940063 0.002184694167226553 
vn 0.007551815826445818 -0.9999691247940063 0.002184694167226553 
vn 0.007551815826445818 -0.9999691247940063 0.002184694167226553 
vn -0.003775842720642686 0.8148742914199829 -0.5796254277229309 
vn -0.003775842720642686 0.8148742914199829 -0.5796254277229309 
vn -0.003775842720642686 0.8148742914199829 -0.5796254277229309 
vn -0.003775842720642686 0.8148742914199829 -0.5796254277229309 
vn 0.8975561261177063 0 0.4409002661705017 
vn 0.8975561261177063 0 0.4409002661705017 
vn 0.8975561261177063 0 0.4409002661705017 
vn 0.8975561261177063 0 0.4409002661705017 
vn 0.3978457748889923 0.7820622324943542 0.4796847105026245 
vn 0.3978457748889923 0.7820622324943542 0.4796847105026245 
vn 0.3978457748889923 0.7820622324943542 0.4796847105026245 
vn 0.3978457748889923 0.7820622324943542 0.4796847105026245 
vn 0 0 1 
vn 0 0 1 
vn 0 0 1 
vn 0 0 1 
vn 0.19964148104190826 0 -0.97986900806427 
vn 0.19964148104190826 0 -0.97986900806427 
vn 0.19964148104190826 0 -0.97986900806427 
vn 0.19964148104190826 0 -0.97986900806427 
vn 0.122256800532341 0.7900052070617676 -0.6007870435714722 
vn 0.122256800532341 0.7900052070617676 -0.6007870435714722 
vn 0.122256800532341 0.7900052070617676 -0.6007870435714722 
vn 0.122256800532341 0.7900052070617676 -0.6007870435714722 
vn 0.8975561261177063 0 -0.4409002661705017 
vn 0.8975561261177063 0 -0.4409002661705017 
vn 0.8975561261177063 0 -0.4409002661705017 
vn 0.8975561261177063 0 -0.4409002661705017 
vn 0.4779510200023651 0.8781664371490479 -0.01966099627315998 
vn 0.4779510200023651 0.8781664371490479 -0.01966099627315998 
vn 0.4779510200023651 0.8781664371490479 -0.01966099627315998 
vn 0.4779510200023651 0.8781664371490479 -0.01966099627315998 
vn 0.4779510200023651 0.8781664371490479 0.01966099627315998 
vn 0.4779510200023651 0.8781664371490479 0.01966099627315998 
vn 0.4779510200023651 0.8781664371490479 0.01966099627315998 
vn 0.4779510200023651 0.8781664371490479 0.01966099627315998 
vn 0.999138593673706 0 0.04149730131030083 
vn 0.999138593673706 0 0.04149730131030083 
vn 0.999138593673706 0 0.04149730131030083 
vn 0.999138593673706 0 0.04149730131030083 
vn -0.999997615814209 -2.0682260971124217e-13 0.002184694167226553 
vn -0.999997615814209 -2.0682260971124217e-13 0.002184694167226553 
vn -0.999997615814209 -2.0682260971124217e-13 0.002184694167226553 
vn -0.999997615814209 -2.0682260971124217e-13 0.002184694167226553 
vn -0.999997615814209 -2.0682260971124217e-13 0.002184694167226553 
vn -0.999997615814209 -2.0682260971124217e-13 0.002184694167226553 
vn -0.999997615814209 -2.0682260971124217e-13 0.002184694167226553 
vn -0.999997615814209 -2.0682260971124217e-13 0.002184694167226553 
vn -0.999997615814209 -2.0682260971124217e-13 0.002184694167226553 
vn -0.999997615814209 -2.0682260971124217e-13 0.002184694167226553 
vn -0.999997615814209 -2.0682260971124217e-13 0.002184694167226553 
vn -0.999997615814209 -2.0682260971124217e-13 0.002184694167226553 
vn 0.42809292674064636 0.8746609687805176 0.22738653421401978 
vn 0.42809292674064636 0.8746609687805176 0.22738653421401978 
vn 0.42809292674064636 0.8746609687805176 0.22738653421401978 
vn 0.42809292674064636 0.8746609687805176 0.22738653421401978 
vn 0.6060134768486023 0 0.7954543828964233 
vn 0.6060134768486023 0 0.7954543828964233 
vn 0.6060134768486023 0 0.7954543828964233 
vn 0.6060134768486023 0 0.7954543828964233 
vn 0.44041457772254944 0.8685219287872314 -0.22738653421401978 
vn 0.44041457772254944 0.8685219287872314 -0.22738653421401978 
vn 0.44041457772254944 0.8685219287872314 -0.22738653421401978 
vn 0.44041457772254944 0.8685219287872314 -0.22738653421401978 
vn 0.40473830699920654 0.7589659094810486 -0.5100564956665039 
vn 0.40473830699920654 0.7589659094810486 -0.5100564956665039 
vn 0.40473830699920654 0.7589659094810486 -0.5100564956665039 
vn 0.40473830699920654 0.7589659094810486 -0.5100564956665039 
vn 0.03396063297986984 0.809074342250824 -0.5867242813110352 
vn 0.03396063297986984 0.809074342250824 -0.5867242813110352 
vn 0.03396063297986984 0.809074342250824 -0.5867242813110352 
vn 0.03396063297986984 0.809074342250824 -0.5867242813110352 
vn -0.0018851460190489888 0.8148808479309082 0.5796254277229309 
vn -0.0018851460190489888 0.8148808479309082 0.5796254277229309 
vn -0.0018851460190489888 0.8148808479309082 0.5796254277229309 
vn -0.0018851460190489888 0.8148808479309082 0.5796254277229309 
vn 0.12393766641616821 0.7897432446479797 0.6007870435714722 
vn 0.12393766641616821 0.7897432446479797 0.6007870435714722 
vn 0.12393766641616821 0.7897432446479797 0.6007870435714722 
vn 0.12393766641616821 0.7897432446479797 0.6007870435714722 
vn 0.028261151164770126 0.8092934489250183 0.5867242813110352 
vn 0.028261151164770126 0.8092934489250183 0.5867242813110352 
vn 0.028261151164770126 0.8092934489250183 0.5867242813110352 
vn 0.028261151164770126 0.8092934489250183 0.5867242813110352 
vn 0.999138593673706 0 -0.04149730131030083 
vn 0.999138593673706 0 -0.04149730131030083 
vn 0.999138593673706 0 -0.04149730131030083 
vn 0.999138593673706 0 -0.04149730131030083 
vn 0.19964148104190826 0 0.97986900806427 
vn 0.19964148104190826 0 0.97986900806427 
vn 0.19964148104190826 0 0.97986900806427 
vn 0.19964148104190826 0 0.97986900806427 
vn 0.05677155405282974 0 0.9983872175216675 
vn 0.05677155405282974 0 0.9983872175216675 
vn 0.05677155405282974 0 0.9983872175216675 
vn 0.05677155405282974 0 0.9983872175216675 
vn 0.05677155405282974 0 -0.9983872175216675 
vn 0.05677155405282974 0 -0.9983872175216675 
vn 0.05677155405282974 0 -0.9983872175216675 
vn 0.05677155405282974 0 -0.9983872175216675 
vn 3.097898456858039e-13 -0.999997615814209 0.002184694167226553 
vn 3.097898456858039e-13 -0.999997615814209 0.002184694167226553 
vn 3.097898456858039e-13 -0.999997615814209 0.002184694167226553 
vn 3.097898456858039e-13 -0.999997615814209 0.002184694167226553 
vn 3.097898456858039e-13 -0.999997615814209 0.002184694167226553 
vn 3.097898456858039e-13 -0.999997615814209 0.002184694167226553 
vn 3.097898456858039e-13 -0.999997615814209 0.002184694167226553 
vn 3.097898456858039e-13 -0.999997615814209 0.002184694167226553 
vn 3.097898456858039e-13 -0.999997615814209 0.002184694167226553 
vn 3.097898456858039e-13 -0.999997615814209 0.002184694167226553 
vn 3.097898456858039e-13 -0.999997615814209 0.002184694167226553 
vn 3.097898456858039e-13 -0.999997615814209 0.002184694167226553 
vn 3.097898456858039e-13 -0.999997615814209 0.002184694167226553 
vn 3.097898456858039e-13 -0.999997615814209 0.002184694167226553 
vn 3.097898456858039e-13 -0.999997615814209 0.002184694167226553 
vn 3.097898456858039e-13 -0.999997615814209 0.002184694167226553 
vn 3.097898456858039e-13 -0.999997615814209 0.002184694167226553 
vn 3.097898456858039e-13 -0.999997615814209 0.002184694167226553 
vn 3.097898456858039e-13 -0.999997615814209 0.002184694167226553 
vn 3.097898456858039e-13 -0.999997615814209 0.002184694167226553 
vt 0.5056760907173157 0.6756184101104736 
vt 0.2700520157814026 0.6608461141586304 
vt 0.5053098201751709 0.056281186640262604 
vt 0.2696857750415802 0.04150889813899994 
vt 0.7572932839393616 0.6715896129608154 
vt 0.7572932839393616 0.04773523658514023 
vt 0.8151615262031555 0.6715896129608154 
vt 0.8151615262031555 0.04773523658514023 
vt 0.8786457180976868 0.6715896129608154 
vt 0.8786457180976868 0.04773523658514023 
vt 0.9421299695968628 0.6715896129608154 
vt 0.9421299695968628 0.04773523658514023 
vt 0.9999982118606567 0.6715896129608154 
vt 0.9999982118606567 0.04773523658514023 
vt 0.785494863986969 0.007080929819494486 
vt 0.8306663632392883 0.0004883399815298617 
vt 0.7736526727676392 0.010377224534749985 
vt 0.8235853910446167 0.010377224534749985 
vt 0.7616882920265198 0.026126189157366753 
vt 0.8173590898513794 0.026126189157366753 
vt 0.7572932839393616 0.04773523658514023 
vt 0.8151615262031555 0.04773523658514023 
vt 0.8786457180976868 0 
vt 0.8786457180976868 0.010377224534749985 
vt 0.8786457180976868 0.026126189157366753 
vt 0.8786457180976868 0.04773523658514023 
vt 0.92662513256073 0.0004883399815298617 
vt 0.9337061047554016 0.010377224534749985 
vt 0.9399324059486389 0.026126189157366753 
vt 0.9421299695968628 0.04773523658514023 
vt 0.9726511836051941 0.007080929819494486 
vt 0.9836388230323792 0.010377224534749985 
vt 0.9956032037734985 0.026126189157366753 
vt 0.9999982118606567 0.04773523658514023 
vt 0.47442230582237244 0.6763508915901184 
vt 0.47442230582237244 0.9821738004684448 
vt 0.4574525058269501 0.6759846210479736 
vt 0.4574525058269501 0.9818075895309448 
vt 0 0.6734208464622498 
vt 0 0.04968859627842903 
vt 0.06348419934511185 0.6734208464622498 
vt 0.06348419934511185 0.04968859627842903 
vt 0.1270904839038849 0.6734208464622498 
vt 0.1270904839038849 0.04968859627842903 
vt 0.19057469069957733 0.6734208464622498 
vt 0.19057469069957733 0.04968859627842903 
vt 0.2540588974952698 0.6734208464622498 
vt 0.2540588974952698 0.04968859627842903 
vt 0.2552797496318817 0.6590148210525513 
vt 0.25491347908973694 0.03967762365937233 
vt 0.2700520157814026 0.6608461141586304 
vt 0.2696857750415802 0.04150889813899994 
vt 0.27102869749069214 0.9818075895309448 
vt 0.27102869749069214 0.6759846210479736 
vt 0.317665159702301 0.9815633893013 
vt 0.317665159702301 0.6756184101104736 
vt 0.2711507976055145 0.9998761415481567 
vt 0.25918644666671753 0.9999982118606567 
vt 0.27102869749069214 0.9818075895309448 
vt 0.2540588974952698 0.9821738004684448 
vt 0.5216692090034485 0.014772284775972366 
vt 0.7572932839393616 0 
vt 0.5213029384613037 0.6341094970703125 
vt 0.7569270133972168 0.6193372011184692 
vt 0.5056760907173157 0.0341838002204895 
vt 0.2700520157814026 0.019411515444517136 
vt 0.5043331384658813 0.01648147590458393 
vt 0.26870909333229065 0.0017091899644583464 
vt 0.26870909333229065 0.0017091899644583464 
vt 0.2700520157814026 0.019411515444517136 
vt 0.2540588974952698 0 
vt 0.2554018199443817 0.017580239102244377 
vt 0.4574525058269501 0.6759846210479736 
vt 0.4574525058269501 0.9818075895309448 
vt 0.4108160138130188 0.6756184101104736 
vt 0.4108160138130188 0.9815633893013 
vt 0.3641795516014099 0.9814413189888 
vt 0.4108160138130188 0.9815633893013 
vt 0.3641795516014099 0.999387800693512 
vt 0.4122810363769531 0.999387800693512 
vt 0.3641795516014099 0.999387800693512 
vt 0.3162001371383667 0.999387800693512 
vt 0.3641795516014099 0.9814413189888 
vt 0.317665159702301 0.9815633893013 
vt 0.317665159702301 0.9815633893013 
vt 0.317665159702301 0.6756184101104736 
vt 0.3641795516014099 0.9814413189888 
vt 0.3641795516014099 0.6756184101104736 
vt 0.2540588974952698 0.6734208464622498 
vt 0.2540588974952698 0.9798542261123657 
vt 0.19057469069957733 0.6734208464622498 
vt 0.24844297766685486 0.9976786375045776 
vt 0.19057469069957733 0.9976786375045776 
vt 0.1270904839038849 0.6734208464622498 
vt 0.1270904839038849 0.9976786375045776 
vt 0.06348419934511185 0.6734208464622498 
vt 0.06348419934511185 0.9976786375045776 
vt 0 0.6734208464622498 
vt 0.00573799479752779 0.9976786375045776 
vt 0 0.9798542261123657 
vt 0.27102869749069214 0.9818075895309448 
vt 0.317665159702301 0.9815633893013 
vt 0.2711507976055145 0.9998761415481567 
vt 0.3162001371383667 0.999387800693512 
vt 0.2540588974952698 0.9821738004684448 
vt 0.2540588974952698 0.6763508915901184 
vt 0.27102869749069214 0.9818075895309448 
vt 0.27102869749069214 0.6759846210479736 
vt 0.45830708742141724 0.9997540712356567 
vt 0.4122810363769531 0.999387800693512 
vt 0.4574525058269501 0.9818075895309448 
vt 0.4108160138130188 0.9815633893013 
vt 0.4574525058269501 0.9818075895309448 
vt 0.47442230582237244 0.9821738004684448 
vt 0.45830708742141724 0.9997540712356567 
vt 0.4692947268486023 0.9999982118606567 
vt 0.2700520157814026 0.019411515444517136 
vt 0.2696857750415802 0.04150889813899994 
vt 0.2554018199443817 0.017580239102244377 
vt 0.25491347908973694 0.03967762365937233 
vt 0.5065306425094604 0.6359407901763916 
vt 0.5068969130516052 0.016603559255599976 
vt 0.5213029384613037 0.6341094970703125 
vt 0.5216692090034485 0.014772284775972366 
vt 0.5056760907173157 0.6756184101104736 
vt 0.5070189833641052 0.6580381393432617 
vt 0.5203262567520142 0.6739091873168945 
vt 0.5216692090034485 0.6562068462371826 
vt 0.5213029384613037 0.6341094970703125 
vt 0.5216692090034485 0.6562068462371826 
vt 0.5065306425094604 0.6359407901763916 
vt 0.5070189833641052 0.6580381393432617 
vt 0.4108160138130188 0.6756184101104736 
vt 0.4108160138130188 0.9815633893013 
vt 0.3641795516014099 0.6756184101104736 
vt 0.3641795516014099 0.9814413189888 
vt 0.5216692090034485 0.6562068462371826 
vt 0.7572932839393616 0.6414346098899841 
vt 0.5203262567520142 0.6739091873168945 
vt 0.7559503316879272 0.6591368913650513 
vt 0.7572932839393616 0.6414346098899841 
vt 0.5216692090034485 0.6562068462371826 
vt 0.7569270133972168 0.6193372011184692 
vt 0.5213029384613037 0.6341094970703125 
vt 0.5053098201751709 0.056281186640262604 
vt 0.2696857750415802 0.04150889813899994 
vt 0.5056760907173157 0.0341838002204895 
vt 0.2700520157814026 0.019411515444517136 
vt 0.2540588974952698 0.04968859627842903 
vt 0.19057469069957733 0.04968859627842903 
vt 0.2495417445898056 0.028079550713300705 
vt 0.18825507164001465 0.028079550713300705 
vt 0.23721115291118622 0.012330585159361362 
vt 0.18215082585811615 0.012330585159361362 
vt 0.22024133801460266 0.0064705051481723785 
vt 0.17360487580299377 0.0004883399815298617 
vt 0.1270904839038849 0.04968859627842903 
vt 0.1270904839038849 0.028079550713300705 
vt 0.1270904839038849 0.012330585159361362 
vt 0.1270904839038849 0 
vt 0.06348419934511185 0.04968859627842903 
vt 0.06580381840467453 0.028079550713300705 
vt 0.07203014940023422 0.012330585159361362 
vt 0.0804540142416954 0.0004883399815298617 
vt 0 0.04968859627842903 
vt 0.004517144989222288 0.028079550713300705 
vt 0.016969814896583557 0.012330585159361362 
vt 0.03381754457950592 0.0064705051481723785 
s on 
f 1/1/1 2/2/2 3/3/3 
f 2/2/2 4/4/4 3/3/3 
f 3/3/3 4/4/4 4/4/4 
f 4/4/4 5/5/5 4/4/4 
f 4/4/4 5/5/5 5/5/5 
f 5/5/5 6/6/6 5/5/5 
f 5/5/5 6/6/6 7/7/7 
f 6/6/6 8/8/8 7/7/7 
f 7/7/7 8/8/8 9/9/9 
f 8/8/8 10/10/10 9/9/9 
f 9/9/9 10/10/10 11/11/11 
f 10/10/10 12/12/12 11/11/11 
f 11/11/11 12/12/12 13/13/13 
f 12/12/12 14/14/14 13/13/13 
f 13/13/13 14/14/14 14/14/14 
f 14/14/14 15/15/15 14/14/14 
f 14/14/14 15/15/15 15/15/15 
f 15/15/15 16/16/16 15/15/15 
f 15/15/15 16/16/16 17/17/17 
f 16/16/16 18/18/18 17/17/17 
f 17/17/17 18/18/18 19/19/19 
f 18/18/18 20/20/20 19/19/19 
f 19/19/19 20/20/20 21/21/21 
f 20/20/20 22/22/22 21/21/21 
f 21/21/21 22/22/22 22/22/22 
f 22/22/22 16/16/16 22/22/22 
f 22/22/22 16/16/16 16/16/16 
f 16/16/16 23/23/23 16/16/16 
f 16/16/16 23/23/23 18/18/18 
f 23/23/23 24/24/24 18/18/18 
f 18/18/18 24/24/24 20/20/20 
f 24/24/24 25/25/25 20/20/20 
f 20/20/20 25/25/25 22/22/22 
f 25/25/25 26/26/26 22/22/22 
f 22/22/22 26/26/26 26/26/26 
f 26/26/26 23/23/23 26/26/26 
f 26/26/26 23/23/23 23/23/23 
f 23/23/23 27/27/27 23/23/23 
f 23/23/23 27/27/27 24/24/24 
f 27/27/27 28/28/28 24/24/24 
f 24/24/24 28/28/28 25/25/25 
f 28/28/28 29/29/29 25/25/25 
f 25/25/25 29/29/29 26/26/26 
f 29/29/29 30/30/30 26/26/26 
f 26/26/26 30/30/30 30/30/30 
f 30/30/30 27/27/27 30/30/30 
f 30/30/30 27/27/27 27/27/27 
f 27/27/27 31/31/31 27/27/27 
f 27/27/27 31/31/31 28/28/28 
f 31/31/31 32/32/32 28/28/28 
f 28/28/28 32/32/32 29/29/29 
f 32/32/32 33/33/33 29/29/29 
f 29/29/29 33/33/33 30/30/30 
f 33/33/33 34/34/34 30/30/30 
f 30/30/30 34/34/34 34/34/34 
f 34/34/34 35/35/35 34/34/34 
f 34/34/34 35/35/35 35/35/35 
f 35/35/35 36/36/36 35/35/35 
f 35/35/35 36/36/36 37/37/37 
f 36/36/36 38/38/38 37/37/37 
f 37/37/37 38/38/38 38/38/38 
f 38/38/38 39/39/39 38/38/38 
f 38/38/38 39/39/39 39/39/39 
f 39/39/39 40/40/40 39/39/39 
f 39/39/39 40/40/40 41/41/41 
f 40/40/40 42/42/42 41/41/41 
f 41/41/41 42/42/42 43/43/43 
f 42/42/42 44/44/44 43/43/43 
f 43/43/43 44/44/44 45/45/45 
f 44/44/44 46/46/46 45/45/45 
f 45/45/45 46/46/46 47/47/47 
f 46/46/46 48/48/48 47/47/47 
f 47/47/47 48/48/48 48/48/48 
f 48/48/48 49/49/49 48/48/48 
f 48/48/48 49/49/49 49/49/49 
f 49/49/49 50/50/50 49/49/49 
f 49/49/49 50/50/50 51/51/51 
f 50/50/50 52/52/52 51/51/51 
f 51/51/51 52/52/52 52/52/52 
f 52/52/52 53/53/53 52/52/52 
f 52/52/52 53/53/53 53/53/53 
f 53/53/53 54/54/54 53/53/53 
f 53/53/53 54/54/54 55/55/55 
f 54/54/54 56/56/56 55/55/55 
f 55/55/55 56/56/56 56/56/56 
f 56/56/56 57/57/57 56/56/56 
f 56/56/56 57/57/57 57/57/57 
f 57/57/57 58/58/58 57/57/57 
f 57/57/57 58/58/58 59/59/59 
f 58/58/58 60/60/60 59/59/59 
f 59/59/59 60/60/60 60/60/60 
f 60/60/60 61/61/61 60/60/60 
f 60/60/60 61/61/61 61/61/61 
f 61/61/61 62/62/62 61/61/61 
f 61/61/61 62/62/62 63/63/63 
f 62/62/62 64/64/64 63/63/63 
f 63/63/63 64/64/64 64/64/64 
f 64/64/64 65/65/65 64/64/64 
f 64/64/64 65/65/65 65/65/65 
f 65/65/65 66/66/66 65/65/65 
f 65/65/65 66/66/66 67/67/67 
f 66/66/66 68/68/68 67/67/67 
f 67/67/67 68/68/68 68/68/68 
f 68/68/68 69/69/69 68/68/68 
f 68/68/68 69/69/69 69/69/69 
f 69/69/69 70/70/70 69/69/69 
f 69/69/69 70/70/70 71/71/71 
f 70/70/70 72/72/72 71/71/71 
f 71/71/71 72/72/72 72/72/72 
f 72/72/72 73/73/73 72/72/72 
f 72/72/72 73/73/73 73/73/73 
f 73/73/73 74/74/74 73/73/73 
f 73/73/73 74/74/74 75/75/75 
f 74/74/74 76/76/76 75/75/75 
f 75/75/75 76/76/76 76/76/76 
f 76/76/76 77/77/77 76/76/76 
f 76/76/76 77/77/77 77/77/77 
f 77/77/77 78/78/78 77/77/77 
f 77/77/77 78/78/78 79/79/79 
f 78/78/78 80/80/80 79/79/79 
f 79/79/79 80/80/80 80/80/80 
f 80/80/80 81/81/81 80/80/80 
f 80/80/80 81/81/81 81/81/81 
f 81/81/81 82/82/82 81/81/81 
f 81/81/81 82/82/82 83/83/83 
f 82/82/82 84/84/84 83/83/83 
f 83/83/83 84/84/84 84/84/84 
f 84/84/84 85/85/85 84/84/84 
f 84/84/84 85/85/85 85/85/85 
f 85/85/85 86/86/86 85/85/85 
f 85/85/85 86/86/86 87/87/87 
f 86/86/86 88/88/88 87/87/87 
f 87/87/87 88/88/88 88/88/88 
f 88/88/88 89/89/89 88/88/88 
f 88/88/88 89/89/89 89/89/89 
f 89/89/89 90/90/90 89/89/89 
f 89/89/89 90/90/90 91/91/91 
f 90/90/90 92/92/92 91/91/91 
f 91/91/91 92/92/92 93/93/93 
f 92/92/92 93/93/93 93/93/93 
f 93/93/93 93/93/93 91/91/91 
f 93/93/93 91/91/91 91/91/91 
f 91/91/91 91/91/91 91/91/91 
f 91/91/91 93/93/93 91/91/91 
f 91/91/91 93/93/93 94/94/94 
f 93/93/93 95/95/95 94/94/94 
f 94/94/94 95/95/95 96/96/96 
f 95/95/95 97/97/97 96/96/96 
f 96/96/96 97/97/97 98/98/98 
f 97/97/97 99/99/99 98/98/98 
f 98/98/98 99/99/99 100/100/100 
f 99/99/99 100/100/100 100/100/100 
f 100/100/100 100/100/100 101/101/101 
f 100/100/100 101/101/101 101/101/101 
f 101/101/101 101/101/101 101/101/101 
f 101/101/101 102/102/102 101/101/101 
f 101/101/101 102/102/102 103/103/103 
f 102/102/102 104/104/104 103/103/103 
f 103/103/103 104/104/104 104/104/104 
f 104/104/104 105/105/105 104/104/104 
f 104/104/104 105/105/105 105/105/105 
f 105/105/105 106/106/106 105/105/105 
f 105/105/105 106/106/106 107/107/107 
f 106/106/106 108/108/108 107/107/107 
f 107/107/107 108/108/108 108/108/108 
f 108/108/108 109/109/109 108/108/108 
f 108/108/108 109/109/109 109/109/109 
f 109/109/109 110/110/110 109/109/109 
f 109/109/109 110/110/110 111/111/111 
f 110/110/110 112/112/112 111/111/111 
f 111/111/111 112/112/112 112/112/112 
f 112/112/112 113/113/113 112/112/112 
f 112/112/112 113/113/113 113/113/113 
f 113/113/113 114/114/114 113/113/113 
f 113/113/113 114/114/114 115/115/115 
f 114/114/114 116/116/116 115/115/115 
f 115/115/115 116/116/116 116/116/116 
f 116/116/116 117/117/117 116/116/116 
f 116/116/116 117/117/117 117/117/117 
f 117/117/117 118/118/118 117/117/117 
f 117/117/117 118/118/118 119/119/119 
f 118/118/118 120/120/120 119/119/119 
f 119/119/119 120/120/120 120/120/120 
f 120/120/120 121/121/121 120/120/120 
f 120/120/120 121/121/121 121/121/121 
f 121/121/121 122/122/122 121/121/121 
f 121/121/121 122/122/122 123/123/123 
f 122/122/122 124/124/124 123/123/123 
f 123/123/123 124/124/124 124/124/124 
f 124/124/124 125/125/125 124/124/124 
f 124/124/124 125/125/125 125/125/125 
f 125/125/125 126/126/126 125/125/125 
f 125/125/125 126/126/126 127/127/127 
f 126/126/126 128/128/128 127/127/127 
f 127/127/127 128/128/128 128/128/128 
f 128/128/128 129/129/129 128/128/128 
f 128/128/128 129/129/129 129/129/129 
f 129/129/129 130/130/130 129/129/129 
f 129/129/129 130/130/130 131/131/131 
f 130/130/130 132/132/132 131/131/131 
f 131/131/131 132/132/132 132/132/132 
f 132/132/132 133/133/133 132/132/132 
f 132/132/132 133/133/133 133/133/133 
f 133/133/133 134/134/134 133/133/133 
f 133/133/133 134/134/134 135/135/135 
f 134/134/134 136/136/136 135/135/135 
f 135/135/135 136/136/136 136/136/136 
f 136/136/136 137/137/137 136/136/136 
f 136/136/136 137/137/137 137/137/137 
f 137/137/137 138/138/138 137/137/137 
f 137/137/137 138/138/138 139/139/139 
f 138/138/138 140/140/140 139/139/139 
f 139/139/139 140/140/140 140/140/140 
f 140/140/140 141/141/141 140/140/140 
f 140/140/140 141/141/141 141/141/141 
f 141/141/141 142/142/142 141/141/141 
f 141/141/141 142/142/142 143/143/143 
f 142/142/142 144/144/144 143/143/143 
f 143/143/143 144/144/144 144/144/144 
f 144/144/144 145/145/145 144/144/144 
f 144/144/144 145/145/145 145/145/145 
f 145/145/145 146/146/146 145/145/145 
f 145/145/145 146/146/146 147/147/147 
f 146/146/146 148/148/148 147/147/147 
f 147/147/147 148/148/148 148/148/148 
f 148/148/148 149/149/149 148/148/148 
f 148/148/148 149/149/149 149/149/149 
f 149/149/149 150/150/150 149/149/149 
f 149/149/149 150/150/150 151/151/151 
f 150/150/150 152/152/152 151/151/151 
f 151/151/151 152/152/152 153/153/153 
f 152/152/152 154/154/154 153/153/153 
f 153/153/153 154/154/154 155/155/155 
f 154/154/154 156/156/156 155/155/155 
f 155/155/155 156/156/156 156/156/156 
f 156/156/156 150/150/150 156/156/156 
f 156/156/156 150/150/150 150/150/150 
f 150/150/150 157/157/157 150/150/150 
f 150/150/150 157/157/157 152/152/152 
f 157/157/157 158/158/158 152/152/152 
f 152/152/152 158/158/158 154/154/154 
f 158/158/158 159/159/159 154/154/154 
f 154/154/154 159/159/159 156/156/156 
f 159/159/159 160/160/160 156/156/156 
f 156/156/156 160/160/160 160/160/160 
f 160/160/160 157/157/157 160/160/160 
f 160/160/160 157/157/157 157/157/157 
f 157/157/157 161/161/161 157/157/157 
f 157/157/157 161/161/161 158/158/158 
f 161/161/161 162/162/162 158/158/158 
f 158/158/158 162/162/162 159/159/159 
f 162/162/162 163/163/163 159/159/159 
f 159/159/159 163/163/163 160/160/160 
f 163/163/163 164/164/164 160/160/160 
f 160/160/160 164/164/164 164/164/164 
f 164/164/164 161/161/161 164/164/164 
f 164/164/164 161/161/161 161/161/161 
f 161/161/161 165/165/165 161/161/161 
f 161/161/161 165/165/165 162/162/162 
f 165/165/165 166/166/166 162/162/162 
f 162/162/162 166/166/166 163/163/163 
f 166/166/166 167/167/167 163/163/163 
f 163/163/163 167/167/167 164/164/164 
f 167/167/167 168/168/168 164/164/164 

