mtllib model_2.mtl
o model_2
v 0.14977896213531494 0.06204497441649437 0.00008843999967211857 
v 0.14977896213531494 0.0604480504989624 -0.017122754827141762 
v 0.14977896213531494 0.14721424877643585 -0.00008899500244297087 
v 0.14977896213531494 0.14402040839195251 -0.033624209463596344 
v 0.14671151340007782 0.15626348555088043 -0.00008899500244297087 
v 0.14671151340007782 0.1527147740125656 -0.035398561507463455 
v 0.14977896213531494 0.05547984316945076 -0.0334467738866806 
v 0.14977896213531494 0.13408398628234863 -0.06609481573104858 
v 0.14671151340007782 0.14242348074913025 -0.06946607679128647 
v 0.14977896213531494 0.04731778800487518 -0.048528749495744705 
v 0.14977896213531494 0.11811475455760956 -0.0959038957953453 
v 0.14671151340007782 0.1257445067167282 -0.10087207704782486 
v 0.14977896213531494 0.036494191735982895 -0.061836376786231995 
v 0.14977896213531494 0.09664499759674072 -0.12198684364557266 
v 0.14671151340007782 0.10303269326686859 -0.12837450206279755 
v 0.14977896213531494 0.023186491802334785 -0.07265990972518921 
v 0.14977896213531494 0.07056190073490143 -0.14345647394657135 
v 0.14671151340007782 0.07553011178970337 -0.15108618140220642 
v 0.14977896213531494 0.008104432374238968 -0.0808219164609909 
v 0.14977896213531494 0.040752656757831573 -0.15942563116550446 
v 0.14671151340007782 0.04412394016981125 -0.1677650660276413 
v 0.14977896213531494 -0.008219679817557335 -0.08579009771347046 
v 0.14977896213531494 0.008281867951154709 -0.16936197876930237 
v 0.14671151340007782 0.010056228376924992 -0.17805629968643188 
v 0.14977896213531494 -0.02525353617966175 -0.08738701790571213 
v 0.14977896213531494 -0.02525353617966175 -0.1725558191537857 
v 0.14671151340007782 -0.02525353617966175 -0.1816049963235855 
v 0.14977896213531494 -0.04246482625603676 -0.08579009771347046 
v 0.14977896213531494 -0.05896637588739395 -0.16936197876930237 
v 0.14671151340007782 -0.06074073538184166 -0.17805629968643188 
v 0.14977896213531494 -0.05878894031047821 -0.0808219164609909 
v 0.14977896213531494 -0.09143716096878052 -0.15942563116550446 
v 0.14671151340007782 -0.09480844438076019 -0.1677650660276413 
v 0.14977896213531494 -0.07387100160121918 -0.07265990972518921 
v 0.14977896213531494 -0.12124641239643097 -0.14345647394657135 
v 0.14671151340007782 -0.1262146234512329 -0.15108618140220642 
v 0.14977896213531494 -0.08717869967222214 -0.061836376786231995 
v 0.14977896213531494 -0.14732950925827026 -0.12198684364557266 
v 0.14671151340007782 -0.15371720492839813 -0.12837450206279755 
v 0.14977896213531494 -0.09800229966640472 -0.048528749495744705 
v 0.14977896213531494 -0.1687992662191391 -0.0959038957953453 
v 0.14671151340007782 -0.17642900347709656 -0.10087207704782486 
v 0.14977896213531494 -0.10616435110569 -0.0334467738866806 
v 0.14977896213531494 -0.18476849794387817 -0.06609481573104858 
v 0.14671151340007782 -0.1931079924106598 -0.06946607679128647 
v 0.14977896213531494 -0.11113256216049194 -0.017122754827141762 
v 0.14977896213531494 -0.19470492005348206 -0.033624209463596344 
v 0.14671151340007782 -0.20339928567409515 -0.035398561507463455 
v 0.14977896213531494 -0.11272948235273361 0.00008843999967211857 
v 0.14977896213531494 -0.1978987604379654 0.00008843999967211857 
v 0.14671151340007782 -0.20694799721240997 0.00008843999967211857 
v 0.14977896213531494 -0.11113256216049194 0.01712219975888729 
v 0.14977896213531494 -0.19470492005348206 0.03362365439534187 
v 0.14671151340007782 -0.20339928567409515 0.035398006439208984 
v 0.14977896213531494 -0.10616435110569 0.03344621881842613 
v 0.14977896213531494 -0.18476849794387817 0.06609425693750381 
v 0.14671151340007782 -0.1931079924106598 0.0694655254483223 
v 0.14977896213531494 -0.09800229966640472 0.048528194427490234 
v 0.14977896213531494 -0.1687992662191391 0.09590333700180054 
v 0.14671151340007782 -0.17642900347709656 0.10087151825428009 
v 0.14977896213531494 -0.08717869967222214 0.061835821717977524 
v 0.14977896213531494 -0.14732950925827026 0.1219862848520279 
v 0.14671151340007782 -0.15371720492839813 0.12837395071983337 
v 0.14977896213531494 -0.07387100160121918 0.07265935838222504 
v 0.14977896213531494 -0.12124641239643097 0.14345592260360718 
v 0.14671151340007782 -0.1262146234512329 0.15108563005924225 
v 0.14977896213531494 -0.05878894031047821 0.08082136511802673 
v 0.14977896213531494 -0.09143716096878052 0.1594250649213791 
v 0.14671151340007782 -0.09480844438076019 0.16776451468467712 
v 0.14977896213531494 -0.04246482625603676 0.08578954637050629 
v 0.14977896213531494 -0.05896637588739395 0.1693614274263382 
v 0.14671151340007782 -0.06074073538184166 0.1780557483434677 
v 0.14977896213531494 -0.02525353617966175 0.08738645911216736 
v 0.14977896213531494 -0.02525353617966175 0.17255525290966034 
v 0.14671151340007782 -0.02525353617966175 0.18160444498062134 
v 0.14977896213531494 -0.008219679817557335 0.08578954637050629 
v 0.14977896213531494 0.008281867951154709 0.1693614274263382 
v 0.14671151340007782 0.010056228376924992 0.1780557483434677 
v 0.14977896213531494 0.008104432374238968 0.08082136511802673 
v 0.14977896213531494 0.040752656757831573 0.1594250649213791 
v 0.14671151340007782 0.04412394016981125 0.16776451468467712 
v 0.14977896213531494 0.023186491802334785 0.07265935838222504 
v 0.14977896213531494 0.07056190073490143 0.14345592260360718 
v 0.14671151340007782 0.07553011178970337 0.15108563005924225 
v 0.14977896213531494 0.036494191735982895 0.061835821717977524 
v 0.14977896213531494 0.09664499759674072 0.1219862848520279 
v 0.14671151340007782 0.10303269326686859 0.12837395071983337 
v 0.14977896213531494 0.04731778800487518 0.048528194427490234 
v 0.14977896213531494 0.11811475455760956 0.09590333700180054 
v 0.14671151340007782 0.1257445067167282 0.10087151825428009 
v 0.14977896213531494 0.05547984316945076 0.03344621881842613 
v 0.14977896213531494 0.13408398628234863 0.06609425693750381 
v 0.14671151340007782 0.14242348074913025 0.0694655254483223 
v 0.14977896213531494 0.0604480504989624 0.01712219975888729 
v 0.14977896213531494 0.14402040839195251 0.03362365439534187 
v 0.14671151340007782 0.1527147740125656 0.035398006439208984 
v 0.14977896213531494 0.06204497441649437 0.00008843999967211857 
v 0.14977896213531494 0.14721424877643585 -0.00008899500244297087 
v 0.14671151340007782 0.15626348555088043 -0.00008899500244297087 
v 0.06256979703903198 0.05352804809808731 0.00008843999967211857 
v 0.06256979703903198 0.051931124180555344 0.015347849577665329 
v 0.06256979703903198 0.1482788771390915 -0.00008899500244297087 
v 0.06256979703903198 0.14490759372711182 0.033801089972257614 
v 0.0660632774233818 0.15626348555088043 -0.00008899500244297087 
v 0.0660632774233818 0.1527147740125656 0.035398006439208984 
v 0.06256979703903198 0.047495223581790924 0.03025238960981369 
v 0.06256979703903198 0.13497117161750793 0.0664491280913353 
v 0.0660632774233818 0.14242348074913025 0.0694655254483223 
v 0.06256979703903198 0.04022034630179405 0.04373744875192642 
v 0.06256979703903198 0.11900193244218826 0.09643564373254776 
v 0.0660632774233818 0.1257445067167282 0.10087151825428009 
v 0.06256979703903198 0.030461367219686508 0.05580303072929382 
v 0.06256979703903198 0.09735473990440369 0.12269602715969086 
v 0.0660632774233818 0.10303269326686859 0.12837395071983337 
v 0.06256979703903198 0.018395720049738884 0.06556195765733719 
v 0.06256979703903198 0.07109421491622925 0.14434309303760529 
v 0.0660632774233818 0.07553011178970337 0.15108563005924225 
v 0.06256979703903198 0.004910584073513746 0.07283678650856018 
v 0.06256979703903198 0.041107527911663055 0.1603122502565384 
v 0.0660632774233818 0.04412394016981125 0.16776451468467712 
v 0.06256979703903198 -0.009994040243327618 0.07727266848087311 
v 0.06256979703903198 0.008459304459393024 0.1702485978603363 
v 0.0660632774233818 0.010056228376924992 0.1780557483434677 
v 0.06256979703903198 -0.02525353617966175 0.07886958122253418 
v 0.06256979703903198 -0.02525353617966175 0.17361986637115479 
v 0.0660632774233818 -0.02525353617966175 0.18160444498062134 
v 0.06256979703903198 -0.04069046676158905 0.07727266848087311 
v 0.06256979703903198 -0.05914381146430969 0.1702485978603363 
v 0.0660632774233818 -0.06074073538184166 0.1780557483434677 
v 0.06256979703903198 -0.055595092475414276 0.07283678650856018 
v 0.06256979703903198 -0.0917920395731926 0.1603122502565384 
v 0.0660632774233818 -0.09480844438076019 0.16776451468467712 
v 0.06256979703903198 -0.06908022612333298 0.06556195765733719 
v 0.06256979703903198 -0.12177871912717819 0.14434309303760529 
v 0.0660632774233818 -0.1262146234512329 0.15108563005924225 
v 0.06256979703903198 -0.08114587515592575 0.05580303072929382 
v 0.06256979703903198 -0.14803925156593323 0.12269602715969086 
v 0.0660632774233818 -0.15371720492839813 0.12837395071983337 
v 0.06256979703903198 -0.0909048542380333 0.04373744875192642 
v 0.06256979703903198 -0.1696864366531372 0.09643564373254776 
v 0.0660632774233818 -0.17642900347709656 0.10087151825428009 
v 0.06256979703903198 -0.09817973524332047 0.03025238960981369 
v 0.06256979703903198 -0.18565568327903748 0.0664491280913353 
v 0.0660632774233818 -0.1931079924106598 0.0694655254483223 
v 0.06256979703903198 -0.10261563211679459 0.015347849577665329 
v 0.06256979703903198 -0.19559209048748016 0.033801089972257614 
v 0.0660632774233818 -0.20339928567409515 0.035398006439208984 
v 0.06256979703903198 -0.10421255230903625 0.00008843999967211857 
v 0.06256979703903198 -0.19896337389945984 0.00008843999967211857 
v 0.0660632774233818 -0.20694799721240997 0.00008843999967211857 
v 0.06256979703903198 -0.10261563211679459 -0.0153484046459198 
v 0.06256979703903198 -0.19559209048748016 -0.033801645040512085 
v 0.0660632774233818 -0.20339928567409515 -0.035398561507463455 
v 0.06256979703903198 -0.09817973524332047 -0.03025294467806816 
v 0.06256979703903198 -0.18565568327903748 -0.06644968688488007 
v 0.0660632774233818 -0.1931079924106598 -0.06946607679128647 
v 0.06256979703903198 -0.0909048542380333 -0.04373800382018089 
v 0.06256979703903198 -0.1696864366531372 -0.09643620252609253 
v 0.0660632774233818 -0.17642900347709656 -0.10087207704782486 
v 0.06256979703903198 -0.08114587515592575 -0.055803585797548294 
v 0.06256979703903198 -0.14803925156593323 -0.12269657850265503 
v 0.0660632774233818 -0.15371720492839813 -0.12837450206279755 
v 0.06256979703903198 -0.06908022612333298 -0.06556250900030136 
v 0.06256979703903198 -0.12177871912717819 -0.14434364438056946 
v 0.0660632774233818 -0.1262146234512329 -0.15108618140220642 
v 0.06256979703903198 -0.055595092475414276 -0.07283734530210495 
v 0.06256979703903198 -0.0917920395731926 -0.16031280159950256 
v 0.0660632774233818 -0.09480844438076019 -0.1677650660276413 
v 0.06256979703903198 -0.04069046676158905 -0.07727321982383728 
v 0.06256979703903198 -0.05914381146430969 -0.17024916410446167 
v 0.0660632774233818 -0.06074073538184166 -0.17805629968643188 
v 0.06256979703903198 -0.02525353617966175 -0.07887013256549835 
v 0.06256979703903198 -0.02525353617966175 -0.17362041771411896 
v 0.0660632774233818 -0.02525353617966175 -0.1816049963235855 
v 0.06256979703903198 -0.009994040243327618 -0.07727321982383728 
v 0.06256979703903198 0.008459304459393024 -0.17024916410446167 
v 0.0660632774233818 0.010056228376924992 -0.17805629968643188 
v 0.06256979703903198 0.004910584073513746 -0.07283734530210495 
v 0.06256979703903198 0.041107527911663055 -0.16031280159950256 
v 0.0660632774233818 0.04412394016981125 -0.1677650660276413 
v 0.06256979703903198 0.018395720049738884 -0.06556250900030136 
v 0.06256979703903198 0.07109421491622925 -0.14434364438056946 
v 0.0660632774233818 0.07553011178970337 -0.15108618140220642 
v 0.06256979703903198 0.030461367219686508 -0.055803585797548294 
v 0.06256979703903198 0.09735473990440369 -0.12269657850265503 
v 0.0660632774233818 0.10303269326686859 -0.12837450206279755 
v 0.06256979703903198 0.04022034630179405 -0.04373800382018089 
v 0.06256979703903198 0.11900193244218826 -0.09643620252609253 
v 0.0660632774233818 0.1257445067167282 -0.10087207704782486 
v 0.06256979703903198 0.047495223581790924 -0.03025294467806816 
v 0.06256979703903198 0.13497117161750793 -0.06644968688488007 
v 0.0660632774233818 0.14242348074913025 -0.06946607679128647 
v 0.06256979703903198 0.051931124180555344 -0.0153484046459198 
v 0.06256979703903198 0.14490759372711182 -0.033801645040512085 
v 0.0660632774233818 0.1527147740125656 -0.035398561507463455 
v 0.06256979703903198 0.05352804809808731 0.00008843999967211857 
v 0.06256979703903198 0.1482788771390915 -0.00008899500244297087 
v 0.0660632774233818 0.15626348555088043 -0.00008899500244297087 
v 0.14671151340007782 0.15626348555088043 -0.00008899500244297087 
v 0.0660632774233818 0.15626348555088043 -0.00008899500244297087 
v 0.14671151340007782 0.1527147740125656 0.035398006439208984 
v 0.0660632774233818 0.1527147740125656 0.035398006439208984 
v 0.14671151340007782 0.14242348074913025 0.0694655254483223 
v 0.0660632774233818 0.14242348074913025 0.0694655254483223 
v 0.14671151340007782 0.1257445067167282 0.10087151825428009 
v 0.0660632774233818 0.1257445067167282 0.10087151825428009 
v 0.14671151340007782 0.10303269326686859 0.12837395071983337 
v 0.0660632774233818 0.10303269326686859 0.12837395071983337 
v 0.14671151340007782 0.07553011178970337 0.15108563005924225 
v 0.0660632774233818 0.07553011178970337 0.15108563005924225 
v 0.14671151340007782 0.04412394016981125 0.16776451468467712 
v 0.0660632774233818 0.04412394016981125 0.16776451468467712 
v 0.14671151340007782 0.010056228376924992 0.1780557483434677 
v 0.0660632774233818 0.010056228376924992 0.1780557483434677 
v 0.14671151340007782 -0.02525353617966175 0.18160444498062134 
v 0.0660632774233818 -0.02525353617966175 0.18160444498062134 
v 0.14671151340007782 -0.06074073538184166 0.1780557483434677 
v 0.0660632774233818 -0.06074073538184166 0.1780557483434677 
v 0.14671151340007782 -0.09480844438076019 0.16776451468467712 
v 0.0660632774233818 -0.09480844438076019 0.16776451468467712 
v 0.14671151340007782 -0.1262146234512329 0.15108563005924225 
v 0.0660632774233818 -0.1262146234512329 0.15108563005924225 
v 0.14671151340007782 -0.15371720492839813 0.12837395071983337 
v 0.0660632774233818 -0.15371720492839813 0.12837395071983337 
v 0.14671151340007782 -0.17642900347709656 0.10087151825428009 
v 0.0660632774233818 -0.17642900347709656 0.10087151825428009 
v 0.14671151340007782 -0.1931079924106598 0.0694655254483223 
v 0.0660632774233818 -0.1931079924106598 0.0694655254483223 
v 0.14671151340007782 -0.20339928567409515 0.035398006439208984 
v 0.0660632774233818 -0.20339928567409515 0.035398006439208984 
v 0.14671151340007782 -0.20694799721240997 0.00008843999967211857 
v 0.0660632774233818 -0.20694799721240997 0.00008843999967211857 
v 0.14671151340007782 -0.20339928567409515 -0.035398561507463455 
v 0.0660632774233818 -0.20339928567409515 -0.035398561507463455 
v 0.14671151340007782 -0.1931079924106598 -0.06946607679128647 
v 0.0660632774233818 -0.1931079924106598 -0.06946607679128647 
v 0.14671151340007782 -0.17642900347709656 -0.10087207704782486 
v 0.0660632774233818 -0.17642900347709656 -0.10087207704782486 
v 0.14671151340007782 -0.15371720492839813 -0.12837450206279755 
v 0.0660632774233818 -0.15371720492839813 -0.12837450206279755 
v 0.14671151340007782 -0.1262146234512329 -0.15108618140220642 
v 0.0660632774233818 -0.1262146234512329 -0.15108618140220642 
v 0.14671151340007782 -0.09480844438076019 -0.1677650660276413 
v 0.0660632774233818 -0.09480844438076019 -0.1677650660276413 
v 0.14671151340007782 -0.06074073538184166 -0.17805629968643188 
v 0.0660632774233818 -0.06074073538184166 -0.17805629968643188 
v 0.14671151340007782 -0.02525353617966175 -0.1816049963235855 
v 0.0660632774233818 -0.02525353617966175 -0.1816049963235855 
v 0.14671151340007782 0.010056228376924992 -0.17805629968643188 
v 0.0660632774233818 0.010056228376924992 -0.17805629968643188 
v 0.14671151340007782 0.04412394016981125 -0.1677650660276413 
v 0.0660632774233818 0.04412394016981125 -0.1677650660276413 
v 0.14671151340007782 0.07553011178970337 -0.15108618140220642 
v 0.0660632774233818 0.07553011178970337 -0.15108618140220642 
v 0.14671151340007782 0.10303269326686859 -0.12837450206279755 
v 0.0660632774233818 0.10303269326686859 -0.12837450206279755 
v 0.14671151340007782 0.1257445067167282 -0.10087207704782486 
v 0.0660632774233818 0.1257445067167282 -0.10087207704782486 
v 0.14671151340007782 0.14242348074913025 -0.06946607679128647 
v 0.0660632774233818 0.14242348074913025 -0.06946607679128647 
v 0.14671151340007782 0.1527147740125656 -0.035398561507463455 
v 0.0660632774233818 0.1527147740125656 -0.035398561507463455 
v 0.14671151340007782 0.15626348555088043 -0.00008899500244297087 
v 0.0660632774233818 0.15626348555088043 -0.00008899500244297087 
v 0.14977896213531494 -0.05878894031047821 -0.0808219164609909 
v 0.14977896213531494 -0.04246482625603676 -0.08579009771347046 
v 0.14977896213531494 -0.02525353617966175 0.00008843999967211857 
v 0.14977896213531494 -0.02525353617966175 -0.08738701790571213 
v 0.14977896213531494 -0.008219679817557335 -0.08579009771347046 
v 0.14977896213531494 0.008104432374238968 -0.0808219164609909 
v 0.14977896213531494 0.023186491802334785 -0.07265990972518921 
v 0.14977896213531494 0.036494191735982895 -0.061836376786231995 
v 0.14977896213531494 0.04731778800487518 -0.048528749495744705 
v 0.14977896213531494 0.05547984316945076 -0.0334467738866806 
v 0.14977896213531494 0.0604480504989624 -0.017122754827141762 
v 0.14977896213531494 0.06204497441649437 0.00008843999967211857 
v 0.14977896213531494 0.0604480504989624 0.01712219975888729 
v 0.14977896213531494 0.05547984316945076 0.03344621881842613 
v 0.14977896213531494 0.04731778800487518 0.048528194427490234 
v 0.14977896213531494 0.036494191735982895 0.061835821717977524 
v 0.14977896213531494 0.023186491802334785 0.07265935838222504 
v 0.14977896213531494 0.008104432374238968 0.08082136511802673 
v 0.14977896213531494 -0.008219679817557335 0.08578954637050629 
v 0.14977896213531494 -0.02525353617966175 0.08738645911216736 
v 0.14977896213531494 -0.04246482625603676 0.08578954637050629 
v 0.14977896213531494 -0.05878894031047821 0.08082136511802673 
v 0.14977896213531494 -0.07387100160121918 0.07265935838222504 
v 0.14977896213531494 -0.08717869967222214 0.061835821717977524 
v 0.14977896213531494 -0.09800229966640472 0.048528194427490234 
v 0.14977896213531494 -0.10616435110569 0.03344621881842613 
v 0.14977896213531494 -0.11113256216049194 0.01712219975888729 
v 0.14977896213531494 -0.11272948235273361 0.00008843999967211857 
v 0.14977896213531494 -0.11113256216049194 -0.017122754827141762 
v 0.14977896213531494 -0.10616435110569 -0.0334467738866806 
v 0.14977896213531494 -0.09800229966640472 -0.048528749495744705 
v 0.14977896213531494 -0.08717869967222214 -0.061836376786231995 
v 0.14977896213531494 -0.07387100160121918 -0.07265990972518921 
v 0.06256979703903198 -0.055595092475414276 -0.07283734530210495 
v 0.06256979703903198 -0.06908022612333298 -0.06556250900030136 
v 0.06256979703903198 -0.02525353617966175 0.00008843999967211857 
v 0.06256979703903198 -0.08114587515592575 -0.055803585797548294 
v 0.06256979703903198 -0.0909048542380333 -0.04373800382018089 
v 0.06256979703903198 -0.09817973524332047 -0.03025294467806816 
v 0.06256979703903198 -0.10261563211679459 -0.0153484046459198 
v 0.06256979703903198 -0.10421255230903625 0.00008843999967211857 
v 0.06256979703903198 -0.10261563211679459 0.015347849577665329 
v 0.06256979703903198 -0.09817973524332047 0.03025238960981369 
v 0.06256979703903198 -0.0909048542380333 0.04373744875192642 
v 0.06256979703903198 -0.08114587515592575 0.05580303072929382 
v 0.06256979703903198 -0.06908022612333298 0.06556195765733719 
v 0.06256979703903198 -0.055595092475414276 0.07283678650856018 
v 0.06256979703903198 -0.04069046676158905 0.07727266848087311 
v 0.06256979703903198 -0.02525353617966175 0.07886958122253418 
v 0.06256979703903198 -0.009994040243327618 0.07727266848087311 
v 0.06256979703903198 0.004910584073513746 0.07283678650856018 
v 0.06256979703903198 0.018395720049738884 0.06556195765733719 
v 0.06256979703903198 0.030461367219686508 0.05580303072929382 
v 0.06256979703903198 0.04022034630179405 0.04373744875192642 
v 0.06256979703903198 0.047495223581790924 0.03025238960981369 
v 0.06256979703903198 0.051931124180555344 0.015347849577665329 
v 0.06256979703903198 0.05352804809808731 0.00008843999967211857 
v 0.06256979703903198 0.051931124180555344 -0.0153484046459198 
v 0.06256979703903198 0.047495223581790924 -0.03025294467806816 
v 0.06256979703903198 0.04022034630179405 -0.04373800382018089 
v 0.06256979703903198 0.030461367219686508 -0.055803585797548294 
v 0.06256979703903198 0.018395720049738884 -0.06556250900030136 
v 0.06256979703903198 0.004910584073513746 -0.07283734530210495 
v 0.06256979703903198 -0.009994040243327618 -0.07727321982383728 
v 0.06256979703903198 -0.02525353617966175 -0.07887013256549835 
v 0.06256979703903198 -0.04069046676158905 -0.07727321982383728 
vn 0.999997615814209 0 0.002184694167226553 
vn 0.999997615814209 0 0.002184694167226553 
vn 0.9849507808685303 0.17282135784626007 0.002184694167226553 
vn 0.9844242930412292 0.17272897064685822 -0.03276457265019417 
vn 0.5680633783340454 0.8229818940162659 0.002184694167226553 
vn 0.5637187957763672 0.8105561137199402 -0.15880759060382843 
vn 0.999997615814209 0 0.002184694167226553 
vn 0.9851269125938416 0.15794049203395844 -0.06767380982637405 
vn 0.5659539699554443 0.7616140842437744 -0.31565824151039124 
vn 0.999997615814209 0 0.002184694167226553 
vn 0.9848455786705017 0.14298658072948456 -0.0981530249118805 
vn 0.5647931694984436 0.6874582767486572 -0.456519216299057 
vn 0.999997615814209 0 0.002184694167226553 
vn 0.9849164485931396 0.12046781182289124 -0.1242060661315918 
vn 0.5663489699363708 0.5823653936386108 -0.5831804275512695 
vn 0.999997615814209 0 0.002184694167226553 
vn 0.984437882900238 0.09802592545747757 -0.1458524912595749 
vn 0.5649855732917786 0.460921049118042 -0.6843559741973877 
vn 0.999997615814209 0 0.002184694167226553 
vn 0.984974205493927 0.06786741316318512 -0.15880759060382843 
vn 0.5633265376091003 0.31796735525131226 -0.762600839138031 
vn 0.999997615814209 0 0.002184694167226553 
vn 0.9846804141998291 0.030189597979187965 -0.17173540592193604 
vn 0.5651357173919678 0.1641477346420288 -0.8085030317306519 
vn 0.999997615814209 0 0.002184694167226553 
vn 0.9851431250572205 0 -0.17173540592193604 
vn 0.5670962333679199 0 -0.8236515522003174 
vn 0.999997615814209 0 0.002184694167226553 
vn 0.9846804141998291 -0.030189597979187965 -0.17173540592193604 
vn 0.5651357173919678 -0.1641477346420288 -0.8085030317306519 
vn 0.999997615814209 0 0.002184694167226553 
vn 0.984974205493927 -0.06786741316318512 -0.15880759060382843 
vn 0.5633265376091003 -0.31796735525131226 -0.762600839138031 
vn 0.999997615814209 0 0.002184694167226553 
vn 0.984437882900238 -0.09802592545747757 -0.1458524912595749 
vn 0.5649855732917786 -0.460921049118042 -0.6843559741973877 
vn 0.999997615814209 0 0.002184694167226553 
vn 0.9849164485931396 -0.12046781182289124 -0.1242060661315918 
vn 0.5663489699363708 -0.5823653936386108 -0.5831804275512695 
vn 0.999997615814209 0 0.002184694167226553 
vn 0.9848455786705017 -0.14298658072948456 -0.0981530249118805 
vn 0.5647931694984436 -0.6874582767486572 -0.456519216299057 
vn 0.999997615814209 0 0.002184694167226553 
vn 0.9851269125938416 -0.15794049203395844 -0.06767380982637405 
vn 0.5659539699554443 -0.7616140842437744 -0.31565824151039124 
vn 0.999997615814209 0 0.002184694167226553 
vn 0.9844242930412292 -0.17272897064685822 -0.03276457265019417 
vn 0.5637187957763672 -0.8105561137199402 -0.15880759060382843 
vn 0.999997615814209 0 0.002184694167226553 
vn 0.9849507808685303 -0.17282135784626007 0.002184694167226553 
vn 0.5680633783340454 -0.8229818940162659 0.002184694167226553 
vn 0.999997615814209 0 0.002184694167226553 
vn 0.9844242930412292 -0.17272897064685822 0.03276457265019417 
vn 0.5637187957763672 -0.8105561137199402 0.15880759060382843 
vn 0.999997615814209 0 0.002184694167226553 
vn 0.9851269125938416 -0.15794049203395844 0.06767380982637405 
vn 0.566851794719696 -0.7609460353851318 0.31565824151039124 
vn 0.999997615814209 0 0.002184694167226553 
vn 0.9848455786705017 -0.14298658072948456 0.0981530249118805 
vn 0.5656120181083679 -0.6867846846580505 0.456519216299057 
vn 0.999997615814209 0 0.002184694167226553 
vn 0.9849164485931396 -0.12046781182289124 0.1242060661315918 
vn 0.5670362114906311 -0.5816962718963623 0.5831804275512695 
vn 0.999997615814209 0 0.002184694167226553 
vn 0.9844496846199036 -0.09790735691785812 0.1458524912595749 
vn 0.5660216808319092 -0.45964810252189636 0.6843559741973877 
vn 0.999997615814209 0 0.002184694167226553 
vn 0.984974205493927 -0.06786741316318512 0.15880759060382843 
vn 0.5636293888092041 -0.31743016839027405 0.762600839138031 
vn 0.999997615814209 0 0.002184694167226553 
vn 0.9846804141998291 -0.030189597979187965 0.17173540592193604 
vn 0.5653243660926819 -0.16349689662456512 0.8085030317306519 
vn 0.999997615814209 0 0.002184694167226553 
vn 0.9851431250572205 0 0.17173540592193604 
vn 0.5670962333679199 0 0.8236515522003174 
vn 0.999997615814209 0 0.002184694167226553 
vn 0.9846804141998291 0.030189597979187965 0.17173540592193604 
vn 0.5653243660926819 0.16349689662456512 0.8085030317306519 
vn 0.999997615814209 0 0.002184694167226553 
vn 0.984974205493927 0.06786741316318512 0.15880759060382843 
vn 0.5636293888092041 0.31743016839027405 0.762600839138031 
vn 0.999997615814209 0 0.002184694167226553 
vn 0.9844496846199036 0.09790735691785812 0.1458524912595749 
vn 0.5660216808319092 0.45964810252189636 0.6843559741973877 
vn 0.999997615814209 0 0.002184694167226553 
vn 0.9849164485931396 0.12046781182289124 0.1242060661315918 
vn 0.5670362114906311 0.5816962718963623 0.5831804275512695 
vn 0.999997615814209 0 0.002184694167226553 
vn 0.9848455786705017 0.14298658072948456 0.0981530249118805 
vn 0.5656120181083679 0.6867846846580505 0.456519216299057 
vn 0.999997615814209 0 0.002184694167226553 
vn 0.9851269125938416 0.15794049203395844 0.06767380982637405 
vn 0.566851794719696 0.7609460353851318 0.31565824151039124 
vn 0.999997615814209 0 0.002184694167226553 
vn 0.9844242930412292 0.17272897064685822 0.03276457265019417 
vn 0.5637187957763672 0.8105561137199402 0.15880759060382843 
vn 0.999997615814209 0 0.002184694167226553 
vn 0.9849507808685303 0.17282135784626007 0.002184694167226553 
vn 0.5680633783340454 0.8229818940162659 0.002184694167226553 
vn -0.999997615814209 -2.0682260971124217e-13 0.002184694167226553 
vn -0.999997615814209 -2.0682260971124217e-13 0.002184694167226553 
vn -0.9761117100715637 0.21725822985172272 0.002184694167226553 
vn -0.9768847227096558 0.2097003161907196 0.04149730131030083 
vn -0.5302026271820068 0.8478681445121765 0.002184694167226553 
vn -0.5341212153434753 0.8295217752456665 0.16312000155448914 
vn -0.999997615814209 -2.0682260971124217e-13 0.002184694167226553 
vn -0.9763427376747131 0.19877831637859344 0.08510008454322815 
vn -0.5326480269432068 0.7818888425827026 0.3239381015300751 
vn -0.999997615814209 -2.0682260971124217e-13 0.002184694167226553 
vn -0.9762912392616272 0.18024083971977234 0.11986933648586273 
vn -0.5309278964996338 0.7037988305091858 0.4719987213611603 
vn -0.999997615814209 -2.0682260971124217e-13 0.002184694167226553 
vn -0.9764713048934937 0.15045249462127686 0.15449213981628418 
vn -0.5314074754714966 0.6007101535797119 0.5972883701324463 
vn -0.999997615814209 -2.0682260971124217e-13 0.002184694167226553 
vn -0.9757348299026489 0.12417668849229813 0.18033768236637115 
vn -0.5336966514587402 0.46971213817596436 0.7032341957092285 
vn -0.999997615814209 -2.0682260971124217e-13 0.002184694167226553 
vn -0.9755837321281433 0.08672107011079788 0.2017817199230194 
vn -0.5333620309829712 0.3224286139011383 0.7820260524749756 
vn -0.999997615814209 -2.0682260971124217e-13 0.002184694167226553 
vn -0.9758192300796509 0.041503340005874634 0.21460255980491638 
vn -0.5317495465278625 0.16327229142189026 0.8310141563415527 
vn -0.999997615814209 -2.0682260971124217e-13 0.002184694167226553 
vn -0.97575443983078 -2.0224189619007238e-13 0.21886809170246124 
vn -0.5305644869804382 0.0037626309785991907 0.8476362228393555 
vn -0.999997615814209 -2.0682260971124217e-13 0.002184694167226553 
vn -0.9758192300796509 -0.041503340005874634 0.21460255980491638 
vn -0.5317495465278625 -0.16327229142189026 0.8310141563415527 
vn -0.999997615814209 -2.0682260971124217e-13 0.002184694167226553 
vn -0.9755837321281433 -0.08672107011079788 0.2017817199230194 
vn -0.5333620309829712 -0.3224286139011383 0.7820260524749756 
vn -0.999997615814209 -2.0682260971124217e-13 0.002184694167226553 
vn -0.9757348299026489 -0.12417668849229813 0.18033768236637115 
vn -0.5336966514587402 -0.46971213817596436 0.7032341957092285 
vn -0.999997615814209 -2.0682260971124217e-13 0.002184694167226553 
vn -0.9764713048934937 -0.15045249462127686 0.15449213981628418 
vn -0.5314074754714966 -0.6007101535797119 0.5972883701324463 
vn -0.999997615814209 -2.0682260971124217e-13 0.002184694167226553 
vn -0.9762912392616272 -0.18024083971977234 0.11986933648586273 
vn -0.5309278964996338 -0.7037988305091858 0.4719987213611603 
vn -0.999997615814209 -2.0682260971124217e-13 0.002184694167226553 
vn -0.9763427376747131 -0.19877831637859344 0.08510008454322815 
vn -0.5326480269432068 -0.7818888425827026 0.3239381015300751 
vn -0.999997615814209 -2.0682260971124217e-13 0.002184694167226553 
vn -0.9768847227096558 -0.2097003161907196 0.04149730131030083 
vn -0.5341212153434753 -0.8295217752456665 0.16312000155448914 
vn -0.999997615814209 -2.0682260971124217e-13 0.002184694167226553 
vn -0.9761117100715637 -0.21725822985172272 0.002184694167226553 
vn -0.5302026271820068 -0.8478681445121765 0.002184694167226553 
vn -0.999997615814209 -2.0682260971124217e-13 0.002184694167226553 
vn -0.9768847227096558 -0.2097003161907196 -0.04149730131030083 
vn -0.5341212153434753 -0.8295217752456665 -0.16312000155448914 
vn -0.999997615814209 -2.0682260971124217e-13 0.002184694167226553 
vn -0.9763427376747131 -0.19877831637859344 -0.08510008454322815 
vn -0.5348007082939148 -0.7804180383682251 -0.3239381015300751 
vn -0.999997615814209 -2.0682260971124217e-13 0.002184694167226553 
vn -0.9762912392616272 -0.18024083971977234 -0.11986933648586273 
vn -0.5330542325973511 -0.7021896839141846 -0.4719987213611603 
vn -0.999997615814209 -2.0682260971124217e-13 0.002184694167226553 
vn -0.9764713048934937 -0.15045249462127686 -0.15449213981628418 
vn -0.5334712862968445 -0.5988780856132507 -0.5972883701324463 
vn -0.999997615814209 -2.0682260971124217e-13 0.002184694167226553 
vn -0.9761859178543091 -0.12057946622371674 -0.18033768236637115 
vn -0.5306148529052734 -0.4731908142566681 -0.7032341957092285 
vn -0.999997615814209 -2.0682260971124217e-13 0.002184694167226553 
vn -0.9755837321281433 -0.08672107011079788 -0.2017817199230194 
vn -0.5326839685440063 -0.3235476016998291 -0.7820260524749756 
vn -0.999997615814209 -2.0682260971124217e-13 0.002184694167226553 
vn -0.9758192300796509 -0.041503340005874634 -0.21460255980491638 
vn -0.5315385460853577 -0.16395792365074158 -0.8310141563415527 
vn -0.999997615814209 -2.0682260971124217e-13 0.002184694167226553 
vn -0.97575443983078 -2.0224189619007238e-13 -0.21886809170246124 
vn -0.5305643677711487 0.0037796946708112955 -0.8476362228393555 
vn -0.999997615814209 -2.0682260971124217e-13 0.002184694167226553 
vn -0.9758192300796509 0.041503340005874634 -0.21460255980491638 
vn -0.5315385460853577 0.16395792365074158 -0.8310141563415527 
vn -0.999997615814209 -2.0682260971124217e-13 0.002184694167226553 
vn -0.9755837321281433 0.08672107011079788 -0.2017817199230194 
vn -0.5326839685440063 0.3235476016998291 -0.7820260524749756 
vn -0.999997615814209 -2.0682260971124217e-13 0.002184694167226553 
vn -0.9761859178543091 0.12057946622371674 -0.18033768236637115 
vn -0.5306148529052734 0.4731908142566681 -0.7032341957092285 
vn -0.999997615814209 -2.0682260971124217e-13 0.002184694167226553 
vn -0.9764713048934937 0.15045249462127686 -0.15449213981628418 
vn -0.5334712862968445 0.5988780856132507 -0.5972883701324463 
vn -0.999997615814209 -2.0682260971124217e-13 0.002184694167226553 
vn -0.9762912392616272 0.18024083971977234 -0.11986933648586273 
vn -0.5330542325973511 0.7021896839141846 -0.4719987213611603 
vn -0.999997615814209 -2.0682260971124217e-13 0.002184694167226553 
vn -0.9763427376747131 0.19877831637859344 -0.08510008454322815 
vn -0.5348007082939148 0.7804180383682251 -0.3239381015300751 
vn -0.999997615814209 -2.0682260971124217e-13 0.002184694167226553 
vn -0.9768847227096558 0.2097003161907196 -0.04149730131030083 
vn -0.5341212153434753 0.8295217752456665 -0.16312000155448914 
vn -0.999997615814209 -2.0682260971124217e-13 0.002184694167226553 
vn -0.9761117100715637 0.21725822985172272 0.002184694167226553 
vn -0.5302026271820068 0.8478681445121765 0.002184694167226553 
vn 0.5680633783340454 0.8229818940162659 0.002184694167226553 
vn -0.5302026271820068 0.8478681445121765 0.002184694167226553 
vn 0.5637187957763672 0.8105561137199402 0.15880759060382843 
vn -0.5341212153434753 0.8295217752456665 0.16312000155448914 
vn 0.566851794719696 0.7609460353851318 0.31565824151039124 
vn -0.5326480269432068 0.7818888425827026 0.3239381015300751 
vn 0.5656120181083679 0.6867846846580505 0.456519216299057 
vn -0.5309278964996338 0.7037988305091858 0.4719987213611603 
vn 0.5670362114906311 0.5816962718963623 0.5831804275512695 
vn -0.5314074754714966 0.6007101535797119 0.5972883701324463 
vn 0.5660216808319092 0.45964810252189636 0.6843559741973877 
vn -0.5336966514587402 0.46971213817596436 0.7032341957092285 
vn 0.5636293888092041 0.31743016839027405 0.762600839138031 
vn -0.5333620309829712 0.3224286139011383 0.7820260524749756 
vn 0.5653243660926819 0.16349689662456512 0.8085030317306519 
vn -0.5317495465278625 0.16327229142189026 0.8310141563415527 
vn 0.5670962333679199 0 0.8236515522003174 
vn -0.5305644869804382 0.0037626309785991907 0.8476362228393555 
vn 0.5653243660926819 -0.16349689662456512 0.8085030317306519 
vn -0.5317495465278625 -0.16327229142189026 0.8310141563415527 
vn 0.5636293888092041 -0.31743016839027405 0.762600839138031 
vn -0.5333620309829712 -0.3224286139011383 0.7820260524749756 
vn 0.5660216808319092 -0.45964810252189636 0.6843559741973877 
vn -0.5336966514587402 -0.46971213817596436 0.7032341957092285 
vn 0.5670362114906311 -0.5816962718963623 0.5831804275512695 
vn -0.5314074754714966 -0.6007101535797119 0.5972883701324463 
vn 0.5656120181083679 -0.6867846846580505 0.456519216299057 
vn -0.5309278964996338 -0.7037988305091858 0.4719987213611603 
vn 0.566851794719696 -0.7609460353851318 0.31565824151039124 
vn -0.5326480269432068 -0.7818888425827026 0.3239381015300751 
vn 0.5637187957763672 -0.8105561137199402 0.15880759060382843 
vn -0.5341212153434753 -0.8295217752456665 0.16312000155448914 
vn 0.5680633783340454 -0.8229818940162659 0.002184694167226553 
vn -0.5302026271820068 -0.8478681445121765 0.002184694167226553 
vn 0.5637187957763672 -0.8105561137199402 -0.15880759060382843 
vn -0.5341212153434753 -0.8295217752456665 -0.16312000155448914 
vn 0.5659539699554443 -0.7616140842437744 -0.31565824151039124 
vn -0.5348007082939148 -0.7804180383682251 -0.3239381015300751 
vn 0.5647931694984436 -0.6874582767486572 -0.456519216299057 
vn -0.5330542325973511 -0.7021896839141846 -0.4719987213611603 
vn 0.5663489699363708 -0.5823653936386108 -0.5831804275512695 
vn -0.5334712862968445 -0.5988780856132507 -0.5972883701324463 
vn 0.5649855732917786 -0.460921049118042 -0.6843559741973877 
vn -0.5306148529052734 -0.4731908142566681 -0.7032341957092285 
vn 0.5633265376091003 -0.31796735525131226 -0.762600839138031 
vn -0.5326839685440063 -0.3235476016998291 -0.7820260524749756 
vn 0.5651357173919678 -0.1641477346420288 -0.8085030317306519 
vn -0.5315385460853577 -0.16395792365074158 -0.8310141563415527 
vn 0.5670962333679199 0 -0.8236515522003174 
vn -0.5305643677711487 0.0037796946708112955 -0.8476362228393555 
vn 0.5651357173919678 0.1641477346420288 -0.8085030317306519 
vn -0.5315385460853577 0.16395792365074158 -0.8310141563415527 
vn 0.5633265376091003 0.31796735525131226 -0.762600839138031 
vn -0.5326839685440063 0.3235476016998291 -0.7820260524749756 
vn 0.5649855732917786 0.460921049118042 -0.6843559741973877 
vn -0.5306148529052734 0.4731908142566681 -0.7032341957092285 
vn 0.5663489699363708 0.5823653936386108 -0.5831804275512695 
vn -0.5334712862968445 0.5988780856132507 -0.5972883701324463 
vn 0.5647931694984436 0.6874582767486572 -0.456519216299057 
vn -0.5330542325973511 0.7021896839141846 -0.4719987213611603 
vn 0.5659539699554443 0.7616140842437744 -0.31565824151039124 
vn -0.5348007082939148 0.7804180383682251 -0.3239381015300751 
vn 0.5637187957763672 0.8105561137199402 -0.15880759060382843 
vn -0.5341212153434753 0.8295217752456665 -0.16312000155448914 
vn 0.5680633783340454 0.8229818940162659 0.002184694167226553 
vn -0.5302026271820068 0.8478681445121765 0.002184694167226553 
vn 0.999997615814209 0 0.002184694167226553 
vn 0.999997615814209 0 0.002184694167226553 
vn 0.999997615814209 0 0.002184694167226553 
vn 0.999997615814209 0 0.002184694167226553 
vn 0.999997615814209 0 0.002184694167226553 
vn 0.999997615814209 0 0.002184694167226553 
vn 0.999997615814209 0 0.002184694167226553 
vn 0.999997615814209 0 0.002184694167226553 
vn 0.999997615814209 0 0.002184694167226553 
vn 0.999997615814209 0 0.002184694167226553 
vn 0.999997615814209 0 0.002184694167226553 
vn 0.999997615814209 0 0.002184694167226553 
vn 0.999997615814209 0 0.002184694167226553 
vn 0.999997615814209 0 0.002184694167226553 
vn 0.999997615814209 0 0.002184694167226553 
vn 0.999997615814209 0 0.002184694167226553 
vn 0.999997615814209 0 0.002184694167226553 
vn 0.999997615814209 0 0.002184694167226553 
vn 0.999997615814209 0 0.002184694167226553 
vn 0.999997615814209 0 0.002184694167226553 
vn 0.999997615814209 0 0.002184694167226553 
vn 0.999997615814209 0 0.002184694167226553 
vn 0.999997615814209 0 0.002184694167226553 
vn 0.999997615814209 0 0.002184694167226553 
vn 0.999997615814209 0 0.002184694167226553 
vn 0.999997615814209 0 0.002184694167226553 
vn 0.999997615814209 0 0.002184694167226553 
vn 0.999997615814209 0 0.002184694167226553 
vn 0.999997615814209 0 0.002184694167226553 
vn 0.999997615814209 0 0.002184694167226553 
vn 0.999997615814209 0 0.002184694167226553 
vn 0.999997615814209 0 0.002184694167226553 
vn 0.999997615814209 0 0.002184694167226553 
vn -0.999997615814209 -2.0682260971124217e-13 0.002184694167226553 
vn -0.999997615814209 -2.0682260971124217e-13 0.002184694167226553 
vn -0.999997615814209 -2.0682260971124217e-13 0.002184694167226553 
vn -0.999997615814209 -2.0682260971124217e-13 0.002184694167226553 
vn -0.999997615814209 -2.0682260971124217e-13 0.002184694167226553 
vn -0.999997615814209 -2.0682260971124217e-13 0.002184694167226553 
vn -0.999997615814209 -2.0682260971124217e-13 0.002184694167226553 
vn -0.999997615814209 -2.0682260971124217e-13 0.002184694167226553 
vn -0.999997615814209 -2.0682260971124217e-13 0.002184694167226553 
vn -0.999997615814209 -2.0682260971124217e-13 0.002184694167226553 
vn -0.999997615814209 -2.0682260971124217e-13 0.002184694167226553 
vn -0.999997615814209 -2.0682260971124217e-13 0.002184694167226553 
vn -0.999997615814209 -2.0682260971124217e-13 0.002184694167226553 
vn -0.999997615814209 -2.0682260971124217e-13 0.002184694167226553 
vn -0.999997615814209 -2.0682260971124217e-13 0.002184694167226553 
vn -0.999997615814209 -2.0682260971124217e-13 0.002184694167226553 
vn -0.999997615814209 -2.0682260971124217e-13 0.002184694167226553 
vn -0.999997615814209 -2.0682260971124217e-13 0.002184694167226553 
vn -0.999997615814209 -2.0682260971124217e-13 0.002184694167226553 
vn -0.999997615814209 -2.0682260971124217e-13 0.002184694167226553 
vn -0.999997615814209 -2.0682260971124217e-13 0.002184694167226553 
vn -0.999997615814209 -2.0682260971124217e-13 0.002184694167226553 
vn -0.999997615814209 -2.0682260971124217e-13 0.002184694167226553 
vn -0.999997615814209 -2.0682260971124217e-13 0.002184694167226553 
vn -0.999997615814209 -2.0682260971124217e-13 0.002184694167226553 
vn -0.999997615814209 -2.0682260971124217e-13 0.002184694167226553 
vn -0.999997615814209 -2.0682260971124217e-13 0.002184694167226553 
vn -0.999997615814209 -2.0682260971124217e-13 0.002184694167226553 
vn -0.999997615814209 -2.0682260971124217e-13 0.002184694167226553 
vn -0.999997615814209 -2.0682260971124217e-13 0.002184694167226553 
vn -0.999997615814209 -2.0682260971124217e-13 0.002184694167226553 
vn -0.999997615814209 -2.0682260971124217e-13 0.002184694167226553 
vn -0.999997615814209 -2.0682260971124217e-13 0.002184694167226553 
vt 0.4381822645664215 0.5003914833068848 
vt 0.4458712935447693 0.5137003064155579 
vt 0.36861491203308105 0.5317347645759583 
vt 0.38448116183280945 0.5574845671653748 
vt 0.3560439646244049 0.5385820865631104 
vt 0.3732527494430542 0.5659713745117188 
vt 0.45600128173828125 0.5253697037696838 
vt 0.4040088355541229 0.5797623991966248 
vt 0.3944890797138214 0.5899851322174072 
vt 0.46808403730392456 0.5349173545837402 
vt 0.42719796299934387 0.5979897379875183 
vt 0.4197530150413513 0.6096591353416443 
vt 0.481753408908844 0.5420539975166321 
vt 0.45331621170043945 0.6114915013313293 
vt 0.44819021224975586 0.6244146227836609 
vt 0.4965212047100067 0.5464902520179749 
vt 0.48138725757598877 0.6199783086776733 
vt 0.47870221734046936 0.633576512336731 
vt 0.5117772221565247 0.5482261776924133 
vt 0.510678768157959 0.6231608390808105 
vt 0.5104346871376038 0.6370483636856079 
vt 0.5271552801132202 0.5469724535942078 
vt 0.539848268032074 0.6208462715148926 
vt 0.5422891974449158 0.6344444751739502 
vt 0.5419230461120605 0.5429219603538513 
vt 0.5681633949279785 0.6131309866905212 
vt 0.5730453133583069 0.6260541081428528 
vt 0.55583655834198 0.5362675189971924 
vt 0.5945257544517517 0.600304365158081 
vt 0.6017265915870667 0.6121665835380554 
vt 0.5681633949279785 0.5271056294441223 
vt 0.6180810332298279 0.5828485488891602 
vt 0.6273566484451294 0.5931677222251892 
vt 0.5785374641418457 0.5158220529556274 
vt 0.6379748582839966 0.561342179775238 
vt 0.6489591598510742 0.5697325468063354 
vt 0.5867146849632263 0.5028024911880493 
vt 0.6534749269485474 0.5365568399429321 
vt 0.6659238338470459 0.5427290797233582 
vt 0.5923289060592651 0.488529235124588 
vt 0.6642151474952698 0.5093604922294617 
vt 0.6775184273719788 0.5131216645240784 
vt 0.5952580571174622 0.47348442673683167 
vt 0.6695852875709534 0.4806210696697235 
vt 0.6833767294883728 0.4817783534526825 
vt 0.5952580571174622 0.45815029740333557 
vt 0.6695852875709534 0.45130300521850586 
vt 0.6833767294883728 0.4499528110027313 
vt 0.5924509167671204 0.4431055188179016 
vt 0.6642151474952698 0.4225635826587677 
vt 0.6775184273719788 0.41870594024658203 
vt 0.5868367552757263 0.4288322329521179 
vt 0.6535969972610474 0.39536720514297485 
vt 0.6659238338470459 0.38909855484962463 
vt 0.5787815451622009 0.4158127009868622 
vt 0.6380968689918518 0.37058189511299133 
vt 0.6490812301635742 0.3621915280818939 
vt 0.5684074759483337 0.4045291244983673 
vt 0.6183251142501831 0.3491719663143158 
vt 0.6274787187576294 0.33885279297828674 
vt 0.5560806393623352 0.39536720514297485 
vt 0.5948919057846069 0.3317161500453949 
vt 0.6019706726074219 0.3199503421783447 
vt 0.5424112677574158 0.3887127935886383 
vt 0.568651556968689 0.3189859390258789 
vt 0.5734114646911621 0.30606284737586975 
vt 0.5276434421539307 0.3846622705459595 
vt 0.5405805706977844 0.31127065420150757 
vt 0.5428994297981262 0.2977689206600189 
vt 0.5123874545097351 0.3834085464477539 
vt 0.5115331411361694 0.3089560866355896 
vt 0.5112890005111694 0.2951650321483612 
vt 0.49713146686553955 0.3850480318069458 
vt 0.48248568177223206 0.3120422065258026 
vt 0.47980064153671265 0.2985404431819916 
vt 0.48248568177223206 0.3893878757953644 
vt 0.45465874671936035 0.3204325735569 
vt 0.44941067695617676 0.30770236253738403 
vt 0.4689383804798126 0.39642807841300964 
vt 0.42878457903862 0.3338378667831421 
vt 0.42133966088294983 0.32236137986183167 
vt 0.4569776654243469 0.40587928891181946 
vt 0.4059616029262543 0.3517758846282959 
vt 0.39644184708595276 0.3418424725532532 
vt 0.4469697177410126 0.4172593355178833 
vt 0.386678010225296 0.37366798520088196 
vt 0.3755716383457184 0.3656633794307709 
vt 0.4391586482524872 0.4304717481136322 
vt 0.3719102144241333 0.3987426459789276 
vt 0.35946130752563477 0.3928597569465637 
vt 0.4339105784893036 0.4447450041770935 
vt 0.36202430725097656 0.42603546380996704 
vt 0.34872108697891235 0.4225635826587677 
vt 0.4314696192741394 0.45988625288009644 
vt 0.3570203483104706 0.4546784460544586 
vt 0.34347301721572876 0.45352113246917725 
vt 0.43195781111717224 0.47512391209602356 
vt 0.35689830780029297 0.484285831451416 
vt 0.34310686588287354 0.4848644733428955 
vt 0.1095070093870163 0.5103248953819275 
vt 0.11841651052236557 0.5210298299789429 
vt 0.03908531367778778 0.5588347315788269 
vt 0.05971142277121544 0.5814018845558167 
vt 0.027368703857064247 0.568671703338623 
vt 0.049581438302993774 0.5925890803337097 
vt 0.129400834441185 0.5298059582710266 
vt 0.08326669037342072 0.5998221635818481 
vt 0.07533356547355652 0.6124559044837952 
vt 0.14172768592834473 0.536363959312439 
vt 0.1095070093870163 0.6136131882667542 
vt 0.10389280319213867 0.6274042725563049 
vt 0.15503090620040894 0.5405109524726868 
vt 0.13782215118408203 0.6223893165588379 
vt 0.1347709447145462 0.6368554830551147 
vt 0.16894438862800598 0.5420539975166321 
vt 0.16711366176605225 0.6256683468818665 
vt 0.16686956584453583 0.6405202150344849 
vt 0.18285785615444183 0.5410895943641663 
vt 0.19652722775936127 0.6235466003417969 
vt 0.19896818697452545 0.6381092071533203 
vt 0.19628313183784485 0.537521243095398 
vt 0.22496441006660461 0.6160242557525635 
vt 0.2302124798297882 0.6299117207527161 
vt 0.208854079246521 0.5315418839454651 
vt 0.2515708804130554 0.6032940149307251 
vt 0.2592599093914032 0.6160242557525635 
vt 0.22020454704761505 0.5233443975448608 
vt 0.2752481997013092 0.5859346389770508 
vt 0.28513407707214355 0.5970253348350525 
vt 0.22972428798675537 0.513218104839325 
vt 0.29538610577583313 0.5645247101783752 
vt 0.3071027100086212 0.5734937191009521 
vt 0.23716922104358673 0.5015487670898438 
vt 0.3112523555755615 0.5397393703460693 
vt 0.3244335353374481 0.5463938117027283 
vt 0.24241727590560913 0.4886256754398346 
vt 0.32223665714263916 0.5124465823173523 
vt 0.3363942503929138 0.5165935754776001 
vt 0.24510233104228973 0.475027471780777 
vt 0.327850878238678 0.48370715975761414 
vt 0.3426186740398407 0.48505735397338867 
vt 0.24522438645362854 0.461139976978302 
vt 0.3280949890613556 0.4542926549911499 
vt 0.3428627848625183 0.45303893089294434 
vt 0.24278342723846436 0.4474453628063202 
vt 0.3229689598083496 0.42545682191848755 
vt 0.3371265232563019 0.4214062988758087 
vt 0.237901508808136 0.43452227115631104 
vt 0.3125948905944824 0.39806756377220154 
vt 0.325776070356369 0.3915095925331116 
vt 0.23070067167282104 0.4226600229740143 
vt 0.2973388731479645 0.37308934330940247 
vt 0.30905547738075256 0.36412033438682556 
vt 0.22142502665519714 0.41234081983566284 
vt 0.2776891589164734 0.351293683052063 
vt 0.28757503628730774 0.34039583802223206 
vt 0.2104407101869583 0.40395045280456543 
vt 0.25437799096107483 0.3336449861526489 
vt 0.2620670199394226 0.3211076557636261 
vt 0.19799180328845978 0.3977782428264618 
vt 0.22825971245765686 0.3205290138721466 
vt 0.23350778222084045 0.3068343698978424 
vt 0.18481062352657318 0.3940170407295227 
vt 0.20006662607192993 0.3125244081020355 
vt 0.20275168120861053 0.29805824160575867 
vt 0.17101919651031494 0.39266687631607056 
vt 0.17101919651031494 0.3099204897880554 
vt 0.17089715600013733 0.2951650321483612 
vt 0.1572277694940567 0.3940170407295227 
vt 0.14197178184986115 0.3126208484172821 
vt 0.13916467130184174 0.29825112223625183 
vt 0.1439245492219925 0.3977782428264618 
vt 0.11390073597431183 0.32072189450263977 
vt 0.10840857774019241 0.30712369084358215 
vt 0.13159769773483276 0.40395045280456543 
vt 0.08790451288223267 0.3338378667831421 
vt 0.07997139543294907 0.3214934170246124 
vt 0.12073542177677155 0.41234081983566284 
vt 0.06471539288759232 0.35158300399780273 
vt 0.05470745638012886 0.34087803959846497 
vt 0.11145977675914764 0.4225635826587677 
vt 0.04518771171569824 0.37328222393989563 
vt 0.03347110375761986 0.36460253596305847 
vt 0.1042589470744133 0.43432939052581787 
vt 0.03005376085639 0.3981640040874481 
vt 0.016872575506567955 0.3917989134788513 
vt 0.09937702119350433 0.447252482175827 
vt 0.019801728427410126 0.42536038160324097 
vt 0.005766207817941904 0.4215027391910553 
vt 0.09705810993909836 0.46085065603256226 
vt 0.014675712212920189 0.45400333404541016 
vt 0.00015199999324977398 0.4527496099472046 
vt 0.09718015789985657 0.47454527020454407 
vt 0.01455366425216198 0.48312851786613464 
vt 0.00015199999324977398 0.484285831451416 
vt 0.09986521303653717 0.4881434738636017 
vt 0.01931353658437729 0.5123501420021057 
vt 0.0049118720926344395 0.5153398513793945 
vt 0.00015199999324977398 0.2948756814002991 
vt 0.00015199999324977398 0.00015199999324977398 
vt 0.0313962884247303 0.2948756814002991 
vt 0.0313962884247303 0.00015199999324977398 
vt 0.06264057755470276 0.2948756814002991 
vt 0.06264057755470276 0.00015199999324977398 
vt 0.09388486295938492 0.2948756814002991 
vt 0.09388486295938492 0.00015199999324977398 
vt 0.12512914836406708 0.2948756814002991 
vt 0.12512914836406708 0.00015199999324977398 
vt 0.15637344121932983 0.2948756814002991 
vt 0.15637344121932983 0.00015199999324977398 
vt 0.1876177340745926 0.2948756814002991 
vt 0.1876177340745926 0.00015199999324977398 
vt 0.21886201202869415 0.2948756814002991 
vt 0.21886201202869415 0.00015199999324977398 
vt 0.2501063048839569 0.2948756814002991 
vt 0.2501063048839569 0.00015199999324977398 
vt 0.28135058283805847 0.2948756814002991 
vt 0.28135058283805847 0.00015199999324977398 
vt 0.3125948905944824 0.2948756814002991 
vt 0.3125948905944824 0.00015199999324977398 
vt 0.343839168548584 0.2948756814002991 
vt 0.343839168548584 0.00015199999324977398 
vt 0.37508344650268555 0.2948756814002991 
vt 0.37508344650268555 0.00015199999324977398 
vt 0.4063277542591095 0.2948756814002991 
vt 0.4063277542591095 0.00015199999324977398 
vt 0.43757203221321106 0.2948756814002991 
vt 0.43757203221321106 0.00015199999324977398 
vt 0.4688163101673126 0.2948756814002991 
vt 0.4688163101673126 0.00015199999324977398 
vt 0.5000606179237366 0.2948756814002991 
vt 0.4999385476112366 0.00015199999324977398 
vt 0.5311828255653381 0.2948756814002991 
vt 0.5311828255653381 0.00015199999324977398 
vt 0.5624271631240845 0.2948756814002991 
vt 0.5624271631240845 0.00015199999324977398 
vt 0.593671441078186 0.2948756814002991 
vt 0.593671441078186 0.00015199999324977398 
vt 0.6249157190322876 0.2948756814002991 
vt 0.6249157190322876 0.00015199999324977398 
vt 0.6561599969863892 0.2948756814002991 
vt 0.6561599969863892 0.00015199999324977398 
vt 0.6874042749404907 0.2948756814002991 
vt 0.6874042749404907 0.00015199999324977398 
vt 0.7186485528945923 0.2948756814002991 
vt 0.7186485528945923 0.00015199999324977398 
vt 0.7498928904533386 0.2948756814002991 
vt 0.7498928904533386 0.00015199999324977398 
vt 0.7811371684074402 0.2948756814002991 
vt 0.7811371684074402 0.00015199999324977398 
vt 0.8123814463615417 0.2948756814002991 
vt 0.8123814463615417 0.00015199999324977398 
vt 0.8436257243156433 0.2948756814002991 
vt 0.8436257243156433 0.00015199999324977398 
vt 0.8748700022697449 0.2948756814002991 
vt 0.8748700022697449 0.00015199999324977398 
vt 0.9061142802238464 0.2948756814002991 
vt 0.9061142802238464 0.00015199999324977398 
vt 0.9373586177825928 0.2948756814002991 
vt 0.9373586177825928 0.00015199999324977398 
vt 0.9686028957366943 0.2948756814002991 
vt 0.9686028957366943 0.00015199999324977398 
vt 0.9998471736907959 0.2948756814002991 
vt 0.9998471736907959 0.00015199999324977398 
vt 0.4872455596923828 0.749884307384491 
vt 0.478824257850647 0.7624216675758362 
vt 0.4195089340209961 0.7137189507484436 
vt 0.4682060778141022 0.773030161857605 
vt 0.45575717091560364 0.7814205288887024 
vt 0.441843718290329 0.7872070074081421 
vt 0.42707589268684387 0.7901002168655396 
vt 0.41206398606300354 0.7901002168655396 
vt 0.3972961902618408 0.7872070074081421 
vt 0.3833827078342438 0.7814205288887024 
vt 0.37081179022789 0.773030161857605 
vt 0.3601936101913452 0.7624216675758362 
vt 0.351894348859787 0.749884307384491 
vt 0.34603604674339294 0.7359968423843384 
vt 0.34310686588287354 0.7212413549423218 
vt 0.34310686588287354 0.7061965465545654 
vt 0.34603604674339294 0.6914410591125488 
vt 0.351894348859787 0.6775535941123962 
vt 0.3601936101913452 0.665016233921051 
vt 0.37081179022789 0.6544077396392822 
vt 0.3833827078342438 0.6460173726081848 
vt 0.3972961902618408 0.6402308940887451 
vt 0.41206398606300354 0.6373376846313477 
vt 0.42707589268684387 0.6373376846313477 
vt 0.441843718290329 0.6402308940887451 
vt 0.45575717091560364 0.6460173726081848 
vt 0.4682060778141022 0.6544077396392822 
vt 0.478824257850647 0.665016233921051 
vt 0.4872455596923828 0.6775535941123962 
vt 0.49298182129859924 0.6914410591125488 
vt 0.49591097235679626 0.7061965465545654 
vt 0.49591097235679626 0.7212413549423218 
vt 0.49298182129859924 0.7359968423843384 
vt 0.6090494990348816 0.6526718139648438 
vt 0.6185691952705383 0.6623159050941467 
vt 0.5651121735572815 0.7061965465545654 
vt 0.6261361837387085 0.6735994815826416 
vt 0.6312621831893921 0.6861368417739868 
vt 0.6339472532272339 0.6994456648826599 
vt 0.6339472532272339 0.712947428226471 
vt 0.6312621831893921 0.7262563109397888 
vt 0.6261361837387085 0.7387936115264893 
vt 0.6185691952705383 0.7500771880149841 
vt 0.6090494990348816 0.7597213387489319 
vt 0.597698986530304 0.7672437429428101 
vt 0.5851280689239502 0.7724515199661255 
vt 0.571824848651886 0.7750554084777832 
vt 0.5582774877548218 0.7750554084777832 
vt 0.5449742674827576 0.7724515199661255 
vt 0.532525360584259 0.7672437429428101 
vt 0.5211749076843262 0.7597213387489319 
vt 0.5116551518440247 0.7500771880149841 
vt 0.5040881633758545 0.7387936115264893 
vt 0.4988401234149933 0.7262563109397888 
vt 0.4962771236896515 0.712947428226471 
vt 0.4962771236896515 0.6994456648826599 
vt 0.4988401234149933 0.6861368417739868 
vt 0.5040881633758545 0.6735994815826416 
vt 0.5116551518440247 0.6623159050941467 
vt 0.5211749076843262 0.6526718139648438 
vt 0.532525360584259 0.6451494097709656 
vt 0.5449742674827576 0.6399415731430054 
vt 0.5582774877548218 0.6373376846313477 
vt 0.571824848651886 0.6373376846313477 
vt 0.5851280689239502 0.6399415731430054 
vt 0.597698986530304 0.6451494097709656 
s on 
f 1/1/1 2/2/2 3/3/3 
f 2/2/2 4/4/4 3/3/3 
f 3/3/3 4/4/4 5/5/5 
f 4/4/4 6/6/6 5/5/5 
f 5/5/5 6/6/6 6/6/6 
f 6/6/6 2/2/2 6/6/6 
f 6/6/6 2/2/2 2/2/2 
f 2/2/2 7/7/7 2/2/2 
f 2/2/2 7/7/7 4/4/4 
f 7/7/7 8/8/8 4/4/4 
f 4/4/4 8/8/8 6/6/6 
f 8/8/8 9/9/9 6/6/6 
f 6/6/6 9/9/9 9/9/9 
f 9/9/9 7/7/7 9/9/9 
f 9/9/9 7/7/7 7/7/7 
f 7/7/7 10/10/10 7/7/7 
f 7/7/7 10/10/10 8/8/8 
f 10/10/10 11/11/11 8/8/8 
f 8/8/8 11/11/11 9/9/9 
f 11/11/11 12/12/12 9/9/9 
f 9/9/9 12/12/12 12/12/12 
f 12/12/12 10/10/10 12/12/12 
f 12/12/12 10/10/10 10/10/10 
f 10/10/10 13/13/13 10/10/10 
f 10/10/10 13/13/13 11/11/11 
f 13/13/13 14/14/14 11/11/11 
f 11/11/11 14/14/14 12/12/12 
f 14/14/14 15/15/15 12/12/12 
f 12/12/12 15/15/15 15/15/15 
f 15/15/15 13/13/13 15/15/15 
f 15/15/15 13/13/13 13/13/13 
f 13/13/13 16/16/16 13/13/13 
f 13/13/13 16/16/16 14/14/14 
f 16/16/16 17/17/17 14/14/14 
f 14/14/14 17/17/17 15/15/15 
f 17/17/17 18/18/18 15/15/15 
f 15/15/15 18/18/18 18/18/18 
f 18/18/18 16/16/16 18/18/18 
f 18/18/18 16/16/16 16/16/16 
f 16/16/16 19/19/19 16/16/16 
f 16/16/16 19/19/19 17/17/17 
f 19/19/19 20/20/20 17/17/17 
f 17/17/17 20/20/20 18/18/18 
f 20/20/20 21/21/21 18/18/18 
f 18/18/18 21/21/21 21/21/21 
f 21/21/21 19/19/19 21/21/21 
f 21/21/21 19/19/19 19/19/19 
f 19/19/19 22/22/22 19/19/19 
f 19/19/19 22/22/22 20/20/20 
f 22/22/22 23/23/23 20/20/20 
f 20/20/20 23/23/23 21/21/21 
f 23/23/23 24/24/24 21/21/21 
f 21/21/21 24/24/24 24/24/24 
f 24/24/24 22/22/22 24/24/24 
f 24/24/24 22/22/22 22/22/22 
f 22/22/22 25/25/25 22/22/22 
f 22/22/22 25/25/25 23/23/23 
f 25/25/25 26/26/26 23/23/23 
f 23/23/23 26/26/26 24/24/24 
f 26/26/26 27/27/27 24/24/24 
f 24/24/24 27/27/27 27/27/27 
f 27/27/27 25/25/25 27/27/27 
f 27/27/27 25/25/25 25/25/25 
f 25/25/25 28/28/28 25/25/25 
f 25/25/25 28/28/28 26/26/26 
f 28/28/28 29/29/29 26/26/26 
f 26/26/26 29/29/29 27/27/27 
f 29/29/29 30/30/30 27/27/27 
f 27/27/27 30/30/30 30/30/30 
f 30/30/30 28/28/28 30/30/30 
f 30/30/30 28/28/28 28/28/28 
f 28/28/28 31/31/31 28/28/28 
f 28/28/28 31/31/31 29/29/29 
f 31/31/31 32/32/32 29/29/29 
f 29/29/29 32/32/32 30/30/30 
f 32/32/32 33/33/33 30/30/30 
f 30/30/30 33/33/33 33/33/33 
f 33/33/33 31/31/31 33/33/33 
f 33/33/33 31/31/31 31/31/31 
f 31/31/31 34/34/34 31/31/31 
f 31/31/31 34/34/34 32/32/32 
f 34/34/34 35/35/35 32/32/32 
f 32/32/32 35/35/35 33/33/33 
f 35/35/35 36/36/36 33/33/33 
f 33/33/33 36/36/36 36/36/36 
f 36/36/36 34/34/34 36/36/36 
f 36/36/36 34/34/34 34/34/34 
f 34/34/34 37/37/37 34/34/34 
f 34/34/34 37/37/37 35/35/35 
f 37/37/37 38/38/38 35/35/35 
f 35/35/35 38/38/38 36/36/36 
f 38/38/38 39/39/39 36/36/36 
f 36/36/36 39/39/39 39/39/39 
f 39/39/39 37/37/37 39/39/39 
f 39/39/39 37/37/37 37/37/37 
f 37/37/37 40/40/40 37/37/37 
f 37/37/37 40/40/40 38/38/38 
f 40/40/40 41/41/41 38/38/38 
f 38/38/38 41/41/41 39/39/39 
f 41/41/41 42/42/42 39/39/39 
f 39/39/39 42/42/42 42/42/42 
f 42/42/42 40/40/40 42/42/42 
f 42/42/42 40/40/40 40/40/40 
f 40/40/40 43/43/43 40/40/40 
f 40/40/40 43/43/43 41/41/41 
f 43/43/43 44/44/44 41/41/41 
f 41/41/41 44/44/44 42/42/42 
f 44/44/44 45/45/45 42/42/42 
f 42/42/42 45/45/45 45/45/45 
f 45/45/45 43/43/43 45/45/45 
f 45/45/45 43/43/43 43/43/43 
f 43/43/43 46/46/46 43/43/43 
f 43/43/43 46/46/46 44/44/44 
f 46/46/46 47/47/47 44/44/44 
f 44/44/44 47/47/47 45/45/45 
f 47/47/47 48/48/48 45/45/45 
f 45/45/45 48/48/48 48/48/48 
f 48/48/48 46/46/46 48/48/48 
f 48/48/48 46/46/46 46/46/46 
f 46/46/46 49/49/49 46/46/46 
f 46/46/46 49/49/49 47/47/47 
f 49/49/49 50/50/50 47/47/47 
f 47/47/47 50/50/50 48/48/48 
f 50/50/50 51/51/51 48/48/48 
f 48/48/48 51/51/51 51/51/51 
f 51/51/51 49/49/49 51/51/51 
f 51/51/51 49/49/49 49/49/49 
f 49/49/49 52/52/52 49/49/49 
f 49/49/49 52/52/52 50/50/50 
f 52/52/52 53/53/53 50/50/50 
f 50/50/50 53/53/53 51/51/51 
f 53/53/53 54/54/54 51/51/51 
f 51/51/51 54/54/54 54/54/54 
f 54/54/54 52/52/52 54/54/54 
f 54/54/54 52/52/52 52/52/52 
f 52/52/52 55/55/55 52/52/52 
f 52/52/52 55/55/55 53/53/53 
f 55/55/55 56/56/56 53/53/53 
f 53/53/53 56/56/56 54/54/54 
f 56/56/56 57/57/57 54/54/54 
f 54/54/54 57/57/57 57/57/57 
f 57/57/57 55/55/55 57/57/57 
f 57/57/57 55/55/55 55/55/55 
f 55/55/55 58/58/58 55/55/55 
f 55/55/55 58/58/58 56/56/56 
f 58/58/58 59/59/59 56/56/56 
f 56/56/56 59/59/59 57/57/57 
f 59/59/59 60/60/60 57/57/57 
f 57/57/57 60/60/60 60/60/60 
f 60/60/60 58/58/58 60/60/60 
f 60/60/60 58/58/58 58/58/58 
f 58/58/58 61/61/61 58/58/58 
f 58/58/58 61/61/61 59/59/59 
f 61/61/61 62/62/62 59/59/59 
f 59/59/59 62/62/62 60/60/60 
f 62/62/62 63/63/63 60/60/60 
f 60/60/60 63/63/63 63/63/63 
f 63/63/63 61/61/61 63/63/63 
f 63/63/63 61/61/61 61/61/61 
f 61/61/61 64/64/64 61/61/61 
f 61/61/61 64/64/64 62/62/62 
f 64/64/64 65/65/65 62/62/62 
f 62/62/62 65/65/65 63/63/63 
f 65/65/65 66/66/66 63/63/63 
f 63/63/63 66/66/66 66/66/66 
f 66/66/66 64/64/64 66/66/66 
f 66/66/66 64/64/64 64/64/64 
f 64/64/64 67/67/67 64/64/64 
f 64/64/64 67/67/67 65/65/65 
f 67/67/67 68/68/68 65/65/65 
f 65/65/65 68/68/68 66/66/66 
f 68/68/68 69/69/69 66/66/66 
f 66/66/66 69/69/69 69/69/69 
f 69/69/69 67/67/67 69/69/69 
f 69/69/69 67/67/67 67/67/67 
f 67/67/67 70/70/70 67/67/67 
f 67/67/67 70/70/70 68/68/68 
f 70/70/70 71/71/71 68/68/68 
f 68/68/68 71/71/71 69/69/69 
f 71/71/71 72/72/72 69/69/69 
f 69/69/69 72/72/72 72/72/72 
f 72/72/72 70/70/70 72/72/72 
f 72/72/72 70/70/70 70/70/70 
f 70/70/70 73/73/73 70/70/70 
f 70/70/70 73/73/73 71/71/71 
f 73/73/73 74/74/74 71/71/71 
f 71/71/71 74/74/74 72/72/72 
f 74/74/74 75/75/75 72/72/72 
f 72/72/72 75/75/75 75/75/75 
f 75/75/75 73/73/73 75/75/75 
f 75/75/75 73/73/73 73/73/73 
f 73/73/73 76/76/76 73/73/73 
f 73/73/73 76/76/76 74/74/74 
f 76/76/76 77/77/77 74/74/74 
f 74/74/74 77/77/77 75/75/75 
f 77/77/77 78/78/78 75/75/75 
f 75/75/75 78/78/78 78/78/78 
f 78/78/78 76/76/76 78/78/78 
f 78/78/78 76/76/76 76/76/76 
f 76/76/76 79/79/79 76/76/76 
f 76/76/76 79/79/79 77/77/77 
f 79/79/79 80/80/80 77/77/77 
f 77/77/77 80/80/80 78/78/78 
f 80/80/80 81/81/81 78/78/78 
f 78/78/78 81/81/81 81/81/81 
f 81/81/81 79/79/79 81/81/81 
f 81/81/81 79/79/79 79/79/79 
f 79/79/79 82/82/82 79/79/79 
f 79/79/79 82/82/82 80/80/80 
f 82/82/82 83/83/83 80/80/80 
f 80/80/80 83/83/83 81/81/81 
f 83/83/83 84/84/84 81/81/81 
f 81/81/81 84/84/84 84/84/84 
f 84/84/84 82/82/82 84/84/84 
f 84/84/84 82/82/82 82/82/82 
f 82/82/82 85/85/85 82/82/82 
f 82/82/82 85/85/85 83/83/83 
f 85/85/85 86/86/86 83/83/83 
f 83/83/83 86/86/86 84/84/84 
f 86/86/86 87/87/87 84/84/84 
f 84/84/84 87/87/87 87/87/87 
f 87/87/87 85/85/85 87/87/87 
f 87/87/87 85/85/85 85/85/85 
f 85/85/85 88/88/88 85/85/85 
f 85/85/85 88/88/88 86/86/86 
f 88/88/88 89/89/89 86/86/86 
f 86/86/86 89/89/89 87/87/87 
f 89/89/89 90/90/90 87/87/87 
f 87/87/87 90/90/90 90/90/90 
f 90/90/90 88/88/88 90/90/90 
f 90/90/90 88/88/88 88/88/88 
f 88/88/88 91/91/91 88/88/88 
f 88/88/88 91/91/91 89/89/89 
f 91/91/91 92/92/92 89/89/89 
f 89/89/89 92/92/92 90/90/90 
f 92/92/92 93/93/93 90/90/90 
f 90/90/90 93/93/93 93/93/93 
f 93/93/93 91/91/91 93/93/93 
f 93/93/93 91/91/91 91/91/91 
f 91/91/91 94/94/94 91/91/91 
f 91/91/91 94/94/94 92/92/92 
f 94/94/94 95/95/95 92/92/92 
f 92/92/92 95/95/95 93/93/93 
f 95/95/95 96/96/96 93/93/93 
f 93/93/93 96/96/96 96/96/96 
f 96/96/96 94/94/94 96/96/96 
f 96/96/96 94/94/94 94/94/94 
f 94/94/94 97/97/97 94/94/94 
f 94/94/94 97/97/97 95/95/95 
f 97/97/97 98/98/98 95/95/95 
f 95/95/95 98/98/98 96/96/96 
f 98/98/98 99/99/99 96/96/96 
f 96/96/96 99/99/99 99/99/99 
f 99/99/99 100/100/100 99/99/99 
f 99/99/99 100/100/100 100/100/100 
f 100/100/100 101/101/101 100/100/100 
f 100/100/100 101/101/101 102/102/102 
f 101/101/101 103/103/103 102/102/102 
f 102/102/102 103/103/103 104/104/104 
f 103/103/103 105/105/105 104/104/104 
f 104/104/104 105/105/105 105/105/105 
f 105/105/105 101/101/101 105/105/105 
f 105/105/105 101/101/101 101/101/101 
f 101/101/101 106/106/106 101/101/101 
f 101/101/101 106/106/106 103/103/103 
f 106/106/106 107/107/107 103/103/103 
f 103/103/103 107/107/107 105/105/105 
f 107/107/107 108/108/108 105/105/105 
f 105/105/105 108/108/108 108/108/108 
f 108/108/108 106/106/106 108/108/108 
f 108/108/108 106/106/106 106/106/106 
f 106/106/106 109/109/109 106/106/106 
f 106/106/106 109/109/109 107/107/107 
f 109/109/109 110/110/110 107/107/107 
f 107/107/107 110/110/110 108/108/108 
f 110/110/110 111/111/111 108/108/108 
f 108/108/108 111/111/111 111/111/111 
f 111/111/111 109/109/109 111/111/111 
f 111/111/111 109/109/109 109/109/109 
f 109/109/109 112/112/112 109/109/109 
f 109/109/109 112/112/112 110/110/110 
f 112/112/112 113/113/113 110/110/110 
f 110/110/110 113/113/113 111/111/111 
f 113/113/113 114/114/114 111/111/111 
f 111/111/111 114/114/114 114/114/114 
f 114/114/114 112/112/112 114/114/114 
f 114/114/114 112/112/112 112/112/112 
f 112/112/112 115/115/115 112/112/112 
f 112/112/112 115/115/115 113/113/113 
f 115/115/115 116/116/116 113/113/113 
f 113/113/113 116/116/116 114/114/114 
f 116/116/116 117/117/117 114/114/114 
f 114/114/114 117/117/117 117/117/117 
f 117/117/117 115/115/115 117/117/117 
f 117/117/117 115/115/115 115/115/115 
f 115/115/115 118/118/118 115/115/115 
f 115/115/115 118/118/118 116/116/116 
f 118/118/118 119/119/119 116/116/116 
f 116/116/116 119/119/119 117/117/117 
f 119/119/119 120/120/120 117/117/117 
f 117/117/117 120/120/120 120/120/120 
f 120/120/120 118/118/118 120/120/120 
f 120/120/120 118/118/118 118/118/118 
f 118/118/118 121/121/121 118/118/118 
f 118/118/118 121/121/121 119/119/119 
f 121/121/121 122/122/122 119/119/119 
f 119/119/119 122/122/122 120/120/120 
f 122/122/122 123/123/123 120/120/120 
f 120/120/120 123/123/123 123/123/123 
f 123/123/123 121/121/121 123/123/123 
f 123/123/123 121/121/121 121/121/121 
f 121/121/121 124/124/124 121/121/121 
f 121/121/121 124/124/124 122/122/122 
f 124/124/124 125/125/125 122/122/122 
f 122/122/122 125/125/125 123/123/123 
f 125/125/125 126/126/126 123/123/123 
f 123/123/123 126/126/126 126/126/126 
f 126/126/126 124/124/124 126/126/126 
f 126/126/126 124/124/124 124/124/124 
f 124/124/124 127/127/127 124/124/124 
f 124/124/124 127/127/127 125/125/125 
f 127/127/127 128/128/128 125/125/125 
f 125/125/125 128/128/128 126/126/126 
f 128/128/128 129/129/129 126/126/126 
f 126/126/126 129/129/129 129/129/129 
f 129/129/129 127/127/127 129/129/129 
f 129/129/129 127/127/127 127/127/127 
f 127/127/127 130/130/130 127/127/127 
f 127/127/127 130/130/130 128/128/128 
f 130/130/130 131/131/131 128/128/128 
f 128/128/128 131/131/131 129/129/129 
f 131/131/131 132/132/132 129/129/129 
f 129/129/129 132/132/132 132/132/132 
f 132/132/132 130/130/130 132/132/132 
f 132/132/132 130/130/130 130/130/130 
f 130/130/130 133/133/133 130/130/130 
f 130/130/130 133/133/133 131/131/131 
f 133/133/133 134/134/134 131/131/131 
f 131/131/131 134/134/134 132/132/132 
f 134/134/134 135/135/135 132/132/132 
f 132/132/132 135/135/135 135/135/135 
f 135/135/135 133/133/133 135/135/135 
f 135/135/135 133/133/133 133/133/133 
f 133/133/133 136/136/136 133/133/133 
f 133/133/133 136/136/136 134/134/134 
f 136/136/136 137/137/137 134/134/134 
f 134/134/134 137/137/137 135/135/135 
f 137/137/137 138/138/138 135/135/135 
f 135/135/135 138/138/138 138/138/138 
f 138/138/138 136/136/136 138/138/138 
f 138/138/138 136/136/136 136/136/136 
f 136/136/136 139/139/139 136/136/136 
f 136/136/136 139/139/139 137/137/137 
f 139/139/139 140/140/140 137/137/137 
f 137/137/137 140/140/140 138/138/138 
f 140/140/140 141/141/141 138/138/138 
f 138/138/138 141/141/141 141/141/141 
f 141/141/141 139/139/139 141/141/141 
f 141/141/141 139/139/139 139/139/139 
f 139/139/139 142/142/142 139/139/139 
f 139/139/139 142/142/142 140/140/140 
f 142/142/142 143/143/143 140/140/140 
f 140/140/140 143/143/143 141/141/141 
f 143/143/143 144/144/144 141/141/141 
f 141/141/141 144/144/144 144/144/144 
f 144/144/144 142/142/142 144/144/144 
f 144/144/144 142/142/142 142/142/142 
f 142/142/142 145/145/145 142/142/142 
f 142/142/142 145/145/145 143/143/143 
f 145/145/145 146/146/146 143/143/143 
f 143/143/143 146/146/146 144/144/144 
f 146/146/146 147/147/147 144/144/144 
f 144/144/144 147/147/147 147/147/147 
f 147/147/147 145/145/145 147/147/147 
f 147/147/147 145/145/145 145/145/145 
f 145/145/145 148/148/148 145/145/145 
f 145/145/145 148/148/148 146/146/146 
f 148/148/148 149/149/149 146/146/146 
f 146/146/146 149/149/149 147/147/147 
f 149/149/149 150/150/150 147/147/147 
f 147/147/147 150/150/150 150/150/150 
f 150/150/150 148/148/148 150/150/150 
f 150/150/150 148/148/148 148/148/148 
f 148/148/148 151/151/151 148/148/148 
f 148/148/148 151/151/151 149/149/149 
f 151/151/151 152/152/152 149/149/149 
f 149/149/149 152/152/152 150/150/150 
f 152/152/152 153/153/153 150/150/150 
f 150/150/150 153/153/153 153/153/153 
f 153/153/153 151/151/151 153/153/153 
f 153/153/153 151/151/151 151/151/151 
f 151/151/151 154/154/154 151/151/151 
f 151/151/151 154/154/154 152/152/152 
f 154/154/154 155/155/155 152/152/152 
f 152/152/152 155/155/155 153/153/153 
f 155/155/155 156/156/156 153/153/153 
f 153/153/153 156/156/156 156/156/156 
f 156/156/156 154/154/154 156/156/156 
f 156/156/156 154/154/154 154/154/154 
f 154/154/154 157/157/157 154/154/154 
f 154/154/154 157/157/157 155/155/155 
f 157/157/157 158/158/158 155/155/155 
f 155/155/155 158/158/158 156/156/156 
f 158/158/158 159/159/159 156/156/156 
f 156/156/156 159/159/159 159/159/159 
f 159/159/159 157/157/157 159/159/159 
f 159/159/159 157/157/157 157/157/157 
f 157/157/157 160/160/160 157/157/157 
f 157/157/157 160/160/160 158/158/158 
f 160/160/160 161/161/161 158/158/158 
f 158/158/158 161/161/161 159/159/159 
f 161/161/161 162/162/162 159/159/159 
f 159/159/159 162/162/162 162/162/162 
f 162/162/162 160/160/160 162/162/162 
f 162/162/162 160/160/160 160/160/160 
f 160/160/160 163/163/163 160/160/160 
f 160/160/160 163/163/163 161/161/161 
f 163/163/163 164/164/164 161/161/161 
f 161/161/161 164/164/164 162/162/162 
f 164/164/164 165/165/165 162/162/162 
f 162/162/162 165/165/165 165/165/165 
f 165/165/165 163/163/163 165/165/165 
f 165/165/165 163/163/163 163/163/163 
f 163/163/163 166/166/166 163/163/163 
f 163/163/163 166/166/166 164/164/164 
f 166/166/166 167/167/167 164/164/164 
f 164/164/164 167/167/167 165/165/165 
f 167/167/167 168/168/168 165/165/165 
f 165/165/165 168/168/168 168/168/168 
f 168/168/168 166/166/166 168/168/168 
f 168/168/168 166/166/166 166/166/166 
f 166/166/166 169/169/169 166/166/166 
f 166/166/166 169/169/169 167/167/167 
f 169/169/169 170/170/170 167/167/167 
f 167/167/167 170/170/170 168/168/168 
f 170/170/170 171/171/171 168/168/168 
f 168/168/168 171/171/171 171/171/171 
f 171/171/171 169/169/169 171/171/171 
f 171/171/171 169/169/169 169/169/169 
f 169/169/169 172/172/172 169/169/169 
f 169/169/169 172/172/172 170/170/170 
f 172/172/172 173/173/173 170/170/170 
f 170/170/170 173/173/173 171/171/171 
f 173/173/173 174/174/174 171/171/171 
f 171/171/171 174/174/174 174/174/174 
f 174/174/174 172/172/172 174/174/174 
f 174/174/174 172/172/172 172/172/172 
f 172/172/172 175/175/175 172/172/172 
f 172/172/172 175/175/175 173/173/173 
f 175/175/175 176/176/176 173/173/173 
f 173/173/173 176/176/176 174/174/174 
f 176/176/176 177/177/177 174/174/174 
f 174/174/174 177/177/177 177/177/177 
f 177/177/177 175/175/175 177/177/177 
f 177/177/177 175/175/175 175/175/175 
f 175/175/175 178/178/178 175/175/175 
f 175/175/175 178/178/178 176/176/176 
f 178/178/178 179/179/179 176/176/176 
f 176/176/176 179/179/179 177/177/177 
f 179/179/179 180/180/180 177/177/177 
f 177/177/177 180/180/180 180/180/180 
f 180/180/180 178/178/178 180/180/180 
f 180/180/180 178/178/178 178/178/178 
f 178/178/178 181/181/181 178/178/178 
f 178/178/178 181/181/181 179/179/179 
f 181/181/181 182/182/182 179/179/179 
f 179/179/179 182/182/182 180/180/180 
f 182/182/182 183/183/183 180/180/180 
f 180/180/180 183/183/183 183/183/183 
f 183/183/183 181/181/181 183/183/183 
f 183/183/183 181/181/181 181/181/181 
f 181/181/181 184/184/184 181/181/181 
f 181/181/181 184/184/184 182/182/182 
f 184/184/184 185/185/185 182/182/182 
f 182/182/182 185/185/185 183/183/183 
f 185/185/185 186/186/186 183/183/183 
f 183/183/183 186/186/186 186/186/186 
f 186/186/186 184/184/184 186/186/186 
f 186/186/186 184/184/184 184/184/184 
f 184/184/184 187/187/187 184/184/184 
f 184/184/184 187/187/187 185/185/185 
f 187/187/187 188/188/188 185/185/185 
f 185/185/185 188/188/188 186/186/186 
f 188/188/188 189/189/189 186/186/186 
f 186/186/186 189/189/189 189/189/189 
f 189/189/189 187/187/187 189/189/189 
f 189/189/189 187/187/187 187/187/187 
f 187/187/187 190/190/190 187/187/187 
f 187/187/187 190/190/190 188/188/188 
f 190/190/190 191/191/191 188/188/188 
f 188/188/188 191/191/191 189/189/189 
f 191/191/191 192/192/192 189/189/189 
f 189/189/189 192/192/192 192/192/192 
f 192/192/192 190/190/190 192/192/192 
f 192/192/192 190/190/190 190/190/190 
f 190/190/190 193/193/193 190/190/190 
f 190/190/190 193/193/193 191/191/191 
f 193/193/193 194/194/194 191/191/191 
f 191/191/191 194/194/194 192/192/192 
f 194/194/194 195/195/195 192/192/192 
f 192/192/192 195/195/195 195/195/195 
f 195/195/195 193/193/193 195/195/195 
f 195/195/195 193/193/193 193/193/193 
f 193/193/193 196/196/196 193/193/193 
f 193/193/193 196/196/196 194/194/194 
f 196/196/196 197/197/197 194/194/194 
f 194/194/194 197/197/197 195/195/195 
f 197/197/197 198/198/198 195/195/195 
f 195/195/195 198/198/198 198/198/198 
f 198/198/198 199/199/199 198/198/198 
f 198/198/198 199/199/199 199/199/199 
f 199/199/199 200/200/200 199/199/199 
f 199/199/199 200/200/200 201/201/201 
f 200/200/200 202/202/202 201/201/201 
f 201/201/201 202/202/202 203/203/203 
f 202/202/202 204/204/204 203/203/203 
f 203/203/203 204/204/204 205/205/205 
f 204/204/204 206/206/206 205/205/205 
f 205/205/205 206/206/206 207/207/207 
f 206/206/206 208/208/208 207/207/207 
f 207/207/207 208/208/208 209/209/209 
f 208/208/208 210/210/210 209/209/209 
f 209/209/209 210/210/210 211/211/211 
f 210/210/210 212/212/212 211/211/211 
f 211/211/211 212/212/212 213/213/213 
f 212/212/212 214/214/214 213/213/213 
f 213/213/213 214/214/214 215/215/215 
f 214/214/214 216/216/216 215/215/215 
f 215/215/215 216/216/216 217/217/217 
f 216/216/216 218/218/218 217/217/217 
f 217/217/217 218/218/218 219/219/219 
f 218/218/218 220/220/220 219/219/219 
f 219/219/219 220/220/220 221/221/221 
f 220/220/220 222/222/222 221/221/221 
f 221/221/221 222/222/222 223/223/223 
f 222/222/222 224/224/224 223/223/223 
f 223/223/223 224/224/224 225/225/225 
f 224/224/224 226/226/226 225/225/225 
f 225/225/225 226/226/226 227/227/227 
f 226/226/226 228/228/228 227/227/227 
f 227/227/227 228/228/228 229/229/229 
f 228/228/228 230/230/230 229/229/229 
f 229/229/229 230/230/230 231/231/231 
f 230/230/230 232/232/232 231/231/231 
f 231/231/231 232/232/232 233/233/233 
f 232/232/232 234/234/234 233/233/233 
f 233/233/233 234/234/234 235/235/235 
f 234/234/234 236/236/236 235/235/235 
f 235/235/235 236/236/236 237/237/237 
f 236/236/236 238/238/238 237/237/237 
f 237/237/237 238/238/238 239/239/239 
f 238/238/238 240/240/240 239/239/239 
f 239/239/239 240/240/240 241/241/241 
f 240/240/240 242/242/242 241/241/241 
f 241/241/241 242/242/242 243/243/243 
f 242/242/242 244/244/244 243/243/243 
f 243/243/243 244/244/244 245/245/245 
f 244/244/244 246/246/246 245/245/245 
f 245/245/245 246/246/246 247/247/247 
f 246/246/246 248/248/248 247/247/247 
f 247/247/247 248/248/248 249/249/249 
f 248/248/248 250/250/250 249/249/249 
f 249/249/249 250/250/250 251/251/251 
f 250/250/250 252/252/252 251/251/251 
f 251/251/251 252/252/252 253/253/253 
f 252/252/252 254/254/254 253/253/253 
f 253/253/253 254/254/254 255/255/255 
f 254/254/254 256/256/256 255/255/255 
f 255/255/255 256/256/256 257/257/257 
f 256/256/256 258/258/258 257/257/257 
f 257/257/257 258/258/258 259/259/259 
f 258/258/258 260/260/260 259/259/259 
f 259/259/259 260/260/260 261/261/261 
f 260/260/260 262/262/262 261/261/261 
f 261/261/261 262/262/262 263/263/263 
f 262/262/262 264/264/264 263/263/263 
f 263/263/263 264/264/264 264/264/264 
f 264/264/264 265/265/265 264/264/264 
f 264/264/264 265/265/265 265/265/265 
f 265/265/265 266/266/266 265/265/265 
f 265/265/265 266/266/266 267/267/267 
f 266/266/266 268/268/268 267/267/267 
f 267/267/267 268/268/268 269/269/269 
f 268/268/268 269/269/269 269/269/269 
f 269/269/269 269/269/269 269/269/269 
f 269/269/269 270/270/270 269/269/269 
f 269/269/269 270/270/270 267/267/267 
f 270/270/270 271/271/271 267/267/267 
f 267/267/267 271/271/271 272/272/272 
f 271/271/271 272/272/272 272/272/272 
f 272/272/272 272/272/272 272/272/272 
f 272/272/272 273/273/273 272/272/272 
f 272/272/272 273/273/273 267/267/267 
f 273/273/273 274/274/274 267/267/267 
f 267/267/267 274/274/274 275/275/275 
f 274/274/274 275/275/275 275/275/275 
f 275/275/275 275/275/275 275/275/275 
f 275/275/275 276/276/276 275/275/275 
f 275/275/275 276/276/276 267/267/267 
f 276/276/276 277/277/277 267/267/267 
f 267/267/267 277/277/277 278/278/278 
f 277/277/277 278/278/278 278/278/278 
f 278/278/278 278/278/278 278/278/278 
f 278/278/278 279/279/279 278/278/278 
f 278/278/278 279/279/279 267/267/267 
f 279/279/279 280/280/280 267/267/267 
f 267/267/267 280/280/280 281/281/281 
f 280/280/280 281/281/281 281/281/281 
f 281/281/281 281/281/281 281/281/281 
f 281/281/281 282/282/282 281/281/281 
f 281/281/281 282/282/282 267/267/267 
f 282/282/282 283/283/283 267/267/267 
f 267/267/267 283/283/283 284/284/284 
f 283/283/283 284/284/284 284/284/284 
f 284/284/284 284/284/284 284/284/284 
f 284/284/284 285/285/285 284/284/284 
f 284/284/284 285/285/285 267/267/267 
f 285/285/285 286/286/286 267/267/267 
f 267/267/267 286/286/286 287/287/287 
f 286/286/286 287/287/287 287/287/287 
f 287/287/287 287/287/287 287/287/287 
f 287/287/287 288/288/288 287/287/287 
f 287/287/287 288/288/288 267/267/267 
f 288/288/288 289/289/289 267/267/267 
f 267/267/267 289/289/289 290/290/290 
f 289/289/289 290/290/290 290/290/290 
f 290/290/290 290/290/290 290/290/290 
f 290/290/290 291/291/291 290/290/290 
f 290/290/290 291/291/291 267/267/267 
f 291/291/291 292/292/292 267/267/267 
f 267/267/267 292/292/292 293/293/293 
f 292/292/292 293/293/293 293/293/293 
f 293/293/293 293/293/293 293/293/293 
f 293/293/293 294/294/294 293/293/293 
f 293/293/293 294/294/294 267/267/267 
f 294/294/294 295/295/295 267/267/267 
f 267/267/267 295/295/295 296/296/296 
f 295/295/295 296/296/296 296/296/296 
f 296/296/296 296/296/296 296/296/296 
f 296/296/296 297/297/297 296/296/296 
f 296/296/296 297/297/297 267/267/267 
f 297/297/297 265/265/265 267/267/267 
f 267/267/267 265/265/265 265/265/265 
f 265/265/265 298/298/298 265/265/265 
f 265/265/265 298/298/298 298/298/298 
f 298/298/298 299/299/299 298/298/298 
f 298/298/298 299/299/299 300/300/300 
f 299/299/299 301/301/301 300/300/300 
f 300/300/300 301/301/301 302/302/302 
f 301/301/301 302/302/302 302/302/302 
f 302/302/302 302/302/302 302/302/302 
f 302/302/302 303/303/303 302/302/302 
f 302/302/302 303/303/303 300/300/300 
f 303/303/303 304/304/304 300/300/300 
f 300/300/300 304/304/304 305/305/305 
f 304/304/304 305/305/305 305/305/305 
f 305/305/305 305/305/305 305/305/305 
f 305/305/305 306/306/306 305/305/305 
f 305/305/305 306/306/306 300/300/300 
f 306/306/306 307/307/307 300/300/300 
f 300/300/300 307/307/307 308/308/308 
f 307/307/307 308/308/308 308/308/308 
f 308/308/308 308/308/308 308/308/308 
f 308/308/308 309/309/309 308/308/308 
f 308/308/308 309/309/309 300/300/300 
f 309/309/309 310/310/310 300/300/300 
f 300/300/300 310/310/310 311/311/311 
f 310/310/310 311/311/311 311/311/311 
f 311/311/311 311/311/311 311/311/311 
f 311/311/311 312/312/312 311/311/311 
f 311/311/311 312/312/312 300/300/300 
f 312/312/312 313/313/313 300/300/300 
f 300/300/300 313/313/313 314/314/314 
f 313/313/313 314/314/314 314/314/314 
f 314/314/314 314/314/314 314/314/314 
f 314/314/314 315/315/315 314/314/314 
f 314/314/314 315/315/315 300/300/300 
f 315/315/315 316/316/316 300/300/300 
f 300/300/300 316/316/316 317/317/317 
f 316/316/316 317/317/317 317/317/317 
f 317/317/317 317/317/317 317/317/317 
f 317/317/317 318/318/318 317/317/317 
f 317/317/317 318/318/318 300/300/300 
f 318/318/318 319/319/319 300/300/300 
f 300/300/300 319/319/319 320/320/320 
f 319/319/319 320/320/320 320/320/320 
f 320/320/320 320/320/320 320/320/320 
f 320/320/320 321/321/321 320/320/320 
f 320/320/320 321/321/321 300/300/300 
f 321/321/321 322/322/322 300/300/300 
f 300/300/300 322/322/322 323/323/323 
f 322/322/322 323/323/323 323/323/323 
f 323/323/323 323/323/323 323/323/323 
f 323/323/323 324/324/324 323/323/323 
f 323/323/323 324/324/324 300/300/300 
f 324/324/324 325/325/325 300/300/300 
f 300/300/300 325/325/325 326/326/326 
f 325/325/325 326/326/326 326/326/326 
f 326/326/326 326/326/326 326/326/326 
f 326/326/326 327/327/327 326/326/326 
f 326/326/326 327/327/327 300/300/300 
f 327/327/327 328/328/328 300/300/300 
f 300/300/300 328/328/328 329/329/329 
f 328/328/328 329/329/329 329/329/329 
f 329/329/329 329/329/329 329/329/329 
f 329/329/329 330/330/330 329/329/329 
f 329/329/329 330/330/330 300/300/300 
f 330/330/330 298/298/298 300/300/300 

