mtllib model_7.mtl
o model_7
v -0.1321360021829605 0.06121322140097618 0.031955279409885406 
v -0.057293400168418884 0.06037002429366112 0.004164333920925856 
v -0.053573157638311386 0.060490481555461884 0.031955279409885406 
v -0.057293400168418884 0.06037002429366112 -0.012355253100395203 
v -0.053573157638311386 0.060490481555461884 -0.040146201848983765 
v -0.1321360021829605 0.06121322140097618 -0.040146201848983765 
v -0.023592349141836166 0.06097231060266495 0.031955279409885406 
v -0.023592349141836166 0.06097231060266495 -0.040146201848983765 
v 0.004418914206326008 0.060731396079063416 0.031955279409885406 
v 0.004418914206326008 0.060731396079063416 -0.040146201848983765 
v 0.02214479260146618 0.05314260348677635 0.0041995570063591 
v 0.02214479260146618 0.05314260348677635 -0.01239047572016716 
v 0.05781538784503937 0.06121322140097618 -0.01232002954930067 
v 0.05781538784503937 0.06121322140097618 -0.040146201848983765 
v -0.3901459872722626 0.09560369700193405 0.01913410983979702 
v -0.26715904474258423 0.09560369700193405 0.01913410983979702 
v -0.3901459872722626 0.1057220846414566 0.01913410983979702 
v -0.26715904474258423 0.1057220846414566 0.01913410983979702 
v -0.22842471301555634 0.08873764425516129 0.02744673751294613 
v -0.22842471301555634 0.10704711079597473 0.02744673751294613 
v -0.21726398169994354 0.0792817696928978 0.029630562290549278 
v -0.21726398169994354 0.10704711079597473 0.029630562290549278 
v -0.20610323548316956 0.06121322140097618 0.03125081956386566 
v -0.20610323548316956 0.10704711079597473 0.03125081956386566 
v -0.1321360021829605 0.06121322140097618 0.031955279409885406 
v -0.1321360021829605 0.10704711079597473 0.031955279409885406 
v -0.053573157638311386 0.060490481555461884 0.031955279409885406 
v -0.05466734617948532 0.10704711079597473 0.031955279409885406 
v -0.023592349141836166 0.06097231060266495 0.031955279409885406 
v -0.02403002604842186 0.10704711079597473 0.031955279409885406 
v 0.004418914206326008 0.060731396079063416 0.031955279409885406 
v 0.005513104144483805 0.10704711079597473 0.031955279409885406 
v 0.05781538784503937 0.1075289398431778 0.031955279409885406 
v 0.05781538784503937 0.06121322140097618 0.031955279409885406 
v 0.02214479260146618 0.05314260348677635 0.0041995570063591 
v 0.02214479260146618 0.05314260348677635 -0.01239047572016716 
v 0.032867852598428726 0.03790479525923729 0.0041995570063591 
v 0.032867852598428726 0.03790479525923729 -0.01239047572016716 
v 0.03483739495277405 0.025377266108989716 0.0041995570063591 
v 0.03483739495277405 0.025377266108989716 -0.01239047572016716 
v 0.03308669105172157 0.011464482173323631 0.0041995570063591 
v 0.03308669105172157 0.011464482173323631 -0.01239047572016716 
v 0.027396904304623604 -0.0008221319876611233 0.0041995570063591 
v 0.027396904304623604 -0.0008221319876611233 -0.01239047572016716 
v 0.027396904304623604 -0.0008221319876611233 0.0041995570063591 
v 0.027396904304623604 -0.0008221319876611233 -0.01239047572016716 
v 0.0059507801197469234 -0.010278006084263325 0.0041995570063591 
v 0.0059507801197469234 -0.010278006084263325 -0.01239047572016716 
v -0.02249816060066223 -0.011904176324605942 0.0041995570063591 
v -0.02249816060066223 -0.011904176324605942 -0.01239047572016716 
v -0.05116593837738037 -0.010699605569243431 0.0041995570063591 
v -0.05116593837738037 -0.010699605569243431 -0.01239047572016716 
v -0.07195554673671722 0.0023097500670701265 0.0041995570063591 
v -0.07195554673671722 0.0023097500670701265 -0.01239047572016716 
v -0.3901459872722626 0.09560369700193405 -0.02732502855360508 
v -0.3901459872722626 0.1057220846414566 -0.02732502855360508 
v -0.26715904474258423 0.09560369700193405 -0.02732502855360508 
v -0.26715904474258423 0.1057220846414566 -0.02732502855360508 
v -0.22842471301555634 0.08873764425516129 -0.03563765436410904 
v -0.22842471301555634 0.10704711079597473 -0.03563765436410904 
v -0.21726398169994354 0.0792817696928978 -0.03782148286700249 
v -0.21726398169994354 0.10704711079597473 -0.03782148286700249 
v -0.20610323548316956 0.06121322140097618 -0.03944173827767372 
v -0.20610323548316956 0.10704711079597473 -0.03944173827767372 
v -0.1321360021829605 0.06121322140097618 -0.040146201848983765 
v -0.1321360021829605 0.10704711079597473 -0.040146201848983765 
v -0.053573157638311386 0.060490481555461884 -0.040146201848983765 
v -0.05466734617948532 0.10704711079597473 -0.040146201848983765 
v -0.023592349141836166 0.06097231060266495 -0.040146201848983765 
v -0.02403002604842186 0.10704711079597473 -0.040146201848983765 
v 0.004418914206326008 0.060731396079063416 -0.040146201848983765 
v 0.005513104144483805 0.10704711079597473 -0.040146201848983765 
v 0.05781538784503937 0.1075289398431778 -0.040146201848983765 
v -0.07086135447025299 0.0497698076069355 -0.012355253100395203 
v -0.07086135447025299 0.0497698076069355 0.004164333920925856 
v -0.3901459872722626 0.1057220846414566 0.01913410983979702 
v -0.3901459872722626 0.1057220846414566 -0.02732502855360508 
v -0.3901459872722626 0.09560369700193405 0.01913410983979702 
v -0.3901459872722626 0.09560369700193405 -0.02732502855360508 
v -0.21726398169994354 0.0792817696928978 -0.03782148286700249 
v -0.21726398169994354 0.0792817696928978 0.029630562290549278 
v -0.22842471301555634 0.08873764425516129 -0.03563765436410904 
v -0.22842471301555634 0.08873764425516129 0.02744673751294613 
v -0.26715904474258423 0.09560369700193405 -0.02732502855360508 
v -0.26715904474258423 0.09560369700193405 0.01913410983979702 
v -0.3901459872722626 0.09560369700193405 -0.02732502855360508 
v -0.3901459872722626 0.09560369700193405 0.01913410983979702 
v -0.20610323548316956 0.06121322140097618 0.03125081956386566 
v -0.20610323548316956 0.06121322140097618 -0.03944173827767372 
v -0.1321360021829605 0.06121322140097618 0.031955279409885406 
v -0.1321360021829605 0.06121322140097618 -0.040146201848983765 
v -0.1157231479883194 0.05332329124212265 0.018077418208122253 
v -0.1157231479883194 0.05332329124212265 -0.026268338784575462 
v -0.09952913969755173 0.04543335735797882 0.0041995570063591 
v -0.09952913969755173 0.04543335735797882 -0.01239047572016716 
v -0.07086135447025299 0.0497698076069355 -0.012355253100395203 
v -0.07086135447025299 0.0497698076069355 0.004164333920925856 
v -0.07655114680528641 0.03688091039657593 -0.01239047572016716 
v -0.07655114680528641 0.03688091039657593 0.0041995570063591 
v -0.07786417752504349 0.025377266108989716 -0.01239047572016716 
v -0.07786417752504349 0.025377266108989716 0.0041995570063591 
v -0.07676998525857925 0.013873621821403503 -0.01239047572016716 
v -0.07676998525857925 0.013873621821403503 0.0041995570063591 
v -0.07195554673671722 0.0023097500670701265 -0.01239047572016716 
v -0.07195554673671722 0.0023097500670701265 0.0041995570063591 
v -0.09952913969755173 0.04543335735797882 0.0041995570063591 
v -0.09952913969755173 0.04543335735797882 -0.01239047572016716 
v -0.08486699312925339 0.0254374947398901 0.0041995570063591 
v -0.08486699312925339 0.0254374947398901 -0.01239047572016716 
v -0.0807090699672699 0.003333634464070201 0.0041995570063591 
v -0.0807090699672699 0.003333634464070201 -0.01239047572016716 
v -0.07939603924751282 -0.014373544603586197 0.0041995570063591 
v -0.07939603924751282 -0.014373544603586197 -0.01239047572016716 
v 0.05781538784503937 0.06121322140097618 0.031955279409885406 
v 0.05781538784503937 0.06121322140097618 0.004129110835492611 
v 0.05781538784503937 0.06121322140097618 0.031955279409885406 
v 0.05781538784503937 0.06121322140097618 -0.01232002954930067 
v 0.05781538784503937 0.1075289398431778 0.031955279409885406 
v 0.05781538784503937 0.1075289398431778 -0.040146201848983765 
v -0.20610323548316956 0.06121322140097618 -0.03944173827767372 
v -0.20610323548316956 0.06121322140097618 0.03125081956386566 
v -0.21726398169994354 0.0792817696928978 -0.03782148286700249 
v -0.21726398169994354 0.0792817696928978 0.029630562290549278 
v 0.05781538784503937 0.1075289398431778 0.031955279409885406 
v 0.05781538784503937 0.1075289398431778 -0.040146201848983765 
v 0.005513104144483805 0.10704711079597473 0.031955279409885406 
v 0.005513104144483805 0.10704711079597473 -0.040146201848983765 
v -0.02403002604842186 0.10704711079597473 0.031955279409885406 
v -0.02403002604842186 0.10704711079597473 -0.040146201848983765 
v -0.05466734617948532 0.10704711079597473 0.031955279409885406 
v -0.05466734617948532 0.10704711079597473 -0.040146201848983765 
v -0.1321360021829605 0.10704711079597473 0.031955279409885406 
v -0.1321360021829605 0.10704711079597473 -0.040146201848983765 
v -0.20610323548316956 0.10704711079597473 0.03125081956386566 
v -0.20610323548316956 0.10704711079597473 -0.03944173827767372 
v -0.21726398169994354 0.10704711079597473 0.029630562290549278 
v -0.21726398169994354 0.10704711079597473 -0.03782148286700249 
v -0.22842471301555634 0.10704711079597473 0.02744673751294613 
v -0.22842471301555634 0.10704711079597473 -0.03563765436410904 
v -0.26715904474258423 0.1057220846414566 0.01913410983979702 
v -0.26715904474258423 0.1057220846414566 -0.02732502855360508 
v -0.3901459872722626 0.1057220846414566 0.01913410983979702 
v -0.3901459872722626 0.1057220846414566 -0.02732502855360508 
v 0.05781538784503937 0.06121322140097618 -0.01232002954930067 
v 0.05781538784503937 0.04832432419061661 -0.01239047572016716 
v 0.02214479260146618 0.05314260348677635 -0.01239047572016716 
v 0.032867852598428726 0.03790479525923729 -0.01239047572016716 
v 0.05781538784503937 0.025015894323587418 -0.01239047572016716 
v 0.03483739495277405 0.025377266108989716 -0.01239047572016716 
v 0.05781538784503937 -0.0015448740450665355 -0.01239047572016716 
v 0.03308669105172157 0.011464482173323631 -0.01239047572016716 
v 0.05781538784503937 -0.015758799389004707 -0.01239047572016716 
v 0.027396904304623604 -0.0008221319876611233 -0.01239047572016716 
v 0.00988986436277628 -0.015758799389004707 -0.01239047572016716 
v 0.0059507801197469234 -0.010278006084263325 -0.01239047572016716 
v -0.022060483694076538 -0.015758799389004707 -0.01239047572016716 
v -0.02249816060066223 -0.011904176324605942 -0.01239047572016716 
v -0.05116593837738037 -0.015758799389004707 -0.01239047572016716 
v -0.05116593837738037 -0.010699605569243431 -0.01239047572016716 
v -0.07939603924751282 -0.014373544603586197 -0.01239047572016716 
v -0.07195554673671722 0.0023097500670701265 -0.01239047572016716 
v -0.0807090699672699 0.003333634464070201 -0.01239047572016716 
v -0.07676998525857925 0.013873621821403503 -0.01239047572016716 
v -0.08486699312925339 0.0254374947398901 -0.01239047572016716 
v -0.07786417752504349 0.025377266108989716 -0.01239047572016716 
v -0.09952913969755173 0.04543335735797882 -0.01239047572016716 
v -0.07655114680528641 0.03688091039657593 -0.01239047572016716 
v -0.1157231479883194 0.05332329124212265 -0.026268338784575462 
v -0.07086135447025299 0.0497698076069355 -0.012355253100395203 
v -0.1321360021829605 0.06121322140097618 -0.040146201848983765 
v -0.057293400168418884 0.06037002429366112 -0.012355253100395203 
v -0.057293400168418884 0.06037002429366112 0.004164333920925856 
v -0.1321360021829605 0.06121322140097618 0.031955279409885406 
v -0.07086135447025299 0.0497698076069355 0.004164333920925856 
v -0.1157231479883194 0.05332329124212265 0.018077418208122253 
v -0.07655114680528641 0.03688091039657593 0.0041995570063591 
v -0.09952913969755173 0.04543335735797882 0.0041995570063591 
v -0.07786417752504349 0.025377266108989716 0.0041995570063591 
v -0.08486699312925339 0.0254374947398901 0.0041995570063591 
v -0.07676998525857925 0.013873621821403503 0.0041995570063591 
v -0.0807090699672699 0.003333634464070201 0.0041995570063591 
v -0.07195554673671722 0.0023097500670701265 0.0041995570063591 
v -0.07939603924751282 -0.014373544603586197 0.0041995570063591 
v -0.05116593837738037 -0.010699605569243431 0.0041995570063591 
v -0.05116593837738037 -0.015758799389004707 0.0041995570063591 
v -0.02249816060066223 -0.011904176324605942 0.0041995570063591 
v -0.022060483694076538 -0.015758799389004707 0.0041995570063591 
v 0.0059507801197469234 -0.010278006084263325 0.0041995570063591 
v 0.00988986436277628 -0.015758799389004707 0.0041995570063591 
v 0.027396904304623604 -0.0008221319876611233 0.0041995570063591 
v 0.05781538784503937 -0.015758799389004707 0.0041995570063591 
v 0.03308669105172157 0.011464482173323631 0.0041995570063591 
v 0.05781538784503937 -0.0015448740450665355 0.0041995570063591 
v 0.03483739495277405 0.025377266108989716 0.0041995570063591 
v 0.05781538784503937 0.025015894323587418 0.0041995570063591 
v 0.032867852598428726 0.03790479525923729 0.0041995570063591 
v 0.05781538784503937 0.04832432419061661 0.0041995570063591 
v 0.02214479260146618 0.05314260348677635 0.0041995570063591 
v 0.05781538784503937 0.06121322140097618 0.004129110835492611 
v 0.05781538784503937 -0.015758799389004707 0.0041995570063591 
v 0.05781538784503937 -0.015758799389004707 -0.01239047572016716 
v 0.05781538784503937 -0.0015448740450665355 0.0041995570063591 
v 0.05781538784503937 -0.0015448740450665355 -0.01239047572016716 
v 0.05781538784503937 0.025015894323587418 0.0041995570063591 
v 0.05781538784503937 0.025015894323587418 -0.01239047572016716 
v 0.05781538784503937 0.04832432419061661 0.0041995570063591 
v 0.05781538784503937 0.04832432419061661 -0.01239047572016716 
v 0.05781538784503937 0.06121322140097618 0.004129110835492611 
v -0.07939603924751282 -0.014373544603586197 0.0041995570063591 
v -0.07939603924751282 -0.014373544603586197 -0.01239047572016716 
v -0.05116593837738037 -0.015758799389004707 0.0041995570063591 
v -0.05116593837738037 -0.015758799389004707 -0.01239047572016716 
v -0.022060483694076538 -0.015758799389004707 0.0041995570063591 
v -0.022060483694076538 -0.015758799389004707 -0.01239047572016716 
v 0.00988986436277628 -0.015758799389004707 0.0041995570063591 
v 0.00988986436277628 -0.015758799389004707 -0.01239047572016716 
v 0.05781538784503937 -0.015758799389004707 0.0041995570063591 
v 0.05781538784503937 -0.015758799389004707 -0.01239047572016716 
v 0.05781538784503937 0.06121322140097618 -0.040146201848983765 
v 0.05781538784503937 0.06121322140097618 -0.040146201848983765 
vn -0.06396468728780746 -0.6470413208007812 0.7597671151161194 
vn 0.20247359573841095 -0.9743564128875732 0.0981530249118805 
vn 0.00376924779266119 -0.707868754863739 0.7063339352607727 
vn 0.20247359573841095 -0.9743564128875732 -0.0981530249118805 
vn 0.0018878303235396743 -0.7078762650489807 -0.7063339352607727 
vn -0.06596092134714127 -0.6468408703804016 -0.7597671151161194 
vn 0.005657902918756008 -0.7047630548477173 0.7094202041625977 
vn 0.0037783945444971323 -0.7047756314277649 -0.7094202041625977 
vn -0.02826465480029583 -0.6821760535240173 0.7306414246559143 
vn -0.030200820416212082 -0.68209308385849 -0.7306414246559143 
vn -0.3269038796424866 -0.8816155791282654 0.34042292833328247 
vn -0.32198646664619446 -0.8834234476089478 -0.34042292833328247 
vn 0.9118401408195496 -0.2899218201637268 -0.29067665338516235 
vn 0.5779946446418762 -0.5779946446418762 -0.5760593414306641 
vn -0.5759913921356201 -0.5799909830093384 0.5760593414306641 
vn -0.14233602583408356 -0.7059080004692078 0.6938546895980835 
vn -0.5759913921356201 0.5799909830093384 0.5760593414306641 
vn -0.08652085065841675 0.7270009517669678 0.681163489818573 
vn -0.42006462812423706 -0.5422816872596741 0.7276512384414673 
vn -0.1514545977115631 0.7071016430854797 0.6907016038894653 
vn -0.5890357494354248 -0.3981187045574188 0.7032341957092285 
vn -0.12015252560377121 0.7007317543029785 0.7032341957092285 
vn -0.3943936228752136 -0.6831098198890686 0.6146662831306458 
vn -0.0526847243309021 0.6934277415275574 0.7185974717140198 
vn -0.06396468728780746 -0.6470413208007812 0.7597671151161194 
vn -0.0018859856063500047 0.7047832608222961 0.7094202041625977 
vn 0.00376924779266119 -0.707868754863739 0.7063339352607727 
vn 0.00376924779266119 0.707868754863739 0.7063339352607727 
vn 0.005657902918756008 -0.7047630548477173 0.7094202041625977 
vn 0.00376924779266119 0.707868754863739 0.7063339352607727 
vn -0.02826465480029583 -0.6821760535240173 0.7306414246559143 
vn -0.0018859856063500047 0.7047832608222961 0.7094202041625977 
vn 0.5733096599578857 0.5826419591903687 0.5760593414306641 
vn 0.5786608457565308 -0.5773276686668396 0.5760593414306641 
vn -0.3269038796424866 -0.8816155791282654 0.34042292833328247 
vn -0.32198646664619446 -0.8834234476089478 -0.34042292833328247 
vn -0.603195071220398 -0.24271303415298462 0.7597671151161194 
vn -0.601601243019104 -0.24663715064525604 -0.7597671151161194 
vn -0.6730306148529053 -0.011307951994240284 0.7395281791687012 
vn -0.6729561686515808 -0.015103636309504509 -0.7395281791687012 
vn -0.6402097344398499 0.18584121763706207 0.7453821301460266 
vn -0.6400198340415955 0.18649408221244812 -0.7453821301460266 
vn -0.4211229979991913 0.43578410148620605 0.7954543828964233 
vn -0.4231409430503845 0.43382498621940613 -0.7954543828964233 
vn -0.4211229979991913 0.43578410148620605 0.7954543828964233 
vn -0.4231409430503845 0.43382498621940613 -0.7954543828964233 
vn -0.1549532413482666 0.6450231075286865 0.7482877969741821 
vn -0.15706340968608856 0.6445125341415405 -0.7482877969741821 
vn -0.007533459924161434 0.6953854560852051 0.7185974717140198 
vn -0.0037798190023750067 0.6954160332679749 -0.7185974717140198 
vn 0.18921060860157013 0.6115803122520447 0.7682244777679443 
vn 0.19350726902484894 0.6102344393730164 -0.7682244777679443 
vn 0.47635653614997864 0.4018951654434204 0.7820260524749756 
vn 0.47526732087135315 0.40318265557289124 -0.7820260524749756 
vn -0.5779946446418762 -0.5779946446418762 -0.5760593414306641 
vn -0.5779946446418762 0.5779946446418762 -0.5760593414306641 
vn -0.1444210261106491 -0.7054843902587891 -0.6938546895980835 
vn -0.0885370746254921 0.7267581820487976 -0.681163489818573 
vn -0.4242945909500122 -0.5389784574508667 -0.7276512384414673 
vn -0.14825335144996643 0.7077797651290894 -0.6907016038894653 
vn -0.5865073204040527 -0.40183424949645996 -0.7032341957092285 
vn -0.12221579998731613 0.7003748416900635 -0.7032341957092285 
vn -0.3965725600719452 -0.6818471550941467 -0.6146662831306458 
vn -0.056634772568941116 0.693116307258606 -0.7185974717140198 
vn -0.06596092134714127 -0.6468408703804016 -0.7597671151161194 
vn -0.0037783945444971323 0.7047756314277649 -0.7094202041625977 
vn 0.0018878303235396743 -0.7078762650489807 -0.7063339352607727 
vn 0.0018878303235396743 0.7078762650489807 -0.7063339352607727 
vn 0.0037783945444971323 -0.7047756314277649 -0.7094202041625977 
vn 0.0018878303235396743 0.7078762650489807 -0.7063339352607727 
vn -0.030200820416212082 -0.68209308385849 -0.7306414246559143 
vn -0.0037783945444971323 0.7047756314277649 -0.7094202041625977 
vn 0.5779946446418762 0.5779946446418762 -0.5760593414306641 
vn 0.5371328592300415 -0.6718114614486694 -0.5100564956665039 
vn 0.5379734635353088 -0.6711385250091553 0.5100564956665039 
vn -0.5759913921356201 0.5799909830093384 0.5760593414306641 
vn -0.5779946446418762 0.5779946446418762 -0.5760593414306641 
vn -0.5759913921356201 -0.5799909830093384 0.5760593414306641 
vn -0.5779946446418762 -0.5779946446418762 -0.5760593414306641 
vn -0.5865073204040527 -0.40183424949645996 -0.7032341957092285 
vn -0.5890357494354248 -0.3981187045574188 0.7032341957092285 
vn -0.4242945909500122 -0.5389784574508667 -0.7276512384414673 
vn -0.42006462812423706 -0.5422816872596741 0.7276512384414673 
vn -0.1444210261106491 -0.7054843902587891 -0.6938546895980835 
vn -0.14233602583408356 -0.7059080004692078 0.6938546895980835 
vn -0.5779946446418762 -0.5779946446418762 -0.5760593414306641 
vn -0.5759913921356201 -0.5799909830093384 0.5760593414306641 
vn -0.3943936228752136 -0.6831098198890686 0.6146662831306458 
vn -0.3965725600719452 -0.6818471550941467 -0.6146662831306458 
vn -0.06396468728780746 -0.6470413208007812 0.7597671151161194 
vn -0.06596092134714127 -0.6468408703804016 -0.7597671151161194 
vn -0.12215766310691833 -0.8688958883285522 0.4796847105026245 
vn -0.12419324368238449 -0.8686072826385498 -0.4796847105026245 
vn -0.3789518475532532 -0.7819359302520752 0.4949462115764618 
vn -0.374336838722229 -0.7841557264328003 -0.4949462115764618 
vn 0.5371328592300415 -0.6718114614486694 -0.5100564956665039 
vn 0.5379734635353088 -0.6711385250091553 0.5100564956665039 
vn 0.653788149356842 -0.3549422025680542 -0.6682642698287964 
vn 0.654072642326355 -0.3544175922870636 0.6682642698287964 
vn 0.6795623898506165 0 -0.7336177229881287 
vn 0.6795623898506165 0 0.7336177229881287 
vn 0.6493651270866394 0.16454415023326874 -0.7424622178077698 
vn 0.649438202381134 0.1642553210258484 0.7424622178077698 
vn 0.47526732087135315 0.40318265557289124 -0.7820260524749756 
vn 0.47635653614997864 0.4018951654434204 0.7820260524749756 
vn -0.3789518475532532 -0.7819359302520752 0.4949462115764618 
vn -0.374336838722229 -0.7841557264328003 -0.4949462115764618 
vn -0.5974061489105225 -0.2566317319869995 0.7597671151161194 
vn -0.5957105755805969 -0.2605433762073517 -0.7597671151161194 
vn -0.6895585060119629 -0.09014888107776642 0.7185974717140198 
vn -0.6895178556442261 -0.09045904129743576 -0.7185974717140198 
vn -0.5643307566642761 -0.5843213200569153 0.5831804275512695 
vn -0.5663489699363708 -0.5823653936386108 -0.5831804275512695 
vn 0.5786608457565308 -0.5773276686668396 0.5760593414306641 
vn 0.909640908241272 -0.29674994945526123 0.29067665338516235 
vn 0.5786608457565308 -0.5773276686668396 0.5760593414306641 
vn 0.9118401408195496 -0.2899218201637268 -0.29067665338516235 
vn 0.5733096599578857 0.5826419591903687 0.5760593414306641 
vn 0.5779946446418762 0.5779946446418762 -0.5760593414306641 
vn -0.3965725600719452 -0.6818471550941467 -0.6146662831306458 
vn -0.3943936228752136 -0.6831098198890686 0.6146662831306458 
vn -0.5865073204040527 -0.40183424949645996 -0.7032341957092285 
vn -0.5890357494354248 -0.3981187045574188 0.7032341957092285 
vn 0.5733096599578857 0.5826419591903687 0.5760593414306641 
vn 0.5779946446418762 0.5779946446418762 -0.5760593414306641 
vn -0.0018859856063500047 0.7047832608222961 0.7094202041625977 
vn -0.0037783945444971323 0.7047756314277649 -0.7094202041625977 
vn 0.00376924779266119 0.707868754863739 0.7063339352607727 
vn 0.0018878303235396743 0.7078762650489807 -0.7063339352607727 
vn 0.00376924779266119 0.707868754863739 0.7063339352607727 
vn 0.0018878303235396743 0.7078762650489807 -0.7063339352607727 
vn -0.0018859856063500047 0.7047832608222961 0.7094202041625977 
vn -0.0037783945444971323 0.7047756314277649 -0.7094202041625977 
vn -0.0526847243309021 0.6934277415275574 0.7185974717140198 
vn -0.056634772568941116 0.693116307258606 -0.7185974717140198 
vn -0.12015252560377121 0.7007317543029785 0.7032341957092285 
vn -0.12221579998731613 0.7003748416900635 -0.7032341957092285 
vn -0.1514545977115631 0.7071016430854797 0.6907016038894653 
vn -0.14825335144996643 0.7077797651290894 -0.6907016038894653 
vn -0.08652085065841675 0.7270009517669678 0.681163489818573 
vn -0.0885370746254921 0.7267581820487976 -0.681163489818573 
vn -0.5759913921356201 0.5799909830093384 0.5760593414306641 
vn -0.5779946446418762 0.5779946446418762 -0.5760593414306641 
vn 0.9118401408195496 -0.2899218201637268 -0.29067665338516235 
vn 0.7078787684440613 0 -0.7063339352607727 
vn -0.32198646664619446 -0.8834234476089478 -0.34042292833328247 
vn -0.601601243019104 -0.24663715064525604 -0.7597671151161194 
vn 0.7078787684440613 0 -0.7063339352607727 
vn -0.6729561686515808 -0.015103636309504509 -0.7395281791687012 
vn 0.7078787684440613 0 -0.7063339352607727 
vn -0.6400198340415955 0.18649408221244812 -0.7453821301460266 
vn 0.5779946446418762 -0.5779946446418762 -0.5760593414306641 
vn -0.4231409430503845 0.43382498621940613 -0.7954543828964233 
vn 0.0018878303235396743 -0.7078762650489807 -0.7063339352607727 
vn -0.15706340968608856 0.6445125341415405 -0.7482877969741821 
vn 0.0018878303235396743 -0.7078762650489807 -0.7063339352607727 
vn -0.0037798190023750067 0.6954160332679749 -0.7185974717140198 
vn -0.0188797265291214 -0.7137745022773743 -0.7001210451126099 
vn 0.19350726902484894 0.6102344393730164 -0.7682244777679443 
vn -0.5663489699363708 -0.5823653936386108 -0.5831804275512695 
vn 0.47526732087135315 0.40318265557289124 -0.7820260524749756 
vn -0.6895178556442261 -0.09045904129743576 -0.7185974717140198 
vn 0.6493651270866394 0.16454415023326874 -0.7424622178077698 
vn -0.5957105755805969 -0.2605433762073517 -0.7597671151161194 
vn 0.6795623898506165 0 -0.7336177229881287 
vn -0.374336838722229 -0.7841557264328003 -0.4949462115764618 
vn 0.653788149356842 -0.3549422025680542 -0.6682642698287964 
vn -0.12419324368238449 -0.8686072826385498 -0.4796847105026245 
vn 0.5371328592300415 -0.6718114614486694 -0.5100564956665039 
vn -0.06596092134714127 -0.6468408703804016 -0.7597671151161194 
vn 0.20247359573841095 -0.9743564128875732 -0.0981530249118805 
vn 0.20247359573841095 -0.9743564128875732 0.0981530249118805 
vn -0.06396468728780746 -0.6470413208007812 0.7597671151161194 
vn 0.5379734635353088 -0.6711385250091553 0.5100564956665039 
vn -0.12215766310691833 -0.8688958883285522 0.4796847105026245 
vn 0.654072642326355 -0.3544175922870636 0.6682642698287964 
vn -0.3789518475532532 -0.7819359302520752 0.4949462115764618 
vn 0.6795623898506165 0 0.7336177229881287 
vn -0.5974061489105225 -0.2566317319869995 0.7597671151161194 
vn 0.649438202381134 0.1642553210258484 0.7424622178077698 
vn -0.6895585060119629 -0.09014888107776642 0.7185974717140198 
vn 0.47635653614997864 0.4018951654434204 0.7820260524749756 
vn -0.5643307566642761 -0.5843213200569153 0.5831804275512695 
vn 0.18921060860157013 0.6115803122520447 0.7682244777679443 
vn -0.016963578760623932 -0.713822603225708 0.7001210451126099 
vn -0.007533459924161434 0.6953854560852051 0.7185974717140198 
vn 0.00376924779266119 -0.707868754863739 0.7063339352607727 
vn -0.1549532413482666 0.6450231075286865 0.7482877969741821 
vn 0.00376924779266119 -0.707868754863739 0.7063339352607727 
vn -0.4211229979991913 0.43578410148620605 0.7954543828964233 
vn 0.5786608457565308 -0.5773276686668396 0.5760593414306641 
vn -0.6402097344398499 0.18584121763706207 0.7453821301460266 
vn 0.7078787684440613 0 0.7063339352607727 
vn -0.6730306148529053 -0.011307951994240284 0.7395281791687012 
vn 0.7078787684440613 0 0.7063339352607727 
vn -0.603195071220398 -0.24271303415298462 0.7597671151161194 
vn 0.7078787684440613 0 0.7063339352607727 
vn -0.3269038796424866 -0.8816155791282654 0.34042292833328247 
vn 0.909640908241272 -0.29674994945526123 0.29067665338516235 
vn 0.5786608457565308 -0.5773276686668396 0.5760593414306641 
vn 0.5779946446418762 -0.5779946446418762 -0.5760593414306641 
vn 0.7078787684440613 0 0.7063339352607727 
vn 0.7078787684440613 0 -0.7063339352607727 
vn 0.7078787684440613 0 0.7063339352607727 
vn 0.7078787684440613 0 -0.7063339352607727 
vn 0.7078787684440613 0 0.7063339352607727 
vn 0.7078787684440613 0 -0.7063339352607727 
vn 0.909640908241272 -0.29674994945526123 0.29067665338516235 
vn -0.5643307566642761 -0.5843213200569153 0.5831804275512695 
vn -0.5663489699363708 -0.5823653936386108 -0.5831804275512695 
vn -0.016963578760623932 -0.713822603225708 0.7001210451126099 
vn -0.0188797265291214 -0.7137745022773743 -0.7001210451126099 
vn 0.00376924779266119 -0.707868754863739 0.7063339352607727 
vn 0.0018878303235396743 -0.7078762650489807 -0.7063339352607727 
vn 0.00376924779266119 -0.707868754863739 0.7063339352607727 
vn 0.0018878303235396743 -0.7078762650489807 -0.7063339352607727 
vn 0.5786608457565308 -0.5773276686668396 0.5760593414306641 
vn 0.5779946446418762 -0.5779946446418762 -0.5760593414306641 
vn 0.5779946446418762 -0.5779946446418762 -0.5760593414306641 
vn 0.5779946446418762 -0.5779946446418762 -0.5760593414306641 
vt 0.41386815905570984 0 
vt 0.49444425106048584 0.16676810383796692 
vt 0.41386815905570984 0.17482571303844452 
vt 0.542301595211029 0.16676810383796692 
vt 0.6227555871009827 0.17482571303844452 
vt 0.6227555871009827 0 
vt 0.41386815905570984 0.2416062206029892 
vt 0.6227555871009827 0.2416062206029892 
vt 0.41386815905570984 0.3039916455745697 
vt 0.6227555871009827 0.3039916455745697 
vt 0.49432215094566345 0.3444017767906189 
vt 0.542301595211029 0.3444017767906189 
vt 0.5421794652938843 0.4229024350643158 
vt 0.6227555871009827 0.4229024350643158 
vt 0.28677767515182495 0.9999982118606567 
vt 0.2864114046096802 0.725917398929596 
vt 0.30899712443351746 0.9999982118606567 
vt 0.3085087835788727 0.725917398929596 
vt 0.2712728679180145 0.6383824944496155 
vt 0.31143882870674133 0.6383824944496155 
vt 0.25064051151275635 0.6134771108627319 
vt 0.31131675839424133 0.6133550405502319 
vt 0.21096287667751312 0.5884497165679932 
vt 0.31131675839424133 0.5883275866508484 
vt 0.21071870625019073 0.42339077591896057 
vt 0.31107258796691895 0.42326870560646057 
vt 0.20888742804527283 0.24856506288051605 
vt 0.31082841753959656 0.25064051151275635 
vt 0.20986410975456238 0.18154039978981018 
vt 0.31070631742477417 0.18239499628543854 
vt 0.2092536836862564 0.11915495991706848 
vt 0.31058424711227417 0.1168353483080864 
vt 0.31143882870674133 0 
vt 0.21010828018188477 0.00012208499538246542 
vt 0.46184754371643066 0.8100339770317078 
vt 0.5098269581794739 0.8100339770317078 
vt 0.46184754371643066 0.8453165292739868 
vt 0.5098269581794739 0.8453165292739868 
vt 0.46184754371643066 0.873518168926239 
vt 0.5098269581794739 0.873518168926239 
vt 0.46184754371643066 0.9044056534767151 
vt 0.5098269581794739 0.9044056534767151 
vt 0.46184754371643066 0.930898129940033 
vt 0.5098269581794739 0.930898129940033 
vt 0.8390902280807495 0.5143440961837769 
vt 0.887069582939148 0.5143440961837769 
vt 0.8390902280807495 0.5622014403343201 
vt 0.887069582939148 0.5622014403343201 
vt 0.8390902280807495 0.6253193616867065 
vt 0.887069582939148 0.6253193616867065 
vt 0.8390902280807495 0.6894140243530273 
vt 0.887069582939148 0.6894140243530273 
vt 0.8390902280807495 0.7359283566474915 
vt 0.887069582939148 0.7359283566474915 
vt 0.38932907581329346 0 
vt 0.41142645478248596 0 
vt 0.3888407349586487 0.2740808129310608 
vt 0.4110601842403412 0.2740808129310608 
vt 0.37370219826698303 0.36161577701568604 
vt 0.41386815905570984 0.36161577701568604 
vt 0.35306981205940247 0.3865211009979248 
vt 0.41386815905570984 0.3866432011127472 
vt 0.3135142922401428 0.41154852509498596 
vt 0.41374605894088745 0.41167062520980835 
vt 0.31327012181282043 0.5766074657440186 
vt 0.41350188851356506 0.5767295360565186 
vt 0.31143882870674133 0.7514331936836243 
vt 0.4132577180862427 0.7493577003479004 
vt 0.3122934401035309 0.818457841873169 
vt 0.4131356477737427 0.8176032304763794 
vt 0.3116829991340637 0.8808432817459106 
vt 0.4130135476589203 0.8831629157066345 
vt 0.41386815905570984 0.9999982118606567 
vt 0.542301595211029 0.13758979737758636 
vt 0.49432215094566345 0.13758979737758636 
vt 0.902208149433136 0.7359283566474915 
vt 0.902208149433136 0.8731518983840942 
vt 0.8801107406616211 0.7359283566474915 
vt 0.8801107406616211 0.8731518983840942 
vt 0.6092041730880737 0.8100339770317078 
vt 0.41386815905570984 0.8100339770317078 
vt 0.6028557419776917 0.7841519713401794 
vt 0.42021656036376953 0.7841519713401794 
vt 0.5788049697875977 0.6967390775680542 
vt 0.44426730275154114 0.6967390775680542 
vt 0.5788049697875977 0.4229024350643158 
vt 0.44426730275154114 0.4229024350643158 
vt 0.7931862473487854 0.27505749464035034 
vt 0.9979227781295776 0.27505749464035034 
vt 0.7911108136177063 0.43987226486206055 
vt 0.9999982118606567 0.43987226486206055 
vt 0.8312767744064331 0.4771081805229187 
vt 0.9598322510719299 0.4771081805229187 
vt 0.8715648055076599 0.5143440961837769 
vt 0.9195442199707031 0.5143440961837769 
vt 0.5098269581794739 0.8100339770317078 
vt 0.5578063726425171 0.8100339770317078 
vt 0.5098269581794739 0.8387239575386047 
vt 0.5578063726425171 0.8387239575386047 
vt 0.5098269581794739 0.8644838929176331 
vt 0.5578063726425171 0.8644838929176331 
vt 0.5098269581794739 0.8902438282966614 
vt 0.5578063726425171 0.8902438282966614 
vt 0.5098269581794739 0.9158816933631897 
vt 0.5578063726425171 0.9158816933631897 
vt 0.41386815905570984 0.8100339770317078 
vt 0.46184754371643066 0.8100339770317078 
vt 0.41386815905570984 0.8565483689308167 
vt 0.46184754371643066 0.8565483689308167 
vt 0.41386815905570984 0.9063590168952942 
vt 0.46184754371643066 0.9063590168952942 
vt 0.41386815905570984 0.9459145665168762 
vt 0.46184754371643066 0.9459145665168762 
vt 0.41386815905570984 0.4229024350643158 
vt 0.49444425106048584 0.4229024350643158 
vt 0.7911108136177063 0.17165151238441467 
vt 0.9194221496582031 0.17165151238441467 
vt 0.7911108136177063 0.27505749464035034 
vt 0.9999982118606567 0.27505749464035034 
vt 0.8801107406616211 0.7359283566474915 
vt 0.8801107406616211 0.9446937441825867 
vt 0.8390902280807495 0.7406896948814392 
vt 0.8390902280807495 0.9399324059486389 
vt 0 0 
vt 0.20888742804527283 0 
vt 0 0.1168353483080864 
vt 0.20888742804527283 0.1168353483080864 
vt 0 0.18251708149909973 
vt 0.20888742804527283 0.18251708149909973 
vt 0 0.25076258182525635 
vt 0.20888742804527283 0.25076258182525635 
vt 0 0.42351287603378296 
vt 0.20888742804527283 0.42351287603378296 
vt 0.002075444906949997 0.5886938571929932 
vt 0.20681199431419373 0.5886938571929932 
vt 0.0068367598578333855 0.6134771108627319 
vt 0.20205067098140717 0.6134771108627319 
vt 0.013063094578683376 0.6382603645324707 
vt 0.19582433998584747 0.6382603645324707 
vt 0.037113841623067856 0.7249407172203064 
vt 0.17177359759807587 0.7249407172203064 
vt 0.037113841623067856 0.999265730381012 
vt 0.17177359759807587 0.999265730381012 
vt 0.7911108136177063 0.42021656036376953 
vt 0.7630312442779541 0.42021656036376953 
vt 0.7734084725379944 0.3407392203807831 
vt 0.7402013540267944 0.3644237220287323 
vt 0.7119997143745422 0.42021656036376953 
vt 0.7127322554588318 0.36906296014785767 
vt 0.6538872718811035 0.42021656036376953 
vt 0.6822109818458557 0.36527833342552185 
vt 0.6227555871009827 0.42021656036376953 
vt 0.6554743647575378 0.3523373007774353 
vt 0.6227555871009827 0.31314802169799805 
vt 0.6347199082374573 0.3044799864292145 
vt 0.6227555871009827 0.24221664667129517 
vt 0.6311794519424438 0.241484135389328 
vt 0.6227555871009827 0.1771453320980072 
vt 0.6338652968406677 0.1773895025253296 
vt 0.6258077025413513 0.11439364403486252 
vt 0.6623111367225647 0.1309972107410431 
vt 0.6645086407661438 0.11134152114391327 
vt 0.6875827312469482 0.12025372684001923 
vt 0.7128543257713318 0.10206305980682373 
vt 0.7127322554588318 0.11756785213947296 
vt 0.756560742855072 0.06958845257759094 
vt 0.7380038499832153 0.12061998248100281 
vt 0.7738968133926392 0.03479422628879547 
vt 0.7660833597183228 0.13331681489944458 
vt 0.7911108136177063 0 
vt 0.7892795205116272 0.16383807361125946 
vt 0.7892795205116272 0.6767171621322632 
vt 0.7911108136177063 0.8405552506446838 
vt 0.7660833597183228 0.7071163058280945 
vt 0.7738968133926392 0.8056389093399048 
vt 0.7380038499832153 0.7199352383613586 
vt 0.756560742855072 0.7708446979522705 
vt 0.7127322554588318 0.7228652834892273 
vt 0.7128543257713318 0.7384921908378601 
vt 0.6875827312469482 0.7201794385910034 
vt 0.6645086407661438 0.7292137145996094 
vt 0.6623111367225647 0.7094359397888184 
vt 0.6258077025413513 0.726039469242096 
vt 0.6338652968406677 0.6631657481193542 
vt 0.6227555871009827 0.6632878184318542 
vt 0.6311794519424438 0.5990710854530334 
vt 0.6227555871009827 0.5983386039733887 
vt 0.6347199082374573 0.536075234413147 
vt 0.6227555871009827 0.527285099029541 
vt 0.6554743647575378 0.48809581995010376 
vt 0.6227555871009827 0.42021656036376953 
vt 0.6822109818458557 0.475276917219162 
vt 0.6538872718811035 0.42021656036376953 
vt 0.7127322554588318 0.4714922606945038 
vt 0.7119997143745422 0.42021656036376953 
vt 0.7402013540267944 0.47613149881362915 
vt 0.7630312442779541 0.42021656036376953 
vt 0.7734084725379944 0.499693900346756 
vt 0.7911108136177063 0.42021656036376953 
vt 0.8715648055076599 0 
vt 0.9195442199707031 0 
vt 0.8715648055076599 0.03174209967255592 
vt 0.9195442199707031 0.03174209967255592 
vt 0.8715648055076599 0.09095332771539688 
vt 0.9195442199707031 0.09095332771539688 
vt 0.8715648055076599 0.1429615318775177 
vt 0.9195442199707031 0.1429615318775177 
vt 0.8716868758201599 0.17165151238441467 
vt 0.7911108136177063 0.5143440961837769 
vt 0.8390902280807495 0.5143440961837769 
vt 0.7911108136177063 0.5772178769111633 
vt 0.8390902280807495 0.5772178769111633 
vt 0.7911108136177063 0.6422891616821289 
vt 0.8390902280807495 0.6422891616821289 
vt 0.7911108136177063 0.7130984663963318 
vt 0.8390902280807495 0.7130984663963318 
vt 0.7911108136177063 0.8201670050621033 
vt 0.8390902280807495 0.8201670050621033 
vt 0.9999982118606567 0.17165151238441467 
vt 0.31253761053085327 0.9998761415481567 
s on 
f 1/1/1 2/2/2 3/3/3 
f 2/2/2 4/4/4 3/3/3 
f 3/3/3 4/4/4 5/5/5 
f 4/4/4 6/6/6 5/5/5 
f 5/5/5 6/6/6 6/6/6 
f 6/6/6 3/3/3 6/6/6 
f 6/6/6 3/3/3 3/3/3 
f 3/3/3 5/5/5 3/3/3 
f 3/3/3 5/5/5 7/7/7 
f 5/5/5 8/8/8 7/7/7 
f 7/7/7 8/8/8 9/9/9 
f 8/8/8 10/10/10 9/9/9 
f 9/9/9 10/10/10 11/11/11 
f 10/10/10 12/12/12 11/11/11 
f 11/11/11 12/12/12 12/12/12 
f 12/12/12 10/10/10 12/12/12 
f 12/12/12 10/10/10 13/13/13 
f 10/10/10 14/14/14 13/13/13 
f 13/13/13 14/14/14 14/14/14 
f 14/14/14 15/15/15 14/14/14 
f 14/14/14 15/15/15 15/15/15 
f 15/15/15 16/16/16 15/15/15 
f 15/15/15 16/16/16 17/17/17 
f 16/16/16 18/18/18 17/17/17 
f 17/17/17 18/18/18 18/18/18 
f 18/18/18 16/16/16 18/18/18 
f 18/18/18 16/16/16 16/16/16 
f 16/16/16 19/19/19 16/16/16 
f 16/16/16 19/19/19 18/18/18 
f 19/19/19 20/20/20 18/18/18 
f 18/18/18 20/20/20 20/20/20 
f 20/20/20 19/19/19 20/20/20 
f 20/20/20 19/19/19 19/19/19 
f 19/19/19 21/21/21 19/19/19 
f 19/19/19 21/21/21 20/20/20 
f 21/21/21 22/22/22 20/20/20 
f 20/20/20 22/22/22 22/22/22 
f 22/22/22 21/21/21 22/22/22 
f 22/22/22 21/21/21 21/21/21 
f 21/21/21 23/23/23 21/21/21 
f 21/21/21 23/23/23 22/22/22 
f 23/23/23 24/24/24 22/22/22 
f 22/22/22 24/24/24 24/24/24 
f 24/24/24 23/23/23 24/24/24 
f 24/24/24 23/23/23 23/23/23 
f 23/23/23 25/25/25 23/23/23 
f 23/23/23 25/25/25 24/24/24 
f 25/25/25 26/26/26 24/24/24 
f 24/24/24 26/26/26 26/26/26 
f 26/26/26 25/25/25 26/26/26 
f 26/26/26 25/25/25 25/25/25 
f 25/25/25 27/27/27 25/25/25 
f 25/25/25 27/27/27 26/26/26 
f 27/27/27 28/28/28 26/26/26 
f 26/26/26 28/28/28 28/28/28 
f 28/28/28 27/27/27 28/28/28 
f 28/28/28 27/27/27 27/27/27 
f 27/27/27 29/29/29 27/27/27 
f 27/27/27 29/29/29 28/28/28 
f 29/29/29 30/30/30 28/28/28 
f 28/28/28 30/30/30 30/30/30 
f 30/30/30 29/29/29 30/30/30 
f 30/30/30 29/29/29 29/29/29 
f 29/29/29 31/31/31 29/29/29 
f 29/29/29 31/31/31 30/30/30 
f 31/31/31 32/32/32 30/30/30 
f 30/30/30 32/32/32 32/32/32 
f 32/32/32 31/31/31 32/32/32 
f 32/32/32 31/31/31 33/33/33 
f 31/31/31 34/34/34 33/33/33 
f 33/33/33 34/34/34 34/34/34 
f 34/34/34 35/35/35 34/34/34 
f 34/34/34 35/35/35 35/35/35 
f 35/35/35 36/36/36 35/35/35 
f 35/35/35 36/36/36 37/37/37 
f 36/36/36 38/38/38 37/37/37 
f 37/37/37 38/38/38 39/39/39 
f 38/38/38 40/40/40 39/39/39 
f 39/39/39 40/40/40 41/41/41 
f 40/40/40 42/42/42 41/41/41 
f 41/41/41 42/42/42 43/43/43 
f 42/42/42 44/44/44 43/43/43 
f 43/43/43 44/44/44 44/44/44 
f 44/44/44 45/45/45 44/44/44 
f 44/44/44 45/45/45 45/45/45 
f 45/45/45 46/46/46 45/45/45 
f 45/45/45 46/46/46 47/47/47 
f 46/46/46 48/48/48 47/47/47 
f 47/47/47 48/48/48 49/49/49 
f 48/48/48 50/50/50 49/49/49 
f 49/49/49 50/50/50 51/51/51 
f 50/50/50 52/52/52 51/51/51 
f 51/51/51 52/52/52 53/53/53 
f 52/52/52 54/54/54 53/53/53 
f 53/53/53 54/54/54 54/54/54 
f 54/54/54 55/55/55 54/54/54 
f 54/54/54 55/55/55 55/55/55 
f 55/55/55 56/56/56 55/55/55 
f 55/55/55 56/56/56 57/57/57 
f 56/56/56 58/58/58 57/57/57 
f 57/57/57 58/58/58 59/59/59 
f 58/58/58 60/60/60 59/59/59 
f 59/59/59 60/60/60 61/61/61 
f 60/60/60 62/62/62 61/61/61 
f 61/61/61 62/62/62 63/63/63 
f 62/62/62 64/64/64 63/63/63 
f 63/63/63 64/64/64 65/65/65 
f 64/64/64 66/66/66 65/65/65 
f 65/65/65 66/66/66 67/67/67 
f 66/66/66 68/68/68 67/67/67 
f 67/67/67 68/68/68 69/69/69 
f 68/68/68 70/70/70 69/69/69 
f 69/69/69 70/70/70 71/71/71 
f 70/70/70 72/72/72 71/71/71 
f 71/71/71 72/72/72 73/73/73 
f 72/72/72 73/73/73 73/73/73 
f 73/73/73 73/73/73 4/4/4 
f 73/73/73 4/4/4 4/4/4 
f 4/4/4 4/4/4 4/4/4 
f 4/4/4 2/2/2 4/4/4 
f 4/4/4 2/2/2 74/74/74 
f 2/2/2 75/75/75 74/74/74 
f 74/74/74 75/75/75 75/75/75 
f 75/75/75 76/76/76 75/75/75 
f 75/75/75 76/76/76 76/76/76 
f 76/76/76 77/77/77 76/76/76 
f 76/76/76 77/77/77 78/78/78 
f 77/77/77 79/79/79 78/78/78 
f 78/78/78 79/79/79 79/79/79 
f 79/79/79 80/80/80 79/79/79 
f 79/79/79 80/80/80 80/80/80 
f 80/80/80 81/81/81 80/80/80 
f 80/80/80 81/81/81 82/82/82 
f 81/81/81 83/83/83 82/82/82 
f 82/82/82 83/83/83 84/84/84 
f 83/83/83 85/85/85 84/84/84 
f 84/84/84 85/85/85 86/86/86 
f 85/85/85 87/87/87 86/86/86 
f 86/86/86 87/87/87 87/87/87 
f 87/87/87 88/88/88 87/87/87 
f 87/87/87 88/88/88 88/88/88 
f 88/88/88 89/89/89 88/88/88 
f 88/88/88 89/89/89 90/90/90 
f 89/89/89 91/91/91 90/90/90 
f 90/90/90 91/91/91 92/92/92 
f 91/91/91 93/93/93 92/92/92 
f 92/92/92 93/93/93 94/94/94 
f 93/93/93 95/95/95 94/94/94 
f 94/94/94 95/95/95 95/95/95 
f 95/95/95 96/96/96 95/95/95 
f 95/95/95 96/96/96 96/96/96 
f 96/96/96 97/97/97 96/96/96 
f 96/96/96 97/97/97 98/98/98 
f 97/97/97 99/99/99 98/98/98 
f 98/98/98 99/99/99 100/100/100 
f 99/99/99 101/101/101 100/100/100 
f 100/100/100 101/101/101 102/102/102 
f 101/101/101 103/103/103 102/102/102 
f 102/102/102 103/103/103 104/104/104 
f 103/103/103 105/105/105 104/104/104 
f 104/104/104 105/105/105 105/105/105 
f 105/105/105 106/106/106 105/105/105 
f 105/105/105 106/106/106 106/106/106 
f 106/106/106 107/107/107 106/106/106 
f 106/106/106 107/107/107 108/108/108 
f 107/107/107 109/109/109 108/108/108 
f 108/108/108 109/109/109 110/110/110 
f 109/109/109 111/111/111 110/110/110 
f 110/110/110 111/111/111 112/112/112 
f 111/111/111 113/113/113 112/112/112 
f 112/112/112 113/113/113 113/113/113 
f 113/113/113 114/114/114 113/113/113 
f 113/113/113 114/114/114 114/114/114 
f 114/114/114 9/9/9 114/114/114 
f 114/114/114 9/9/9 115/115/115 
f 9/9/9 11/11/11 115/115/115 
f 115/115/115 11/11/11 11/11/11 
f 11/11/11 116/116/116 11/11/11 
f 11/11/11 116/116/116 116/116/116 
f 116/116/116 117/117/117 116/116/116 
f 116/116/116 117/117/117 118/118/118 
f 117/117/117 119/119/119 118/118/118 
f 118/118/118 119/119/119 119/119/119 
f 119/119/119 120/120/120 119/119/119 
f 119/119/119 120/120/120 120/120/120 
f 120/120/120 121/121/121 120/120/120 
f 120/120/120 121/121/121 122/122/122 
f 121/121/121 123/123/123 122/122/122 
f 122/122/122 123/123/123 123/123/123 
f 123/123/123 124/124/124 123/123/123 
f 123/123/123 124/124/124 124/124/124 
f 124/124/124 125/125/125 124/124/124 
f 124/124/124 125/125/125 126/126/126 
f 125/125/125 127/127/127 126/126/126 
f 126/126/126 127/127/127 128/128/128 
f 127/127/127 129/129/129 128/128/128 
f 128/128/128 129/129/129 130/130/130 
f 129/129/129 131/131/131 130/130/130 
f 130/130/130 131/131/131 132/132/132 
f 131/131/131 133/133/133 132/132/132 
f 132/132/132 133/133/133 134/134/134 
f 133/133/133 135/135/135 134/134/134 
f 134/134/134 135/135/135 136/136/136 
f 135/135/135 137/137/137 136/136/136 
f 136/136/136 137/137/137 138/138/138 
f 137/137/137 139/139/139 138/138/138 
f 138/138/138 139/139/139 140/140/140 
f 139/139/139 141/141/141 140/140/140 
f 140/140/140 141/141/141 142/142/142 
f 141/141/141 143/143/143 142/142/142 
f 142/142/142 143/143/143 143/143/143 
f 143/143/143 144/144/144 143/143/143 
f 143/143/143 144/144/144 144/144/144 
f 144/144/144 145/145/145 144/144/144 
f 144/144/144 145/145/145 146/146/146 
f 145/145/145 147/147/147 146/146/146 
f 146/146/146 147/147/147 147/147/147 
f 147/147/147 145/145/145 147/147/147 
f 147/147/147 145/145/145 145/145/145 
f 145/145/145 148/148/148 145/145/145 
f 145/145/145 148/148/148 147/147/147 
f 148/148/148 149/149/149 147/147/147 
f 147/147/147 149/149/149 149/149/149 
f 149/149/149 148/148/148 149/149/149 
f 149/149/149 148/148/148 148/148/148 
f 148/148/148 150/150/150 148/148/148 
f 148/148/148 150/150/150 149/149/149 
f 150/150/150 151/151/151 149/149/149 
f 149/149/149 151/151/151 151/151/151 
f 151/151/151 150/150/150 151/151/151 
f 151/151/151 150/150/150 150/150/150 
f 150/150/150 152/152/152 150/150/150 
f 150/150/150 152/152/152 151/151/151 
f 152/152/152 153/153/153 151/151/151 
f 151/151/151 153/153/153 153/153/153 
f 153/153/153 152/152/152 153/153/153 
f 153/153/153 152/152/152 152/152/152 
f 152/152/152 154/154/154 152/152/152 
f 152/152/152 154/154/154 153/153/153 
f 154/154/154 155/155/155 153/153/153 
f 153/153/153 155/155/155 155/155/155 
f 155/155/155 154/154/154 155/155/155 
f 155/155/155 154/154/154 154/154/154 
f 154/154/154 156/156/156 154/154/154 
f 154/154/154 156/156/156 155/155/155 
f 156/156/156 157/157/157 155/155/155 
f 155/155/155 157/157/157 157/157/157 
f 157/157/157 156/156/156 157/157/157 
f 157/157/157 156/156/156 156/156/156 
f 156/156/156 158/158/158 156/156/156 
f 156/156/156 158/158/158 157/157/157 
f 158/158/158 159/159/159 157/157/157 
f 157/157/157 159/159/159 159/159/159 
f 159/159/159 158/158/158 159/159/159 
f 159/159/159 158/158/158 158/158/158 
f 158/158/158 160/160/160 158/158/158 
f 158/158/158 160/160/160 159/159/159 
f 160/160/160 161/161/161 159/159/159 
f 159/159/159 161/161/161 161/161/161 
f 161/161/161 160/160/160 161/161/161 
f 161/161/161 160/160/160 160/160/160 
f 160/160/160 162/162/162 160/160/160 
f 160/160/160 162/162/162 161/161/161 
f 162/162/162 163/163/163 161/161/161 
f 161/161/161 163/163/163 163/163/163 
f 163/163/163 162/162/162 163/163/163 
f 163/163/163 162/162/162 162/162/162 
f 162/162/162 164/164/164 162/162/162 
f 162/162/162 164/164/164 163/163/163 
f 164/164/164 165/165/165 163/163/163 
f 163/163/163 165/165/165 165/165/165 
f 165/165/165 164/164/164 165/165/165 
f 165/165/165 164/164/164 164/164/164 
f 164/164/164 166/166/166 164/164/164 
f 164/164/164 166/166/166 165/165/165 
f 166/166/166 167/167/167 165/165/165 
f 165/165/165 167/167/167 167/167/167 
f 167/167/167 166/166/166 167/167/167 
f 167/167/167 166/166/166 166/166/166 
f 166/166/166 168/168/168 166/166/166 
f 166/166/166 168/168/168 167/167/167 
f 168/168/168 169/169/169 167/167/167 
f 167/167/167 169/169/169 169/169/169 
f 169/169/169 168/168/168 169/169/169 
f 169/169/169 168/168/168 168/168/168 
f 168/168/168 170/170/170 168/168/168 
f 168/168/168 170/170/170 169/169/169 
f 170/170/170 171/171/171 169/169/169 
f 169/169/169 171/171/171 171/171/171 
f 171/171/171 172/172/172 171/171/171 
f 171/171/171 172/172/172 172/172/172 
f 172/172/172 173/173/173 172/172/172 
f 172/172/172 173/173/173 174/174/174 
f 173/173/173 175/175/175 174/174/174 
f 174/174/174 175/175/175 176/176/176 
f 175/175/175 177/177/177 176/176/176 
f 176/176/176 177/177/177 178/178/178 
f 177/177/177 179/179/179 178/178/178 
f 178/178/178 179/179/179 180/180/180 
f 179/179/179 181/181/181 180/180/180 
f 180/180/180 181/181/181 182/182/182 
f 181/181/181 183/183/183 182/182/182 
f 182/182/182 183/183/183 184/184/184 
f 183/183/183 185/185/185 184/184/184 
f 184/184/184 185/185/185 186/186/186 
f 185/185/185 187/187/187 186/186/186 
f 186/186/186 187/187/187 188/188/188 
f 187/187/187 189/189/189 188/188/188 
f 188/188/188 189/189/189 190/190/190 
f 189/189/189 191/191/191 190/190/190 
f 190/190/190 191/191/191 192/192/192 
f 191/191/191 193/193/193 192/192/192 
f 192/192/192 193/193/193 194/194/194 
f 193/193/193 195/195/195 194/194/194 
f 194/194/194 195/195/195 196/196/196 
f 195/195/195 197/197/197 196/196/196 
f 196/196/196 197/197/197 198/198/198 
f 197/197/197 199/199/199 198/198/198 
f 198/198/198 199/199/199 199/199/199 
f 199/199/199 200/200/200 199/199/199 
f 199/199/199 200/200/200 200/200/200 
f 200/200/200 201/201/201 200/200/200 
f 200/200/200 201/201/201 202/202/202 
f 201/201/201 203/203/203 202/202/202 
f 202/202/202 203/203/203 204/204/204 
f 203/203/203 205/205/205 204/204/204 
f 204/204/204 205/205/205 206/206/206 
f 205/205/205 207/207/207 206/206/206 
f 206/206/206 207/207/207 208/208/208 
f 207/207/207 117/117/117 208/208/208 
f 208/208/208 117/117/117 117/117/117 
f 117/117/117 209/209/209 117/117/117 
f 117/117/117 209/209/209 209/209/209 
f 209/209/209 210/210/210 209/209/209 
f 209/209/209 210/210/210 211/211/211 
f 210/210/210 212/212/212 211/211/211 
f 211/211/211 212/212/212 213/213/213 
f 212/212/212 214/214/214 213/213/213 
f 213/213/213 214/214/214 215/215/215 
f 214/214/214 216/216/216 215/215/215 
f 215/215/215 216/216/216 217/217/217 
f 216/216/216 218/218/218 217/217/217 
f 117/117/117 219/219/219 119/119/119 
f 73/73/73 220/220/220 71/71/71 

